#N canvas 724 633 450 404 10;
#N canvas 768 297 624 580 glsl 0;
#X obj 78 179 glsl_vertex;
#X msg 21 151 print;
#X obj 78 466 glsl_program;
#X obj 163 395 pack 0 0;
#X msg 30 316 print;
#X obj 163 351 change;
#X obj 150 198 change;
#X msg 163 419 link \$1 \$2;
#X msg 32 460 print;
#X obj 77 330 glsl_fragment;
#X floatatom 163 375 2 0 0 0 ID - -, f 2;
#X floatatom 150 221 2 0 0 0 ID - -, f 2;
#X obj 181 440 print linking;
#X obj 21 58 inlet;
#X obj 78 502 outlet;
#X obj 418 21 inlet;
#X obj 390 473 change;
#X obj 391 516 outlet;
#X obj 90 266 symbol;
#X obj 90 241 t b;
#X msg 117 147 open glsl/nfp_22.vert;
#X msg 90 293 open glsl/nfp_22.frag;
#X obj 21 93 route bang;
#X obj 390 494 t b;
#X connect 0 0 9 0;
#X connect 0 1 6 0;
#X connect 1 0 0 0;
#X connect 2 0 14 0;
#X connect 2 1 16 0;
#X connect 3 0 7 0;
#X connect 4 0 9 0;
#X connect 5 0 10 0;
#X connect 6 0 11 0;
#X connect 6 0 19 0;
#X connect 7 0 2 0;
#X connect 7 0 12 0;
#X connect 8 0 2 0;
#X connect 9 0 2 0;
#X connect 9 1 5 0;
#X connect 10 0 3 0;
#X connect 11 0 3 1;
#X connect 13 0 22 0;
#X connect 15 0 2 0;
#X connect 16 0 23 0;
#X connect 18 0 21 0;
#X connect 19 0 18 0;
#X connect 20 0 0 0;
#X connect 21 0 9 0;
#X connect 22 0 20 0;
#X connect 22 1 0 0;
#X connect 23 0 17 0;
#X restore 30 286 pd glsl;
#X obj 30 357 pix_texture;
#X obj 30 376 mesh_square 50 50;
#X obj 30 313 alpha;
#X obj 151 10 r \$1GLSL;
#X obj 162 327 r \$1TEX;
#X obj 97 181 list;
#X obj 237 195 list;
#X obj 30 68 t a b;
#X msg 44 151 1;
#X obj 44 173 change;
#X obj 44 193 b;
#X obj 148 40 route \$2;
#X obj 147 60 route vec2;
#X obj 167 253 list trim;
#X obj 97 202 list-group;
#X obj 237 216 list-group;
#X msg 155 183 3;
#X msg 295 194 2;
#X obj 30 17 r \$1Render;
#X obj 30 49 gemhead 50;
#X msg 114 17 1;
#X obj 316 266 gemhead;
#X obj 153 290 print \$1Render;
#X obj 118 39 tgl 15 0 empty empty empty 17 7 0 10 -262144 -1 -1 0
1;
#X connect 0 0 3 0;
#X connect 0 1 6 0;
#X connect 0 1 7 0;
#X connect 1 0 2 0;
#X connect 3 0 1 0;
#X connect 4 0 12 0;
#X connect 5 0 1 1;
#X connect 6 0 15 0;
#X connect 7 0 16 0;
#X connect 8 0 0 0;
#X connect 8 1 9 0;
#X connect 8 1 17 0;
#X connect 8 1 18 0;
#X connect 9 0 10 0;
#X connect 10 0 11 0;
#X connect 11 0 0 0;
#X connect 12 0 13 0;
#X connect 13 0 6 1;
#X connect 13 1 7 1;
#X connect 14 0 0 1;
#X connect 14 0 23 0;
#X connect 15 0 14 0;
#X connect 16 0 14 0;
#X connect 17 0 15 1;
#X connect 18 0 16 1;
#X connect 19 0 20 0;
#X connect 20 0 8 0;
#X connect 21 0 20 0;
#X connect 24 0 20 0;
