#N canvas 702 439 579 300 10;
#X obj 5 4 inlet;
#X obj 231 237 s SYS_GUI;
#X obj 138 130 route set;
#X obj 287 134 route set;
#X msg 230 213 set settings(\$1) \$2;
#X obj 5 24 route \$1 \$2 \$3;
#X obj 449 137 route set;
#X obj 59 89 s \$5\$6\$4\$3-r;
#X obj 5 127 s \$4\$1-r;
#X obj 32 110 s \$4\$2-r;
#X obj 123 35 r \$4\$1-s;
#X obj 138 59 r \$4\$1-r;
#X obj 272 52 r \$4\$2-s;
#X obj 287 74 r \$4\$2-r;
#X obj 432 35 r \$4\$3-s;
#X obj 449 57 r \$4\$3-r;
#X obj 123 152 list prepend \$4\$1;
#X obj 272 156 list prepend \$4\$2;
#X obj 432 159 list prepend \$4\$3;
#X connect 0 0 5 0;
#X connect 2 0 16 0;
#X connect 3 0 17 0;
#X connect 4 0 1 0;
#X connect 5 0 8 0;
#X connect 5 1 9 0;
#X connect 5 2 7 0;
#X connect 6 0 18 0;
#X connect 10 0 16 0;
#X connect 11 0 2 0;
#X connect 12 0 17 0;
#X connect 13 0 3 0;
#X connect 14 0 18 0;
#X connect 15 0 6 0;
#X connect 16 0 4 0;
#X connect 17 0 4 0;
#X connect 18 0 4 0;
