#N canvas 1067 11 671 342 10;
#X obj 8 98 inlet;
#X obj 8 119 unpack f f f;
#X obj 8 189 / 256;
#X obj 42 169 / 256;
#X obj 77 149 / 256;
#X obj 8 309 s \$1R-r;
#X obj 42 289 s \$1G-r;
#X obj 421 14 r \$1G-r;
#X obj 360 70 route set;
#X obj 421 70 route set;
#X obj 482 70 route set;
#X obj 197 18 r \$1G-s;
#X obj 164 228 list prepend \$2;
#X obj 164 209 pack s s s;
#X obj 138 135 makefilename %02x;
#X obj 358 133 makefilename %02x;
#X obj 77 269 s \$1B-r;
#X obj 247 134 makefilename %02x;
#X obj 8 260 i;
#X obj 42 260 i;
#X obj 77 240 i;
#X obj 198 66 t b a;
#X obj 246 66 t b a;
#X obj 138 15 r \$1B-s;
#X obj 246 18 r \$1R-s;
#X obj 360 14 r \$1B-r;
#X obj 482 14 r \$1R-r;
#X msg 150 275 \; SYS_GUI \$1 configure -bg #\$4\$3\$2;
#X connect 0 0 1 0;
#X connect 1 0 2 0;
#X connect 1 1 3 0;
#X connect 1 2 4 0;
#X connect 2 0 18 0;
#X connect 3 0 19 0;
#X connect 4 0 20 0;
#X connect 7 0 9 0;
#X connect 8 0 14 0;
#X connect 9 0 17 0;
#X connect 10 0 15 0;
#X connect 11 0 21 0;
#X connect 12 0 27 0;
#X connect 13 0 12 0;
#X connect 14 0 13 0;
#X connect 15 0 13 2;
#X connect 17 0 13 1;
#X connect 18 0 5 0;
#X connect 19 0 6 0;
#X connect 20 0 16 0;
#X connect 21 0 13 0;
#X connect 21 1 17 0;
#X connect 22 0 13 0;
#X connect 22 1 15 0;
#X connect 23 0 14 0;
#X connect 24 0 22 0;
#X connect 25 0 8 0;
#X connect 26 0 10 0;
