#N canvas 1090 220 579 300 10;
#X obj 71 9 inlet;
#X obj 308 245 s SYS_GUI;
#X obj 241 131 route set;
#X obj 392 128 route set;
#X obj 71 54 route \$1 \$2;
#X msg 230 198 set settings(\$1) \$2;
#X msg 379 199 set settings(\$1) \$2;
#X obj 29 131 s \$4\$5\$3\$1-r;
#X obj 120 131 s \$4\$5\$3\$2-r;
#X obj 230 63 r \$4\$5\$3\$1-s;
#X obj 379 60 r \$4\$5\$3\$2-s;
#X obj 230 160 list prepend \$4\$5\$3\$1;
#X obj 379 164 list prepend \$4\$5\$3\$2;
#X obj 241 111 r \$4\$5\$3\$1-r;
#X obj 392 108 r \$4\$5\$3\$2-r;
#X connect 0 0 4 0;
#X connect 2 0 11 0;
#X connect 3 0 12 0;
#X connect 4 0 7 0;
#X connect 4 1 8 0;
#X connect 5 0 1 0;
#X connect 6 0 1 0;
#X connect 9 0 11 0;
#X connect 10 0 12 0;
#X connect 11 0 5 0;
#X connect 12 0 6 0;
#X connect 13 0 2 0;
#X connect 14 0 3 0;
