#N canvas 1092 345 743 658 10;
#X obj 117 117 spigot;
#X obj 236 537 \$3;
#X obj 236 556 + 1;
#X obj 236 575 s \$1videoloop;
#X obj 150 71 r \$1videoloop;
#X obj 236 516 b;
#X obj 150 92 == \$3;
#X msg 359 224 0;
#X msg 384 182 set \$1;
#X obj 179 261 + 1;
#X obj 146 251 f;
#X obj 236 463 sel;
#X obj 236 492 demux 0 1;
#N canvas 1416 455 450 300 SET 0;
#X obj 102 45 inlet;
#X obj 317 56 r \$0pt;
#X obj 102 137 unpack f f f;
#X obj 44 247 outlet;
#X obj 102 245 set media-array length width height;
#X connect 0 0 2 0;
#X connect 1 0 4 3;
#X connect 2 0 3 0;
#X connect 2 0 4 0;
#X connect 2 1 4 1;
#X connect 2 2 4 2;
#X restore 140 397 pd SET;
#X obj 287 167 > 0;
#X obj 260 147 t a a;
#X msg 16 246 open \$1;
#N canvas 1537 501 356 565 pointer 0;
#X msg 24 201 next;
#X obj 24 226 pointer;
#X obj 24 182 until;
#X msg 120 315 1;
#X msg 151 315 0;
#X obj 24 342 spigot;
#X obj 24 245 t p p;
#X obj 49 157 t b b;
#X msg 62 203 traverse pd-texturedata;
#X obj 51 264 get texture id;
#X obj 209 204 \$5;
#X obj 120 294 sel;
#X obj 24 361 t b p;
#X obj 24 380 \$3;
#X obj 48 -2 inlet;
#X obj 24 462 s \$0pt;
#X obj 24 399 element texture media;
#X obj 75 442 get media-array filename;
#X obj 75 461 s \$0file;
#X msg 55 63 1;
#X obj 55 89 change;
#X connect 0 0 1 0;
#X connect 1 0 6 0;
#X connect 1 1 2 1;
#X connect 2 0 0 0;
#X connect 3 0 5 1;
#X connect 4 0 5 1;
#X connect 5 0 12 0;
#X connect 6 0 5 0;
#X connect 6 1 9 0;
#X connect 7 0 2 0;
#X connect 7 1 8 0;
#X connect 7 1 10 0;
#X connect 8 0 1 0;
#X connect 9 0 11 0;
#X connect 10 0 11 1;
#X connect 11 0 3 0;
#X connect 11 1 4 0;
#X connect 12 0 13 0;
#X connect 12 1 16 1;
#X connect 13 0 16 0;
#X connect 14 0 19 0;
#X connect 16 0 15 0;
#X connect 16 0 17 0;
#X connect 17 0 18 0;
#X connect 19 0 20 0;
#X connect 20 0 7 0;
#X restore 144 51 pd pointer;
#X obj 28 608 s \$1frame;
#X obj 28 424 ==;
#X obj 28 384 - 1;
#X obj 28 364 \$4;
#X obj 28 404 pack f \$3;
#X obj 29 562 list append;
#X obj 49 503 pack;
#X obj 118 362 pix_film;
#X obj 479 281 &;
#X obj 509 257 r \$1film;
#X obj 257 398 spigot;
#X floatatom 488 337 5 0 0 0 - - -;
#X obj 260 107 pointer;
#X obj 117 27 t a b;
#X obj 99 225 t b a b b;
#X obj 260 128 get media-array end offset loop;
#X obj 117 7 r \$1MediaHead;
#X obj 117 627 s \$1MediaFoot;
#X obj 15 227 r \$0file;
#X obj 298 86 r \$0pt;
#X connect 0 0 32 0;
#X connect 1 0 2 0;
#X connect 2 0 3 0;
#X connect 4 0 6 0;
#X connect 5 0 1 0;
#X connect 6 0 0 1;
#X connect 7 0 10 1;
#X connect 7 0 25 1;
#X connect 8 0 7 0;
#X connect 9 0 10 1;
#X connect 10 0 9 0;
#X connect 10 0 24 0;
#X connect 10 0 11 0;
#X connect 10 0 25 1;
#X connect 11 0 12 0;
#X connect 12 0 5 0;
#X connect 12 1 7 0;
#X connect 13 0 24 1;
#X connect 13 0 11 1;
#X connect 14 0 28 1;
#X connect 15 0 28 0;
#X connect 15 1 14 0;
#X connect 16 0 25 0;
#X connect 19 0 23 0;
#X connect 20 0 22 0;
#X connect 21 0 20 0;
#X connect 22 0 19 0;
#X connect 23 0 18 0;
#X connect 24 0 23 1;
#X connect 25 0 35 0;
#X connect 25 1 13 0;
#X connect 25 2 12 0;
#X connect 26 0 12 1;
#X connect 26 0 29 0;
#X connect 27 0 26 1;
#X connect 28 0 11 1;
#X connect 28 0 24 1;
#X connect 30 0 33 0;
#X connect 31 0 0 0;
#X connect 31 1 17 0;
#X connect 32 0 21 0;
#X connect 32 1 25 0;
#X connect 32 2 10 0;
#X connect 32 3 30 0;
#X connect 33 0 15 0;
#X connect 33 1 8 0;
#X connect 33 2 26 0;
#X connect 34 0 31 0;
#X connect 36 0 16 0;
#X connect 37 0 30 1;
