#N canvas 486 59 818 300 10;
#X obj 10 6 r mediaBuffer-r;
#N canvas 803 162 460 466 film_open 1;
#X obj 132 8 inlet;
#X obj 32 100 gemhead;
#X msg 132 68 open \$1;
#X obj 32 148 pix_film;
#X obj 90 242 until;
#X obj 90 262 i;
#X obj 128 266 + 1;
#X msg 32 75 0;
#X obj 32 53 loadbang;
#X obj 95 307 t b f f f;
#X msg 135 242 0;
#X obj 58 402 outlet info;
#X obj 187 402 outlet finished;
#X obj 133 204 t b;
#X obj 288 275 random;
#X obj 245 61 t b a;
#X obj 335 113 gemlist;
#X obj 335 139 s mediaPreview;
#X obj 32 363 pix_buffer_write media-\$2;
#X obj 58 176 t a b a;
#X obj 58 325 t a b;
#X obj 90 202 t b b;
#X msg 316 221 \$1;
#X connect 0 0 2 0;
#X connect 1 0 3 0;
#X connect 2 0 3 0;
#X connect 3 0 16 1;
#X connect 3 0 18 0;
#X connect 3 1 19 0;
#X connect 3 2 13 0;
#X connect 4 0 5 0;
#X connect 5 0 6 0;
#X connect 5 0 9 0;
#X connect 6 0 5 1;
#X connect 7 0 1 0;
#X connect 8 0 7 0;
#X connect 9 0 1 0;
#X connect 9 1 3 1;
#X connect 9 2 18 1;
#X connect 10 0 5 1;
#X connect 13 0 4 1;
#X connect 13 0 14 0;
#X connect 14 0 15 0;
#X connect 15 0 16 0;
#X connect 15 1 3 1;
#X connect 16 0 17 0;
#X connect 19 0 20 0;
#X connect 19 2 21 0;
#X connect 19 2 22 0;
#X connect 20 0 11 0;
#X connect 20 1 12 0;
#X connect 21 0 4 0;
#X connect 21 1 10 0;
#X connect 22 0 14 1;
#X restore 10 154 pd film_open;
#X obj 10 221 s mediaBuffer-s;
#X msg 10 186 1 \$1 \$2 \$3;
#X obj 10 33 route \$2;
#X obj 7 267 pix_buffer media-\$2 \$3;
#X obj 127 161 s mediaDone;
#X obj 10 68 list;
#X connect 0 0 4 0;
#X connect 1 0 3 0;
#X connect 1 1 6 0;
#X connect 3 0 2 0;
#X connect 4 0 7 0;
#X connect 7 0 1 0;
