#N canvas 847 226 816 660 10;
#X obj 289 139 f;
#X obj 210 120 spigot;
#X obj 271 111 sel 0 1;
#X obj 241 92 t f f;
#X obj 210 168 -;
#X obj 210 217 +;
#X obj 271 181 f;
#X obj 163 136 f;
#X obj 84 117 spigot;
#X obj 145 108 sel 0 1;
#X obj 115 89 t f f;
#X obj 84 168 -;
#X obj 84 217 +;
#X obj 145 178 f;
#X obj 410 130 f;
#X obj 331 114 spigot;
#X obj 392 105 sel 0 1;
#X obj 362 86 t f f;
#X obj 331 165 -;
#X obj 392 175 f;
#X obj 84 433 * 4;
#X obj 139 435 * 4;
#X obj 156 276 t b f;
#X obj 98 340 cos;
#X obj 110 398 * 1;
#X obj 84 398 * 1;
#X obj 136 341 sin;
#X obj 111 434 * 4;
#X obj 98 362 t b f;
#X obj 98 316 / 200;
#X obj 87 543 pack f f f;
#X obj 296 4 gemmouse;
#X obj 519 103 t b f;
#X obj 519 132 |;
#X obj 491 208 gemhead;
#X obj 495 161 loadbang;
#X msg 491 183 0;
#X obj 491 283 curve 2;
#X obj 491 234 color 1 0 0;
#X obj 575 208 gemhead;
#X obj 575 283 curve 2;
#X obj 655 210 gemhead;
#X obj 655 285 curve 2;
#X msg 528 257 3 0 0;
#X msg 612 257 0 3 0;
#X msg 692 259 0 0 3;
#X msg 87 568 view \$1 \$2 \$3 0 0 0 0 1 0;
#X obj 575 234 color 0 1 0;
#X obj 655 236 color 0 0 1;
#X obj 84 276 sin;
#X obj 110 277 cos;
#X obj 331 214 + 200;
#X obj 161 250 / 50;
#X floatatom 511 393 5 0 0 0 - - -, f 5;
#X floatatom 557 390 5 0 0 0 - - -, f 5;
#X obj 84 251 / -200;
#X obj 24 24 inlet;
#X obj 27 631 outlet;
#X obj 28 603 gemwin \$1;
#X floatatom 319 508 5 0 0 0 - - -, f 5;
#X floatatom 423 506 5 0 0 0 - - -, f 5;
#X floatatom 234 510 5 0 0 0 - - -, f 5;
#X obj 353 551 s gemview;
#X obj 667 36 t b b;
#X obj 667 57 timer;
#X obj 667 15 sel 1;
#X obj 667 98 sel 1;
#X obj 667 77 < 500;
#X obj 363 403 t b b;
#X obj 604 39 t b b;
#X obj 604 60 timer;
#X obj 604 18 sel 1;
#X obj 604 101 sel 1;
#X obj 604 80 < 500;
#X obj 617 151 s doubleClick;
#X msg 667 119 l;
#X msg 606 121 m;
#X obj 370 303 r doubleClick;
#X obj 370 326 route l m;
#X msg 290 301 0;
#X obj 287 323 t a a;
#X msg 395 426 -1 4;
#X obj 129 604 route view;
#X obj 138 628 s _viewpoint;
#X connect 0 0 4 1;
#X connect 1 0 4 0;
#X connect 2 0 6 0;
#X connect 2 1 0 0;
#X connect 3 0 1 1;
#X connect 3 1 2 0;
#X connect 4 0 5 0;
#X connect 5 0 6 1;
#X connect 5 0 29 0;
#X connect 6 0 5 1;
#X connect 7 0 11 1;
#X connect 8 0 11 0;
#X connect 9 0 13 0;
#X connect 9 1 7 0;
#X connect 10 0 8 1;
#X connect 10 1 9 0;
#X connect 11 0 12 0;
#X connect 12 0 13 1;
#X connect 12 0 55 0;
#X connect 13 0 12 1;
#X connect 14 0 18 1;
#X connect 15 0 18 0;
#X connect 16 0 19 0;
#X connect 16 1 14 0;
#X connect 17 0 15 1;
#X connect 17 1 16 0;
#X connect 18 0 51 0;
#X connect 19 0 51 1;
#X connect 20 0 30 0;
#X connect 20 0 61 0;
#X connect 21 0 30 2;
#X connect 21 0 60 0;
#X connect 22 0 21 0;
#X connect 22 0 20 0;
#X connect 22 0 27 0;
#X connect 22 1 21 1;
#X connect 22 1 20 1;
#X connect 22 1 27 1;
#X connect 23 0 28 0;
#X connect 24 0 21 0;
#X connect 25 0 20 0;
#X connect 26 0 27 0;
#X connect 27 0 30 1;
#X connect 27 0 59 0;
#X connect 28 0 24 0;
#X connect 28 0 25 0;
#X connect 28 1 24 1;
#X connect 28 1 25 1;
#X connect 29 0 23 0;
#X connect 29 0 26 0;
#X connect 30 0 46 0;
#X connect 30 0 62 0;
#X connect 31 0 8 0;
#X connect 31 0 7 1;
#X connect 31 1 1 0;
#X connect 31 1 0 1;
#X connect 31 1 14 1;
#X connect 31 1 15 0;
#X connect 31 3 17 0;
#X connect 31 3 32 0;
#X connect 31 3 71 0;
#X connect 31 4 33 0;
#X connect 31 4 3 0;
#X connect 31 4 10 0;
#X connect 31 4 65 0;
#X connect 32 0 33 0;
#X connect 32 1 33 1;
#X connect 33 0 34 0;
#X connect 33 0 39 0;
#X connect 33 0 41 0;
#X connect 34 0 38 0;
#X connect 35 0 36 0;
#X connect 35 0 43 0;
#X connect 35 0 44 0;
#X connect 35 0 45 0;
#X connect 35 0 55 0;
#X connect 35 0 51 0;
#X connect 36 0 34 0;
#X connect 36 0 39 0;
#X connect 36 0 41 0;
#X connect 38 0 37 0;
#X connect 39 0 47 0;
#X connect 41 0 48 0;
#X connect 43 0 37 2;
#X connect 44 0 40 2;
#X connect 45 0 42 2;
#X connect 46 0 82 0;
#X connect 46 0 58 0;
#X connect 47 0 40 0;
#X connect 48 0 42 0;
#X connect 49 0 25 0;
#X connect 50 0 24 0;
#X connect 51 0 19 1;
#X connect 51 0 52 0;
#X connect 52 0 22 0;
#X connect 55 0 49 0;
#X connect 55 0 50 0;
#X connect 56 0 58 0;
#X connect 58 0 57 0;
#X connect 63 0 64 0;
#X connect 63 1 64 1;
#X connect 64 0 67 0;
#X connect 65 0 63 0;
#X connect 66 0 75 0;
#X connect 67 0 66 0;
#X connect 68 0 30 0;
#X connect 68 1 81 0;
#X connect 69 0 70 0;
#X connect 69 1 70 1;
#X connect 70 0 73 0;
#X connect 71 0 69 0;
#X connect 72 0 76 0;
#X connect 73 0 72 0;
#X connect 75 0 74 0;
#X connect 76 0 74 0;
#X connect 77 0 78 0;
#X connect 78 0 79 0;
#X connect 78 1 68 0;
#X connect 79 0 80 0;
#X connect 80 0 20 0;
#X connect 80 1 27 0;
#X connect 81 0 21 0;
#X connect 82 0 83 0;
