#N canvas 997 366 716 436 10;
#X obj 189 287 inlet;
#X obj 22 342 outlet;
#X obj 62 131 t p p;
#X obj 60 42 t b p;
#X obj 430 220 t b p;
#X obj 278 232 inlet;
#X obj 184 403 outlet;
#X obj 580 16 inlet;
#X msg 184 378 set \$1;
#X msg 22 315 set \$1;
#X obj 59 69 \$1;
#X obj 429 260 list prepend \$2;
#X obj 22 274 get cadre-coord X;
#X obj 184 335 get cadre-coord Y;
#X obj 189 308 set cadre-coord X;
#X obj 277 253 set cadre-coord Y;
#X obj 430 283 set -symbol cadre-coord name;
#X obj 60 88 element cadre coord;
#X obj 266 52 r cadreElementSetting;
#X obj 270 75 t a a;
#X obj 270 97 route \$1;
#X connect 0 0 14 0;
#X connect 2 0 12 0;
#X connect 2 0 13 0;
#X connect 2 1 4 0;
#X connect 2 1 14 1;
#X connect 2 1 15 1;
#X connect 3 0 10 0;
#X connect 3 1 17 1;
#X connect 4 0 11 0;
#X connect 4 1 16 1;
#X connect 5 0 15 0;
#X connect 7 0 3 0;
#X connect 8 0 6 0;
#X connect 9 0 1 0;
#X connect 10 0 17 0;
#X connect 11 0 16 0;
#X connect 12 0 9 0;
#X connect 13 0 8 0;
#X connect 17 0 2 0;
#X connect 18 0 19 0;
#X connect 19 0 20 0;
#X connect 20 0 2 0;
