#N canvas 958 604 450 300 10;
#X obj 265 234 inlet;
#X obj 77 247 outlet;
#X obj 167 20 r \$1;
#X obj 168 39 t p p;
#X obj 151 183 f;
#X obj 151 131 r cadreCopy;
#X obj 179 183 r cadrePaste;
#X obj 136 213 f;
#X msg 77 189 set \$1;
#X obj 264 255 set cadre \$2;
#X obj 77 83 get cadre \$2;
#X connect 0 0 9 0;
#X connect 2 0 3 0;
#X connect 3 0 10 0;
#X connect 3 1 9 1;
#X connect 4 0 7 1;
#X connect 5 0 4 0;
#X connect 6 0 7 0;
#X connect 7 0 1 0;
#X connect 8 0 1 0;
#X connect 10 0 4 1;
#X connect 10 0 8 0;
