#N canvas 1238 471 323 397 10;
#X obj 230 189 inlet;
#X obj 17 352 outlet;
#X obj 70 52 t b p;
#X obj 274 -7 inlet;
#X obj 104 348 outlet;
#X obj 184 206 inlet;
#X msg 104 323 set \$1;
#X msg 17 325 set \$1;
#X obj 75 139 t b p;
#X obj 17 284 get point x1 y1;
#X msg 70 74 0;
#X msg 74 160 0;
#X obj 159 266 set point x1 y1;
#X obj 31 205 element plan-coord \$1;
#X obj 72 98 element plan coord;
#X obj 230 208 t b a;
#X connect 0 0 15 0;
#X connect 2 0 10 0;
#X connect 2 1 14 1;
#X connect 3 0 2 0;
#X connect 5 0 12 0;
#X connect 6 0 4 0;
#X connect 7 0 1 0;
#X connect 8 0 11 0;
#X connect 8 1 13 1;
#X connect 9 0 7 0;
#X connect 9 1 6 0;
#X connect 10 0 14 0;
#X connect 11 0 13 0;
#X connect 13 0 9 0;
#X connect 13 0 12 2;
#X connect 14 0 8 0;
#X connect 15 0 12 0;
#X connect 15 1 12 1;
