#N canvas 140 539 450 300 10;
#X obj 183 237 inlet;
#X obj 38 247 outlet;
#X obj 38 18 r \$1;
#X obj 38 102 t p p;
#X obj 38 64 \$3;
#X obj 38 83 element \$2 param;
#X obj 38 159 get \$2-param p;
#X obj 183 258 set \$2-param p;
#X obj 38 37 t b p;
#X obj 258 204 set -symbol \$2-param name;
#X obj 258 185 list prepend \$4;
#X obj 258 132 t b p;
#X connect 0 0 7 0;
#X connect 2 0 8 0;
#X connect 3 0 6 0;
#X connect 3 1 7 1;
#X connect 3 1 11 0;
#X connect 4 0 5 0;
#X connect 5 0 3 0;
#X connect 6 0 1 0;
#X connect 8 0 4 0;
#X connect 8 1 5 1;
#X connect 10 0 9 0;
#X connect 11 0 10 0;
#X connect 11 1 9 1;
