#N canvas 766 291 839 300 10;
#X obj 131 41 gemhead;
#X obj 131 62 pix_image \$1;
#X obj 131 83 pix_texture;
#X obj 193 248 s mediaBuffer-s;
#X obj 194 167 list prepend texture \$2;
#X obj 193 218 list trim;
#X obj 59 164 list prepend 0;
#X obj 26 114 gemlist;
#X obj 22 21 r mediaBuffer-r;
#X obj 22 42 route \$2;
#X obj 22 77 del 100;
#X obj 109 122 s mediaDone;
#X obj 131 103 pix_buffer_write media-\$2;
#X obj 421 35 pix_buffer media-\$2 1;
#X msg 276 69 0;
#X connect 0 0 1 0;
#X connect 0 0 14 0;
#X connect 1 0 2 0;
#X connect 2 0 7 1;
#X connect 2 0 12 0;
#X connect 2 1 4 0;
#X connect 4 0 5 0;
#X connect 5 0 3 0;
#X connect 6 0 5 0;
#X connect 7 0 6 0;
#X connect 8 0 9 0;
#X connect 9 0 10 0;
#X connect 10 0 7 0;
#X connect 10 0 11 0;
#X connect 14 0 12 1;
