#N canvas 164 97 832 393 10;
#X obj 341 40 inlet;
#X obj 180 60 inlet;
#X obj 180 302 outlet;
#X obj 341 84 f \$1;
#X obj 180 183 list prepend;
#X obj 180 111 t b a;
#X obj 180 138 until;
#X obj 261 270 t b a;
#X obj 261 153 list prepend;
#X obj 341 118 t b b f;
#X obj 395 40 loadbang;
#X obj 180 228 list split 1;
#X obj 387 154 max 1;
#X connect 0 0 3 0;
#X connect 1 0 5 0;
#X connect 3 0 9 0;
#X connect 4 0 11 0;
#X connect 5 0 6 0;
#X connect 5 1 8 0;
#X connect 6 0 4 0;
#X connect 7 0 6 1;
#X connect 7 1 8 1;
#X connect 8 0 4 1;
#X connect 9 0 4 1;
#X connect 9 1 8 1;
#X connect 9 2 12 0;
#X connect 10 0 3 0;
#X connect 11 0 2 0;
#X connect 11 1 4 1;
#X connect 11 2 7 0;
#X connect 12 0 11 1;
