#N canvas 771 540 450 300 10;
#X obj 147 52 t a b;
#X obj 174 98 get rgb-param r g b a;
#X obj 147 147 \$1RGB;
#X obj 147 24 route \$2;
#X obj 147 168 list prepend \$3;
#X obj 174 76 list prepend;
#X obj 147 5 r \$4Head;
#X obj 147 189 s \$4Head;
#X obj 267 50 r \$4Pt;
#X connect 0 0 2 0;
#X connect 0 1 5 0;
#X connect 1 0 2 1;
#X connect 1 1 2 2;
#X connect 1 2 2 3;
#X connect 1 3 2 4;
#X connect 2 0 4 0;
#X connect 3 0 0 0;
#X connect 4 0 7 0;
#X connect 5 0 1 0;
#X connect 6 0 3 0;
#X connect 8 0 5 1;
