#N canvas 1231 295 450 300 10;
#X obj 147 5 r matViewHead;
#X obj 147 189 s matViewHead;
#X obj 147 52 t a b;
#X obj 174 98 get rgb-param r g b a;
#X obj 267 50 r matArrayPt;
#X obj 147 147 \$1RGB;
#X obj 147 24 route \$2;
#X obj 147 168 list prepend \$3;
#X obj 174 76 list prepend;
#X connect 0 0 6 0;
#X connect 2 0 5 0;
#X connect 2 1 8 0;
#X connect 3 0 5 1;
#X connect 3 1 5 2;
#X connect 3 2 5 3;
#X connect 3 3 5 4;
#X connect 4 0 8 1;
#X connect 5 0 7 0;
#X connect 6 0 2 0;
#X connect 7 0 1 0;
#X connect 8 0 3 0;
