#N canvas 34 128 450 300 10;
#X obj 10 154 pix_buffer media-\$1;
#X msg 129 92 allocate \$1 \$2 \$3;
#X msg 117 117 resize \$1;
#X obj 299 78 route get;
#X obj 299 142 \$1;
#X obj 156 240 pack;
#X obj 10 33 route \$1;
#X obj 10 58 route open allocate resize;
#X msg 10 101 open \$1 \$2;
#X obj 267 123 t b b;
#X obj 10 6 r mediaBuffer-r;
#X obj 155 264 s mediaBuffer-s;
#X connect 0 0 5 1;
#X connect 1 0 0 0;
#X connect 2 0 0 0;
#X connect 3 0 9 0;
#X connect 4 0 5 0;
#X connect 5 0 11 0;
#X connect 6 0 7 0;
#X connect 7 0 8 0;
#X connect 7 1 1 0;
#X connect 7 2 2 0;
#X connect 7 3 3 0;
#X connect 8 0 0 0;
#X connect 9 0 0 0;
#X connect 9 1 4 0;
#X connect 10 0 6 0;
