#N canvas 0 50 692 300 10;
#X obj 20 13 notein \$2;
#X obj 20 44 pack f f;
#X obj 20 65 route \$1;
#X obj 160 107 pointer;
#X obj 199 84 r modMidiPt;
#X connect 0 0 1 0;
#X connect 0 1 1 1;
#X connect 1 0 2 0;
#X connect 4 0 3 1;
