#N canvas 999 155 360 574 10;
#X obj 119 279 text get -s mod-array param;
#X obj 251 22 r modValuePt;
#N canvas 0 50 450 300 counter 0;
#X obj 166 29 inlet;
#X obj 169 207 outlet;
#X obj 167 117 until;
#X obj 167 138 f;
#X obj 214 138 + 1;
#X obj 167 86 t a b;
#X msg 214 117 0;
#X connect 0 0 5 0;
#X connect 2 0 3 0;
#X connect 3 0 4 0;
#X connect 3 0 1 0;
#X connect 4 0 3 1;
#X connect 5 0 2 0;
#X connect 5 1 6 0;
#X connect 6 0 3 1;
#X restore 92 205 pd counter;
#X obj 251 43 route \$4;
#X obj 107 93 text size -s mod-array param, f 14;
#N canvas 429 108 797 538 paramPt 0;
#X obj 196 333 pointer;
#X msg 196 292 traverse pd-\$1-data \, next, f 11;
#X obj 177 227 t a a a;
#X obj 196 355 list prepend 0;
#X obj 295 383 element;
#X msg 295 298 set \$1 \$2;
#X obj 246 87 t a a a;
#X msg 277 199 \$3;
#X obj 406 431 element;
#X obj 295 402 list prepend 0;
#X msg 406 167 set \$2-array \$4;
#X obj 517 475 element;
#X obj 406 450 list prepend 0;
#X msg 517 166 set \$4-array param;
#X msg 376 167 \$5;
#X msg 487 266 \$6;
#X obj 376 127 t a a a a;
#X obj 246 37 inlet;
#X obj 517 496 outlet;
#X obj 683 169 outlet;
#X connect 0 0 3 0;
#X connect 1 0 0 0;
#X connect 2 1 1 0;
#X connect 2 2 5 0;
#X connect 3 0 4 0;
#X connect 4 0 9 0;
#X connect 5 0 4 0;
#X connect 6 1 2 0;
#X connect 6 2 7 0;
#X connect 6 2 15 0;
#X connect 6 2 16 0;
#X connect 7 0 3 1;
#X connect 8 0 12 0;
#X connect 9 0 8 0;
#X connect 10 0 8 0;
#X connect 11 0 18 0;
#X connect 12 0 11 0;
#X connect 13 0 11 0;
#X connect 14 0 9 1;
#X connect 15 0 12 1;
#X connect 16 0 14 0;
#X connect 16 1 10 0;
#X connect 16 2 13 0;
#X connect 16 3 19 0;
#X connect 17 0 6 0;
#X restore 119 299 pd paramPt;
#X obj 104 452 set;
#X obj 19 68 t a b;
#X msg 176 343 set \$4-param value, f 12;
#N canvas 0 50 450 300 mapValue 0;
#X obj 45 29 inlet;
#X obj 218 15 inlet;
#X obj 46 281 outlet;
#X obj 45 67 / 127;
#X obj 258 164 get;
#X msg 326 73 set \$4-param min;
#X msg 218 72 set \$4-param max;
#X obj 193 164 get;
#X obj 47 260 +;
#X obj 64 216 -;
#X obj 47 236 *;
#X obj 45 88 t a b;
#X obj 108 105 pointer;
#X obj 166 17 inlet;
#X obj 108 126 t p p;
#X connect 0 0 3 0;
#X connect 1 0 5 0;
#X connect 1 0 6 0;
#X connect 3 0 11 0;
#X connect 4 0 8 1;
#X connect 4 0 9 1;
#X connect 5 0 4 0;
#X connect 6 0 7 0;
#X connect 7 0 9 0;
#X connect 8 0 2 0;
#X connect 9 0 10 1;
#X connect 10 0 8 0;
#X connect 11 0 10 0;
#X connect 11 1 12 0;
#X connect 12 0 14 0;
#X connect 13 0 12 1;
#X connect 14 0 7 0;
#X connect 14 1 4 0;
#X restore 31 337 pd mapValue;
#X obj 277 496 get;
#X msg 277 344 set \$4-param name, f 8;
#X obj 196 449 pointer;
#X obj 169 520 list prepend;
#X obj 169 429 t a b;
#X obj 169 547 s modGuiSetting;
#X obj 19 13 ctlin \$2 \$3;
#X obj 19 140 spigot;
#X obj 92 185 f;
#X obj 19 159 t b a;
#X obj 31 299 f;
#X obj 92 224 t b a;
#X connect 0 0 5 0;
#X connect 1 0 3 0;
#X connect 2 0 21 0;
#X connect 3 0 0 3;
#X connect 3 0 4 1;
#X connect 4 0 17 1;
#X connect 4 0 18 1;
#X connect 5 0 6 1;
#X connect 5 0 9 1;
#X connect 5 0 12 1;
#X connect 5 1 8 0;
#X connect 5 1 9 2;
#X connect 5 1 11 0;
#X connect 7 0 17 0;
#X connect 7 1 4 0;
#X connect 8 0 6 0;
#X connect 9 0 6 0;
#X connect 9 0 14 0;
#X connect 10 0 13 1;
#X connect 11 0 10 0;
#X connect 12 0 10 0;
#X connect 13 0 15 0;
#X connect 14 0 13 0;
#X connect 14 1 12 0;
#X connect 16 0 7 0;
#X connect 17 0 19 0;
#X connect 18 0 2 0;
#X connect 19 0 18 0;
#X connect 19 1 20 1;
#X connect 20 0 9 0;
#X connect 21 0 20 0;
#X connect 21 1 0 0;
