#N canvas 1174 158 400 680 10;
#X obj 55 43 route \$1;
#X obj 55 18 r texViewModPt;
#X obj 94 132 s texViewModPt\$1;
#X obj 94 89 list split 1;
#X obj 128 111 s texViewModTexPt;
#N canvas 0 50 450 300 getParam 0;
#X obj 103 41 inlet;
#X obj 174 252 outlet;
#X obj 104 64 text size -s mod-array param;
#X obj 270 44 r texViewModPt\$1;
#X obj 309 158 r texViewModPt\$1;
#X obj 143 182 text get -s mod-array param;
#X obj 104 84 moses 1;
#X obj 143 104 until;
#X obj 143 124 f;
#X obj 170 125 + 1;
#X connect 0 0 2 0;
#X connect 2 0 6 0;
#X connect 3 0 2 1;
#X connect 4 0 5 3;
#X connect 5 0 1 0;
#X connect 6 1 7 0;
#X connect 7 0 8 0;
#X connect 8 0 9 0;
#X connect 8 0 5 0;
#X connect 9 0 8 1;
#X restore 74 173 pd getParam;
#X obj 180 641 set;
#X msg 180 234 set \$4-param ctl, f 8;
#N canvas 690 33 531 448 modLFO 0;
#X obj 407 337 table texViewLFO\$1;
#X obj 408 317 s texViewLFO\$1;
#X obj 152 5 r texViewModPt\$1;
#X obj 152 200 metro;
#X obj 258 173 /;
#X obj 246 124 t b a;
#X obj 152 225 f;
#X obj 181 225 + 1;
#X obj 152 246 tabread texViewLFO\$1;
#X obj 152 417 outlet;
#X msg 246 144 6;
#X obj 152 182 tgl 15 0 empty empty empty 17 7 0 10 -262144 -1 -1 1
1;
#X msg 408 296 sinesum 64 1;
#X obj 152 26 get mod-array lfo freq waveshape;
#X obj 341 47 list trim;
#X obj 209 225 mod 64;
#X obj 341 227 route sine square;
#X obj 152 396 mux 0 1 2 3;
#X msg 297 253 0;
#X obj 167 313 > 0;
#X obj 167 291 t a a;
#X obj 198 314 < 0;
#X obj 197 333 * -1;
#X obj 167 356 +;
#X msg 332 264 1;
#X obj 13 7 r modul;
#X obj 269 88 route freq;
#X obj 13 99 route enable;
#X obj 13 53 route param lfo;
#X floatatom 189 140 5 0 0 0 - - -;
#X obj 13 31 route \$1;
#X obj 78 313 line 0 20;
#X obj 78 292 pack 0 1000;
#X connect 2 0 13 0;
#X connect 3 0 6 0;
#X connect 4 0 3 1;
#X connect 4 0 32 1;
#X connect 5 0 10 0;
#X connect 5 1 4 1;
#X connect 6 0 7 0;
#X connect 6 0 8 0;
#X connect 7 0 15 0;
#X connect 8 0 20 0;
#X connect 8 0 32 0;
#X connect 10 0 4 0;
#X connect 11 0 3 0;
#X connect 12 0 1 0;
#X connect 13 0 11 0;
#X connect 13 1 5 0;
#X connect 13 2 14 0;
#X connect 14 0 16 0;
#X connect 15 0 6 1;
#X connect 16 0 12 0;
#X connect 16 0 18 0;
#X connect 16 1 12 0;
#X connect 16 1 24 0;
#X connect 17 0 9 0;
#X connect 18 0 17 4;
#X connect 19 0 23 0;
#X connect 20 0 19 0;
#X connect 20 1 21 0;
#X connect 21 0 22 0;
#X connect 22 0 23 1;
#X connect 23 0 17 1;
#X connect 24 0 17 4;
#X connect 25 0 30 0;
#X connect 26 0 5 0;
#X connect 26 0 29 0;
#X connect 26 1 16 0;
#X connect 27 0 11 0;
#X connect 28 0 27 0;
#X connect 28 1 26 0;
#X connect 30 0 28 0;
#X connect 31 0 17 0;
#X connect 32 0 31 0;
#X restore 191 277 pd modLFO;
#N canvas 226 30 600 396 getPointers 0;
#X obj 104 10 inlet;
#X msg 21 62 traverse pd-\$1-data \, next, f 16;
#X obj 21 93 pointer;
#X obj 104 32 t a a, f 6;
#X obj 99 148 element;
#X msg 188 71 set \$1 \$2;
#X obj 21 113 list prepend;
#X msg 159 70 \$3;
#X obj 180 202 element;
#X obj 99 169 list prepend;
#X msg 288 73 set \$2-array \$4, f 8;
#X msg 254 71 \$5;
#X msg 426 70 set \$4-array param, f 9;
#X obj 262 249 element;
#X obj 180 221 list prepend;
#X msg 381 72 \$6;
#X obj 507 68 outlet list;
#X obj 262 317 outlet pointers;
#X connect 0 0 3 0;
#X connect 1 0 2 0;
#X connect 2 0 6 0;
#X connect 3 0 1 0;
#X connect 3 1 5 0;
#X connect 3 1 7 0;
#X connect 3 1 11 0;
#X connect 3 1 10 0;
#X connect 3 1 12 0;
#X connect 3 1 15 0;
#X connect 3 1 16 0;
#X connect 4 0 9 0;
#X connect 5 0 4 0;
#X connect 6 0 4 0;
#X connect 7 0 6 1;
#X connect 8 0 14 0;
#X connect 9 0 8 0;
#X connect 10 0 8 0;
#X connect 11 0 9 1;
#X connect 12 0 13 0;
#X connect 13 0 17 0;
#X connect 14 0 13 0;
#X connect 15 0 14 1;
#X restore 74 196 pd getPointers;
#X obj 55 66 t b b p;
#X obj 74 224 list prepend;
#X obj 74 245 t l;
#X obj 53 359 list;
#N canvas 0 50 450 300 drip 0;
#X obj 63 84 t a a;
#X obj 63 241 spigot;
#X obj 102 149 bang;
#X obj 102 168 1;
#X obj 223 149 route bang;
#X obj 183 150 bang;
#X obj 183 169 0;
#X obj 102 114 list split 2;
#X obj 232 379 list split;
#X obj 299 328 list length;
#X obj 299 350 >> 1;
#X obj 63 260 t a a a a;
#X obj 63 446 list split;
#X obj 130 398 list length;
#X obj 130 423 >> 1;
#X obj 31 19 inlet;
#X obj 290 175 outlet;
#X text 73 19 Copyright 2009 by Mathieu Bouchard;
#X obj 31 53 t b a;
#X obj 465 119 outlet;
#X text 520 121 signal end of list;
#X text 381 23 made compatible with [list-drip]: fbar 2009;
#X connect 0 0 1 0;
#X connect 0 1 7 0;
#X connect 1 0 11 0;
#X connect 2 0 3 0;
#X connect 3 0 1 1;
#X connect 4 1 16 0;
#X connect 5 0 6 0;
#X connect 6 0 1 1;
#X connect 7 0 2 0;
#X connect 7 2 4 0;
#X connect 7 2 5 0;
#X connect 8 0 0 0;
#X connect 9 0 10 0;
#X connect 10 0 8 1;
#X connect 11 0 12 0;
#X connect 11 1 13 0;
#X connect 11 2 8 0;
#X connect 11 3 9 0;
#X connect 12 1 0 0;
#X connect 13 0 14 0;
#X connect 14 0 12 1;
#X connect 15 0 18 0;
#X connect 18 0 19 0;
#X connect 18 1 0 0;
#X restore 53 378 pd drip;
#X obj 266 457 get;
#X obj 191 297 t b a;
#X obj 203 461 f;
#X obj 203 483 demux 0 1 2;
#X msg 266 222 set \$4-param type, f 8;
#X obj 203 554 > 0;
#N canvas 541 87 564 360 minmax 1;
#X obj 248 26 inlet;
#X obj 248 158 get;
#X obj 113 33 inlet;
#X msg 248 62 set \$4-param min, f 8;
#X obj 318 158 get;
#X msg 318 62 set \$4-param max, f 8;
#X obj 64 31 inlet;
#X obj 64 302 outlet;
#X obj 64 115 + 1;
#X obj 64 138 / 2;
#X obj 64 240 +;
#X obj 64 209 *;
#X obj 352 142 r texViewModPt\$1;
#X obj 352 163 get mod-array amp;
#X obj 96 253 / 100;
#X obj 64 274 *;
#X obj 470 108 r modul;
#X obj 470 147 route lfo;
#X obj 470 168 route amp;
#X obj 470 128 route \$1;
#X connect 0 0 3 0;
#X connect 0 0 5 0;
#X connect 1 0 10 1;
#X connect 2 0 1 0;
#X connect 2 0 4 0;
#X connect 3 0 1 0;
#X connect 4 0 11 1;
#X connect 5 0 4 0;
#X connect 6 0 8 0;
#X connect 8 0 9 0;
#X connect 9 0 11 0;
#X connect 10 0 15 0;
#X connect 11 0 10 0;
#X connect 12 0 13 0;
#X connect 13 0 14 0;
#X connect 14 0 15 1;
#X connect 15 0 7 0;
#X connect 16 0 19 0;
#X connect 17 0 18 0;
#X connect 18 0 14 0;
#X connect 19 0 17 0;
#X restore 104 596 pd minmax;
#X obj 53 397 t b a a a;
#X connect 0 0 10 0;
#X connect 1 0 0 0;
#X connect 3 0 2 0;
#X connect 3 1 4 0;
#X connect 5 0 9 0;
#X connect 7 0 6 0;
#X connect 8 0 16 0;
#X connect 9 0 11 0;
#X connect 9 1 7 0;
#X connect 9 1 19 0;
#X connect 9 1 21 2;
#X connect 10 1 5 0;
#X connect 10 2 3 0;
#X connect 11 0 12 0;
#X connect 12 0 11 1;
#X connect 12 0 13 1;
#X connect 13 0 14 0;
#X connect 14 0 22 0;
#X connect 15 0 18 1;
#X connect 16 0 13 0;
#X connect 16 1 17 1;
#X connect 17 0 18 0;
#X connect 18 0 20 0;
#X connect 18 1 21 0;
#X connect 19 0 15 0;
#X connect 20 0 6 0;
#X connect 21 0 6 0;
#X connect 22 0 17 0;
#X connect 22 1 6 1;
#X connect 22 2 21 1;
#X connect 22 3 15 0;
