#N canvas 539 756 342 323 10;
#X obj 77 47 r \$1MediaHead;
#X obj 77 296 s \$1MediaFoot;
#X obj 243 139 r \$1Frame;
#X obj 254 17 r \$1Play;
#X obj 77 242 pix_multiimage;
#X msg 97 187 open \$1/*\$2 \$3;
#X obj 254 37 route 2;
#X obj 97 167 list prepend \$3 \$4 \$5;
#X obj 254 58 route \$2;
#X obj 100 141 r \$1load;
#X msg 296 87 0;
#X msg 259 82 1;
#X obj 77 108 spigot;
#X obj 77 70 route \$2;
#X obj 233 199 route 2;
#X obj 236 173 spigot;
#X connect 0 0 13 0;
#X connect 2 0 15 0;
#X connect 3 0 6 0;
#X connect 4 0 1 0;
#X connect 5 0 4 0;
#X connect 6 0 8 0;
#X connect 7 0 5 0;
#X connect 8 0 11 0;
#X connect 8 1 10 0;
#X connect 9 0 7 0;
#X connect 10 0 12 1;
#X connect 10 0 15 1;
#X connect 11 0 12 1;
#X connect 11 0 15 1;
#X connect 12 0 4 0;
#X connect 13 0 12 0;
#X connect 14 0 4 1;
#X connect 15 0 14 0;
