#N canvas 676 352 603 606 10;
#X obj -49 107 gemhead;
#X obj -49 156 alpha;
#X obj -75 139 tgl 15 0 empty empty empty 17 7 0 10 -262144 -1 -1 0
1;
#X obj -22 136 tgl 15 0 empty empty empty 17 7 0 10 -262144 -1 -1 0
1;
#X obj 114 431 square;
#X msg 180 185 \; texViewPlay-r 0 \; pd-texView-multiimg clear \; pd-texViewFx
clear \; pd-texViewGeo clear \; pd-texView-stream clear \;;
#N canvas 316 637 488 191 createFx 0;
#X obj 21 5 inlet;
#X msg 24 68 \; pd-texViewFx obj 100 100 fx/texture/\$1 \$2 texPreview
\$4 \$5 \; \$2FX\$4 loadbang \;;
#X connect 0 0 1 0;
#X restore 75 149 pd createFx;
#N canvas 545 645 337 406 createGeo 0;
#X obj 21 5 inlet;
#X msg 48 52 \; pd-texViewGeo clear;
#X obj 21 32 t a b;
#X msg 21 177 \; pd-texViewGeo obj 100 100 geo/\$5 \$2 \$3;
#X connect 0 0 2 0;
#X connect 2 0 3 0;
#X connect 2 1 1 0;
#X restore 33 170 pd createGeo;
#N canvas 158 698 450 300 texViewGeo 0;
#X obj 100 100 geo/\$5 1 0;
#X restore -48 556 pd texViewGeo;
#N canvas 432 735 450 300 texViewFx 0;
#X restore -49 363 pd texViewFx;
#X obj -48 532 s texViewGeo;
#X obj -49 323 list prepend 0;
#X obj -49 343 s texViewFxHead;
#X obj -48 415 route;
#X obj -48 383 r texViewFxHead;
#X obj -48 510 pix_coordinate;
#N canvas 1353 589 450 300 coord 0;
#X obj 67 212 outlet;
#X obj 67 183 pack 0 0 1 0 1 1 0 1;
#X obj 139 216 pack 0 0 1 0 1 1 0 1;
#X obj 127 251 bng 15 250 50 0 empty empty empty 17 7 0 10 -262144
-1 -1;
#X obj 106 29 r texCoordPt;
#X obj 67 70 get texcoord-array tlx tly trx try blx bly brx bry;
#X obj 68 49 pointer;
#X obj 63 6 inlet;
#X obj 67 94 / 1000;
#X obj 109 94 / 1000;
#X obj 151 94 / 1000;
#X obj 194 94 / 1000;
#X obj 236 94 / 1000;
#X obj 279 94 / 1000;
#X obj 321 94 / 1000;
#X obj 364 94 / 1000;
#X connect 1 0 0 0;
#X connect 2 0 0 0;
#X connect 3 0 2 0;
#X connect 4 0 6 1;
#X connect 5 0 8 0;
#X connect 5 1 9 0;
#X connect 5 2 10 0;
#X connect 5 3 11 0;
#X connect 5 4 12 0;
#X connect 5 5 13 0;
#X connect 5 6 14 0;
#X connect 5 7 15 0;
#X connect 6 0 5 0;
#X connect 7 0 6 0;
#X connect 8 0 1 0;
#X connect 9 0 1 1;
#X connect 10 0 1 2;
#X connect 11 0 1 3;
#X connect 12 0 1 4;
#X connect 13 0 1 5;
#X connect 14 0 1 6;
#X connect 15 0 1 7;
#X restore 45 473 pd coord;
#X obj -48 439 t a b;
#X obj -48 471 pix_texture;
#N canvas 230 688 450 357 texViewMedia 0;
#X obj 24 15 inlet;
#X obj 135 254 outlet;
#X obj 265 95 spigot;
#X obj 202 60 route 1;
#X msg 202 79 open \$2;
#X obj 94 34 list split 1;
#X obj 8 237 list prepend;
#X msg 130 127 \$1;
#X obj 7 257 list trim;
#X obj 354 89 r texView-s;
#X obj 132 7 r texViewPlay;
#X obj 151 230 r texViewMediaFoot;
#X obj 7 278 s texViewMediaHead;
#X obj 264 63 r texViewFrame;
#N canvas 973 743 611 308 texView-multiimg 0;
#X restore 7 304 pd texView-multiimg;
#X obj 265 115 route 1;
#X obj 263 36 print play;
#X obj 134 183 pix_film;
#N canvas 66 92 450 300 texView-stream 0;
#X restore 7 329 pd texView-stream;
#X obj 6 206 list split 1;
#X obj 13 81 route 0 1;
#X obj 24 54 list prepend;
#X floatatom 294 231 5 0 0 3 length - -, f 5;
#X floatatom 342 231 5 0 0 3 width - -, f 5;
#X floatatom 393 231 5 0 0 3 height - -, f 5;
#X obj 301 194 unpack 0 0 0 0;
#X floatatom 409 195 5 0 0 3 fps - -, f 5;
#X connect 0 0 21 0;
#X connect 2 0 15 0;
#X connect 3 0 4 0;
#X connect 4 0 17 0;
#X connect 5 0 21 1;
#X connect 5 1 7 0;
#X connect 6 0 8 0;
#X connect 7 0 6 1;
#X connect 8 0 12 0;
#X connect 9 0 2 1;
#X connect 10 0 3 0;
#X connect 10 0 5 0;
#X connect 10 0 16 0;
#X connect 11 0 1 0;
#X connect 13 0 2 0;
#X connect 15 0 17 1;
#X connect 17 0 1 0;
#X connect 17 1 25 0;
#X connect 19 1 6 0;
#X connect 20 0 1 0;
#X connect 20 1 17 0;
#X connect 20 2 19 0;
#X connect 21 0 20 0;
#X connect 25 0 22 0;
#X connect 25 1 23 0;
#X connect 25 2 24 0;
#X connect 25 3 26 0;
#X restore -49 245 pd texViewMedia;
#N canvas 594 404 820 451 media 0;
#X obj 326 378 list append;
#X obj 341 220 pack f s;
#X obj 324 399 list prepend;
#X obj 211 349 t b a;
#X obj 41 243 pack f f s;
#X obj 568 326 - 1;
#X obj 41 262 s texViewPlay;
#X obj 324 419 list prepend texView;
#X obj 211 328 r texViewImgFolder;
#X obj 19 28 r texViewPlay-s;
#X obj 17 342 metro 100;
#X obj 14 384 f;
#X obj 40 384 + 1;
#X obj 67 384 mod;
#X obj 151 305 /;
#X msg 324 440 \; pd-\$1-multiimg obj 10 10 abs/multiimg \$1 \$2 \$3
\$4 \$5 \; \$1load bang;
#X msg 152 284 1000 \$1;
#X obj 34 210 f;
#X obj 29 49 sel 1;
#X msg 12 430 \; texViewFrame \$1 \$2;
#X obj 12 408 list prepend 1;
#X obj 340 276 route 2 3;
#N canvas 64 90 450 300 multiimagePrepare 0;
#X obj 15 148 sys_gui;
#X obj 15 109 list append texView;
#X msg 15 128 pdsend "\$2ImgFolder [file dirname \$1] [file extension
\$1]";
#X obj 17 88 inlet;
#X connect 1 0 2 0;
#X connect 2 0 0 0;
#X connect 3 0 1 0;
#X restore 387 329 pd multiimagePrepare;
#N canvas 820 704 448 375 stream 0;
#X obj 57 3 inlet;
#X obj 58 98 textfile;
#X obj 55 49 t b a;
#X obj 44 70 until;
#X msg 149 72 read \$1 \, rewind;
#X obj 57 27 list;
#X obj 58 119 route device driver dimen;
#X obj 58 141 list prepend;
#X obj 57 161 list prepend;
#X obj 56 229 list prepend texView;
#X obj 58 199 list prepend;
#X obj 145 173 inlet;
#X msg 56 250 \; pd-\$1-stream obj 10 10 abs/stream \$1 \$2 \$3 \$4
\$5 \$6 \;;
#X connect 0 0 5 0;
#X connect 1 0 6 0;
#X connect 1 1 3 1;
#X connect 2 0 3 0;
#X connect 2 1 4 0;
#X connect 3 0 1 0;
#X connect 4 0 1 0;
#X connect 5 0 2 0;
#X connect 6 0 7 0;
#X connect 6 1 7 1;
#X connect 6 2 8 1;
#X connect 7 0 8 0;
#X connect 8 0 10 0;
#X connect 9 0 12 0;
#X connect 10 0 9 0;
#X connect 11 0 10 1;
#X restore 407 307 pd stream;
#X obj 340 253 list trim;
#X obj 163 36 inlet;
#X obj 156 84 route type filename fps length;
#X connect 0 0 2 0;
#X connect 1 0 24 0;
#X connect 2 0 7 0;
#X connect 3 1 0 0;
#X connect 4 0 6 0;
#X connect 5 0 0 1;
#X connect 7 0 15 0;
#X connect 8 0 3 0;
#X connect 9 0 10 0;
#X connect 9 0 18 0;
#X connect 10 0 11 0;
#X connect 11 0 12 0;
#X connect 11 0 20 0;
#X connect 12 0 13 0;
#X connect 13 0 11 1;
#X connect 14 0 10 1;
#X connect 16 0 14 0;
#X connect 17 0 4 0;
#X connect 18 0 17 0;
#X connect 20 0 19 0;
#X connect 21 0 22 0;
#X connect 21 1 23 0;
#X connect 24 0 21 0;
#X connect 25 0 26 0;
#X connect 26 0 17 1;
#X connect 26 0 20 1;
#X connect 26 0 1 0;
#X connect 26 1 1 1;
#X connect 26 1 4 2;
#X connect 26 2 16 0;
#X connect 26 3 13 1;
#X connect 26 3 5 0;
#X restore 115 131 pd media;
#X obj -41 66 gemwin;
#X msg -40 41 create \, 1;
#X obj -43 18 loadbang;
#X obj 92 15 loadbang;
#X obj 180 61 netsend -u;
#X msg 180 40 connect localhost 9875 \, send conn;
#X obj 32 85 netreceive -u 9876;
#X obj 319 83 print;
#X obj 33 110 route geo fx media;
#X connect 0 0 1 0;
#X connect 1 0 19 0;
#X connect 2 0 1 0;
#X connect 3 0 1 1;
#X connect 11 0 12 0;
#X connect 13 0 17 0;
#X connect 14 0 13 0;
#X connect 15 0 10 0;
#X connect 16 0 15 1;
#X connect 17 0 18 0;
#X connect 17 1 16 0;
#X connect 18 0 15 0;
#X connect 19 0 11 0;
#X connect 22 0 21 0;
#X connect 23 0 22 0;
#X connect 24 0 26 0;
#X connect 26 0 25 0;
#X connect 27 0 28 0;
#X connect 27 0 29 0;
#X connect 29 0 7 0;
#X connect 29 1 6 0;
#X connect 29 2 20 0;
