#N struct media float id array m m-array;
#N struct m-array float id symbol uname symbol name float type symbol
filename float width float height text mediaPrev array image image-array
float length text video;
#N struct image-array float id float bytes float colour-space float
type float upsidedown float notowed;
#N struct modul float id array mod mod-array;
#N struct mod-array float id symbol uname symbol name float lfo float
freq float amp symbol waveshape symbol OSC text param text midi;
#N struct texture float id array tex tex-array;
#N struct tex-array float id symbol uname symbol name array media media-array
float mediaID array fx fx-array float fxID;
#N struct media-array float id array film film-array array texcoord
texcoord-array;
#N struct film-array float frame float start float end float auto float
fps;
#N struct texcoord-array float tlx float tly float trx float try float
blx float bly float brx float bry;
#N struct fx-array symbol name symbol folder float preset text presets
array param fx-param float paramId;
#N struct fx-param symbol name float id float type float value float
ctl float min float max float incr float modulId float modulEnable
;
#N struct material float id array mat mat-array;
#N struct mat-array float id float texID symbol uname symbol name float
alphaBlend array alpha alpha-array array RGB rgb-param array RGBenable
float;
#N struct alpha-array float enable float auto float blend;
#N struct rgb-param symbol name float r float g float b float a;
#N struct float float y;
#N struct object float id array obj obj-array array geo geo-array array
transform transform-list;
#N struct obj-array float id symbol uname symbol name float parent
float separator float matID float transId text transform float transID
float geoID array surf surf-param symbol font text text;
#N struct surf-param symbol name float value float ctl float min float
max float incr float type;
#N struct geo-array float id symbol name;
#N struct transform-list float id symbol name;
#N canvas 1142 102 644 349 10;
#X obj 31 170 gemhead;
#X obj 130 101 gemwin;
#X msg 131 76 create \, 1;
#X obj 260 12 loadbang;
#X obj 260 61 netsend -u;
#N canvas 442 77 301 152 datastructure 0;
#X obj 32 23 struct-media;
#X obj 32 45 struct-modul;
#X obj 33 69 struct-texture;
#X obj 33 95 struct-material;
#X obj 34 115 struct-object;
#X restore 264 111 pd datastructure;
#X obj 304 245 s media;
#N canvas 1002 517 450 393 readData 1;
#X obj 58 13 inlet;
#X obj 85 143 getdir;
#X obj 58 37 t b b;
#X obj 115 17 inlet;
#N canvas 0 50 450 300 mediaData 0;
#X obj 154 16 inlet;
#X obj 181 100 pointer;
#X obj 181 121 s mediaPt;
#X msg 181 60 traverse pd-media-data \, next, f 16;
#X obj 154 35 t b b;
#X obj 154 160 outlet;
#X connect 0 0 4 0;
#X connect 1 0 2 0;
#X connect 3 0 1 0;
#X connect 4 0 5 0;
#X connect 4 1 3 0;
#X restore 58 282 pd mediaData;
#X obj 58 120 t b b;
#N canvas 759 70 450 300 modulData 0;
#X obj 155 15 inlet;
#X obj 154 80 pointer;
#X msg 154 40 traverse pd-modul-data \, next, f 16;
#N canvas 975 375 426 447 Modul 0;
#X obj 168 5 inlet;
#X obj 168 234 f;
#X obj 296 224 + 1;
#X obj 168 190 t b b a;
#X obj 168 255 moses;
#X msg 238 213 0;
#X obj 24 278 r clear;
#X obj 98 198 bng 15 250 50 0 empty empty empty 17 7 0 10 -262144 -1
-1;
#X obj 253 182 r modDone;
#N canvas 1140 332 555 457 makeModul 0;
#X obj 89 22 inlet;
#X obj 254 229 list append;
#X obj 89 43 t a a;
#X obj 317 83 t a a;
#X obj 89 277 t b a;
#X obj 116 358 list trim;
#X obj 89 398 s modDone;
#X obj 190 115 r modulPt;
#X obj 89 156 t p b;
#N canvas 0 50 450 300 texViewModul 0;
#X restore 305 332 pd texViewModul;
#X obj 116 337 list append;
#X obj 179 316 r texPt;
#X obj 116 297 list prepend;
#X obj 89 134 element modul mod;
#X msg 254 251 \; pd-texViewModul obj 100 100 modul \$1;
#X obj 116 378 s texViewModPt;
#X connect 0 0 2 0;
#X connect 1 0 14 0;
#X connect 2 0 13 0;
#X connect 2 1 3 0;
#X connect 3 0 1 1;
#X connect 3 1 12 1;
#X connect 4 0 6 0;
#X connect 4 1 12 0;
#X connect 5 0 15 0;
#X connect 7 0 13 1;
#X connect 8 0 4 0;
#X connect 8 1 1 0;
#X connect 10 0 5 0;
#X connect 11 0 10 1;
#X connect 12 0 10 0;
#X connect 13 0 8 0;
#X restore 168 275 pd makeModul;
#X obj 168 26 t p p;
#X obj 195 47 s modulPt;
#X msg 24 307 \; pd-texViewModul clear;
#X obj 168 153 getsize modul mod;
#X connect 0 0 10 0;
#X connect 1 0 2 0;
#X connect 1 0 4 0;
#X connect 2 0 1 1;
#X connect 3 0 1 0;
#X connect 3 1 5 0;
#X connect 3 2 4 1;
#X connect 4 0 9 0;
#X connect 5 0 1 1;
#X connect 6 0 12 0;
#X connect 7 0 1 0;
#X connect 8 0 1 0;
#X connect 10 0 13 0;
#X connect 10 1 11 0;
#X connect 13 0 3 0;
#X restore 154 104 pd Modul;
#X connect 0 0 2 0;
#X connect 1 0 3 0;
#X connect 2 0 1 0;
#X restore 58 354 pd modulData;
#N canvas 631 258 450 300 textureData 1;
#X obj 270 7 inlet;
#X obj 297 85 pointer;
#X obj 126 161 element texture tex;
#X msg 297 45 traverse pd-texture-data \, next, f 16;
#X obj 165 200 s texPt;
#N canvas 0 503 450 300 Media 0;
#X obj 166 5 inlet;
#N canvas 810 85 450 457 makeMedia 0;
#X obj 86 101 inlet;
#X obj 87 264 list trim;
#N canvas 1146 154 450 300 film 0;
#X obj 31 53 inlet;
#N canvas 1230 529 377 312 createBufferSub 0;
#X obj 23 15 inlet;
#X obj 68 152 + 10;
#X obj 101 45 r mPt;
#X obj 62 67 pointer;
#X obj 204 160 sel -1;
#X obj 201 124 t a a;
#X obj 246 99 r mediaclear;
#X msg 246 125 -1;
#X obj 204 181 outlet;
#X obj 68 132 * 40;
#X obj 23 271 s mediaBuffer-r;
#X obj 23 199 t a a;
#X obj 23 172 pack s f f f;
#X msg 50 219 \; pd-filmBuffers obj 10 \$3 filmBuffer \$1 \$2 \$4;
#X msg 23 252 \$2 \$1;
#X obj 63 88 get m-array id length;
#X obj 23 44 t a b;
#X connect 0 0 16 0;
#X connect 1 0 12 2;
#X connect 2 0 3 1;
#X connect 3 0 15 0;
#X connect 4 0 8 0;
#X connect 5 0 4 1;
#X connect 5 1 4 0;
#X connect 6 0 7 0;
#X connect 7 0 4 1;
#X connect 9 0 1 0;
#X connect 11 0 14 0;
#X connect 11 1 13 0;
#X connect 12 0 11 0;
#X connect 14 0 10 0;
#X connect 15 0 9 0;
#X connect 15 0 12 1;
#X connect 15 1 5 0;
#X connect 15 1 12 3;
#X connect 16 0 12 0;
#X connect 16 1 3 0;
#X restore 31 110 pd createBufferSub;
#N canvas 624 576 450 300 filmBuffers 0;
#X restore 29 22 pd filmBuffers;
#X msg 31 185 \; pd-filmBuffers clear \, vis 0;
#X obj 161 114 r clear;
#X connect 0 0 1 0;
#X connect 1 0 3 0;
#X connect 4 0 3 0;
#X restore 152 369 pd film;
#N canvas 454 42 329 222 image 0;
#X obj 31 42 inlet;
#N canvas 791 163 377 312 createBufferSub 0;
#X obj 33 15 inlet;
#X obj 115 198 + 10;
#X obj 33 44 t a b;
#X obj 126 50 r mPt;
#X obj 87 72 pointer;
#X obj 88 93 get m-array id;
#X obj 60 218 pack s f f;
#X obj 204 160 sel -1;
#X obj 201 124 t a a;
#X obj 246 99 r mediaclear;
#X msg 246 125 -1;
#X obj 204 181 outlet;
#X obj 115 178 * 40;
#X obj 33 286 outlet;
#X obj 33 168 f;
#X obj 33 88 t b a;
#X msg 60 250 \; pd-pixBuffers obj 10 \$3 imageBuffer \$1 \$2;
#X connect 0 0 2 0;
#X connect 1 0 6 2;
#X connect 2 0 15 0;
#X connect 2 1 4 0;
#X connect 3 0 4 1;
#X connect 4 0 5 0;
#X connect 5 0 6 1;
#X connect 5 0 8 0;
#X connect 5 0 12 0;
#X connect 5 0 14 1;
#X connect 6 0 16 0;
#X connect 7 0 11 0;
#X connect 8 0 7 1;
#X connect 8 1 7 0;
#X connect 9 0 10 0;
#X connect 10 0 7 1;
#X connect 12 0 1 0;
#X connect 14 0 13 0;
#X connect 15 0 14 0;
#X connect 15 1 6 0;
#X restore 31 63 pd createBufferSub;
#X msg 130 125 \; pd-pixBuffers clear \, vis 0;
#N canvas 624 576 428 300 pixBuffers 0;
#X restore 32 22 pd pixBuffers;
#X obj 31 202 s mediaBuffer-r;
#X obj 149 83 r clear;
#X connect 0 0 1 0;
#X connect 1 0 4 0;
#X connect 1 1 2 0;
#X connect 5 0 2 0;
#X restore 87 369 pd image;
#X obj 87 285 route 0 1 2 3;
#X obj 86 141 get media-array id;
#X obj 86 161 element media m;
#X obj 211 141 r mediaPt;
#X obj 87 180 t p p;
#X obj 114 201 s mPt;
#X obj 87 243 pack f s;
#X obj 87 222 get m-array type filename;
#X obj 86 121 element tex-array media;
#X obj 221 96 r texPt;
#X connect 0 0 12 0;
#X connect 1 0 4 0;
#X connect 4 0 3 0;
#X connect 4 1 2 0;
#X connect 5 0 6 0;
#X connect 6 0 8 0;
#X connect 7 0 6 1;
#X connect 8 0 11 0;
#X connect 8 1 9 0;
#X connect 10 0 1 0;
#X connect 11 0 10 0;
#X connect 11 1 10 1;
#X connect 12 0 5 0;
#X connect 13 0 12 1;
#X restore 257 178 pd makeMedia;
#X obj 167 32 getsize tex-array media;
#X obj 226 114 f;
#X obj 277 112 + 1;
#X obj 167 51 moses 2;
#X obj 98 143 t b b;
#X obj 95 114 bng 15 250 50 0 empty empty empty 17 7 0 10 -262144 -1
-1;
#X obj 291 62 r mediaDone;
#X obj 123 119 sel;
#X obj 206 70 t b b a;
#X obj 231 155 t a a;
#X msg 276 93 1;
#X obj 141 95 - 1;
#X obj 231 135 moses;
#X obj 88 215 s render;
#N canvas 960 419 492 543 setMedia 0;
#X obj 192 10 inlet;
#X obj 192 64 get tex-array mediaID;
#X obj 243 5 r texPt;
#X obj 192 35 pointer;
#X obj 192 125 element media m;
#X obj 230 105 r mediaPt;
#X obj 192 85 t a a, f 25;
#X obj 219 163 s mPt;
#X obj 192 181 get m-array type;
#X obj 192 145 t p p;
#X obj 192 222 route 0 1 2 3;
#X obj 164 378 element tex-array media, f 10;
#X obj 164 358 list prepend;
#X obj 164 419 list prepend 0;
#X obj 164 438 element media-array film, f 11;
#X obj 164 480 s filmPt;
#X obj 165 338 pointer;
#X obj 204 317 r texPt;
#X obj 330 281 s media;
#X msg 330 256 type \$1;
#X obj 373 5 r media;
#X obj 361 30 route Sel;
#X obj 354 184 s setMedia;
#X connect 0 0 3 0;
#X connect 1 0 6 0;
#X connect 2 0 3 1;
#X connect 3 0 1 0;
#X connect 4 0 9 0;
#X connect 5 0 4 1;
#X connect 6 0 4 0;
#X connect 6 1 12 1;
#X connect 6 1 22 0;
#X connect 8 0 10 0;
#X connect 8 0 19 0;
#X connect 9 0 8 0;
#X connect 9 1 7 0;
#X connect 10 1 16 0;
#X connect 11 0 13 0;
#X connect 12 0 11 0;
#X connect 13 0 14 0;
#X connect 14 0 15 0;
#X connect 16 0 12 0;
#X connect 17 0 16 1;
#X connect 19 0 18 0;
#X connect 20 0 21 0;
#X connect 21 0 6 0;
#X restore 125 173 pd setMedia;
#X msg 272 246 \; pd-texViewFx clear;
#X obj 277 214 r clear;
#X obj 24 32 pix_buffer media-0;
#X connect 0 0 2 0;
#X connect 2 0 5 0;
#X connect 3 0 4 0;
#X connect 3 0 14 0;
#X connect 4 0 3 1;
#X connect 5 1 10 0;
#X connect 6 0 15 0;
#X connect 6 1 16 0;
#X connect 7 0 6 0;
#X connect 8 0 3 0;
#X connect 9 0 6 0;
#X connect 10 0 3 0;
#X connect 10 1 12 0;
#X connect 10 2 13 0;
#X connect 10 2 14 1;
#X connect 11 0 9 0;
#X connect 11 1 1 0;
#X connect 12 0 3 1;
#X connect 13 0 9 1;
#X connect 14 0 11 0;
#X connect 18 0 17 0;
#X restore 126 248 pd Media;
#X obj 126 180 t p p p;
#N canvas 501 8 572 333 Fx 0;
#X obj 166 5 inlet;
#X obj 188 150 f;
#X obj 296 140 + 1;
#X obj 168 106 t b b a;
#X obj 193 171 moses;
#X obj 167 32 getsize tex-array fx;
#X obj 253 98 r fxDone;
#N canvas 919 85 670 457 makeFx 0;
#X obj 89 22 inlet;
#X obj 139 156 t p p;
#X obj 256 115 r texPt;
#X obj 139 134 element tex-array fx;
#X obj 242 229 list append;
#X obj 47 357 s texViewFxPt;
#X obj 372 110 + 1;
#X obj 269 249 list append;
#X obj 89 43 t a a;
#X obj 345 83 t a a;
#X obj 20 277 t b a;
#X obj 20 398 s fxDone;
#X obj 47 316 list prepend;
#X obj 47 337 list trim;
#X obj 166 175 get fx-array name folder;
#X obj 305 294 list append;
#X obj 404 174 r objID;
#X obj 166 195 list append 0;
#X msg 305 314 \; pd-texViewFx\$2 obj 100 100 fx/\$5/\$1 texView\$2
\$3 \$4 \;;
#X connect 0 0 8 0;
#X connect 1 0 10 0;
#X connect 1 1 14 0;
#X connect 2 0 3 1;
#X connect 3 0 1 0;
#X connect 4 0 7 0;
#X connect 6 0 7 1;
#X connect 7 0 15 0;
#X connect 8 0 3 0;
#X connect 8 1 9 0;
#X connect 8 1 12 1;
#X connect 9 0 4 1;
#X connect 9 1 6 0;
#X connect 10 0 11 0;
#X connect 10 1 12 0;
#X connect 12 0 13 0;
#X connect 13 0 5 0;
#X connect 14 0 17 0;
#X connect 14 1 15 1;
#X connect 15 0 18 0;
#X connect 16 0 17 1;
#X connect 17 0 4 0;
#X restore 233 256 pd makeFx;
#X msg 187 67 1;
#X msg 238 129 0;
#X msg 429 279 \; pd-texViewFx clear;
#X obj 462 250 r clear;
#X obj 98 118 bng 15 250 50 0 empty empty empty 17 7 0 10 -262144 -1
-1;
#X obj 49 203 t b b;
#X obj 46 174 bng 15 250 50 0 empty empty empty 17 7 0 10 -262144 -1
-1;
#X obj 74 179 sel;
#X obj 92 155 - 1;
#N canvas 960 769 492 193 setFx 0;
#X obj 192 10 inlet;
#X obj 243 5 r texPt;
#X obj 192 35 pointer;
#X obj 192 64 get tex-array fxID;
#X obj 192 119 s fx;
#X msg 192 88 Sel \$1;
#X connect 0 0 2 0;
#X connect 1 0 2 1;
#X connect 2 0 3 0;
#X connect 3 0 5 0;
#X connect 5 0 4 0;
#X restore 76 233 pd setFx;
#X obj 194 193 t a a;
#X obj 49 282 s texPt;
#X obj 49 263 pointer;
#X obj 113 263 r texPt;
#X obj 400 91 list prepend;
#X obj 469 69 r objID;
#X msg 402 111 \; texView\$1FxFoot \$2;
#X connect 0 0 5 0;
#X connect 1 0 2 0;
#X connect 1 0 4 0;
#X connect 2 0 1 1;
#X connect 3 0 1 0;
#X connect 3 1 9 0;
#X connect 3 2 4 1;
#X connect 3 2 16 0;
#X connect 4 0 18 0;
#X connect 5 0 3 0;
#X connect 5 0 22 0;
#X connect 6 0 1 0;
#X connect 8 0 3 0;
#X connect 9 0 1 1;
#X connect 12 0 1 0;
#X connect 13 0 20 0;
#X connect 13 1 17 0;
#X connect 14 0 13 0;
#X connect 15 0 13 0;
#X connect 16 0 15 1;
#X connect 18 0 15 0;
#X connect 18 1 7 0;
#X connect 20 0 19 0;
#X connect 21 0 20 1;
#X connect 22 0 24 0;
#X connect 23 0 22 1;
#X restore 145 223 pd Fx;
#N canvas 739 638 450 300 fxParam 0;
#X obj 224 80 r texPt;
#X obj 107 122 element tex-array fx;
#X obj 64 28 r fx;
#X obj 64 51 route param Sel;
#X obj 87 226 element fx-array param;
#X obj 64 175 list split 1;
#X obj 64 205 swap;
#X obj 64 262 set fx-param value;
#X connect 0 0 1 1;
#X connect 1 0 4 1;
#X connect 2 0 3 0;
#X connect 3 0 5 0;
#X connect 3 1 1 0;
#X connect 4 0 7 1;
#X connect 5 0 6 0;
#X connect 5 1 6 1;
#X connect 6 0 7 0;
#X connect 6 1 4 0;
#X restore 203 224 pd fxParam;
#X obj 180 9 r matPt;
#X obj 270 26 t b b;
#X obj 180 28 get mat-array texID, f 9;
#X obj 165 135 f;
#X connect 0 0 10 0;
#X connect 1 0 2 1;
#X connect 2 0 6 0;
#X connect 3 0 1 0;
#X connect 6 0 5 0;
#X connect 6 1 7 0;
#X connect 6 2 4 0;
#X connect 9 0 11 0;
#X connect 10 0 12 0;
#X connect 10 1 3 0;
#X connect 11 0 12 1;
#X connect 12 0 2 0;
#X restore 58 302 pd textureData;
#N canvas 1163 135 649 445 materialData 0;
#X obj 124 19 inlet;
#X obj 154 100 pointer;
#X msg 154 60 traverse pd-material-data \, next, f 16;
#X obj 124 128 element material mat;
#N canvas 1288 99 511 534 matArray 0;
#X obj 177 9 inlet;
#X obj 45 147 until;
#X obj 45 168 f;
#X obj 71 170 + 1;
#X msg 106 146 0;
#X obj 177 31 t p p;
#X obj 147 237 element mat-array RGB, f 10;
#X obj 147 286 get rgb-param name;
#X obj 45 276 list append;
#X obj 285 357 list append;
#X obj 348 338 pack;
#X obj 375 301 + 1;
#X obj 348 253 t a a;
#X obj 147 308 select none;
#X obj 45 191 t b a a;
#X obj 26 116 t b a b;
#X obj 26 380 f;
#X obj 26 73 getsize mat-array RGB, f 10;
#X obj 366 375 r objID;
#X obj 53 419 list prepend;
#X obj 121 401 r objID;
#X obj 26 399 t b a;
#X obj 26 488 outlet;
#X msg 53 440 \; matView\$1Foot \$2;
#X obj 285 412 list append;
#X msg 186 450 \; pd-matView\$4 obj 100 100 matRGB \$1 \$2 \$3 matView\$4
;
#X obj 45 353 s;
#X msg 61 333 list matView\$1Pt;
#X obj 61 314 r objID;
#X connect 0 0 5 0;
#X connect 1 0 2 0;
#X connect 2 0 3 0;
#X connect 2 0 14 0;
#X connect 3 0 2 1;
#X connect 4 0 2 1;
#X connect 5 0 17 0;
#X connect 5 1 6 1;
#X connect 6 0 7 0;
#X connect 6 0 8 1;
#X connect 7 0 13 0;
#X connect 8 0 26 0;
#X connect 9 0 24 0;
#X connect 10 0 9 1;
#X connect 11 0 10 1;
#X connect 11 0 16 1;
#X connect 12 0 10 0;
#X connect 12 1 11 0;
#X connect 13 1 9 0;
#X connect 14 0 8 0;
#X connect 14 1 6 0;
#X connect 14 2 12 0;
#X connect 15 0 16 0;
#X connect 15 1 1 0;
#X connect 15 2 4 0;
#X connect 16 0 21 0;
#X connect 17 0 15 0;
#X connect 18 0 24 1;
#X connect 19 0 23 0;
#X connect 20 0 19 1;
#X connect 21 0 22 0;
#X connect 21 1 19 0;
#X connect 24 0 25 0;
#X connect 27 0 26 1;
#X connect 28 0 27 0;
#X restore 124 210 pd matArray;
#X obj 17 273 r clear;
#X msg 17 302 \; pd-matView clear;
#N canvas 805 231 630 629 matParam 0;
#X obj 47 32 r mat;
#X obj 47 58 route enable;
#X obj 373 45 r matPt;
#X obj 115 107 list;
#X obj 115 128 getsize mat-array RGB, f 10;
#X obj 115 170 until;
#X obj 116 189 f;
#X obj 141 189 + 1;
#X obj 116 210 element mat-array RGB, f 11;
#X obj 116 286 get rgb-param name, f 10;
#X obj 116 252 t p p;
#X obj 117 78 t b a;
#X obj 355 221 list split 1;
#X obj 469 419 list;
#X obj 369 459 t b p;
#X obj 363 345 select symbol;
#X obj 202 484 route R G B A;
#X obj 200 463 list trim;
#X obj 363 381 pointer;
#X obj 217 542 set rgb-param r;
#X obj 254 565 set rgb-param g;
#X obj 332 608 set rgb-param a;
#X obj 295 585 set rgb-param b;
#X connect 0 0 1 0;
#X connect 1 1 11 0;
#X connect 2 0 3 1;
#X connect 2 0 8 1;
#X connect 3 0 4 0;
#X connect 4 0 5 0;
#X connect 5 0 6 0;
#X connect 6 0 7 0;
#X connect 6 0 8 0;
#X connect 7 0 6 1;
#X connect 8 0 10 0;
#X connect 9 0 15 0;
#X connect 10 0 9 0;
#X connect 10 1 18 1;
#X connect 11 0 3 0;
#X connect 11 1 12 0;
#X connect 12 0 15 1;
#X connect 12 1 13 1;
#X connect 13 0 17 0;
#X connect 14 0 13 0;
#X connect 14 1 19 1;
#X connect 14 1 20 1;
#X connect 14 1 21 1;
#X connect 14 1 22 1;
#X connect 15 0 18 0;
#X connect 16 0 19 0;
#X connect 16 1 20 0;
#X connect 16 2 22 0;
#X connect 16 3 21 0;
#X connect 17 0 16 0;
#X connect 18 0 14 0;
#X restore 277 274 pd matParam;
#X obj 289 19 r mat;
#X obj 289 40 route change;
#X obj 289 61 t b b;
#X obj 336 85 getdir;
#X msg 336 107 \; pd-matView clear \; pd-material-data clear \; pd-material-data
read \$1/../tmp/material.data;
#X obj 124 40 t a b;
#X obj 213 210 s matPt;
#X obj 124 149 t p p;
#X obj 124 260 outlet;
#X connect 0 0 13 0;
#X connect 1 0 3 1;
#X connect 2 0 1 0;
#X connect 3 0 15 0;
#X connect 4 0 16 0;
#X connect 8 0 9 0;
#X connect 9 0 10 0;
#X connect 10 1 11 0;
#X connect 11 0 12 0;
#X connect 13 0 3 0;
#X connect 13 1 2 0;
#X connect 15 0 4 0;
#X connect 15 1 14 0;
#X restore 58 263 pd materialData;
#X msg 164 77 \; clear bang \; pd-media-data clear \; pd-modul-data
clear \; pd-texture-data clear \; pd-material-data clear \; pd-object-data
clear \;;
#N canvas 1007 81 649 445 objectData 1;
#X obj 154 19 inlet;
#X obj 154 160 pointer;
#X obj 154 181 t p p;
#X obj 17 273 r clear;
#X msg 154 120 traverse pd-object-data \, next, f 16;
#N canvas 840 99 479 661 objArray 1;
#X obj 98 5 inlet;
#X obj 25 107 until;
#X obj 25 128 f;
#X obj 51 130 + 1;
#X msg 86 106 0;
#X obj 98 24 t p p;
#X obj 6 82 t b a b;
#X obj 6 51 getsize object obj, f 10;
#X obj 44 199 element object obj, f 14;
#N canvas 835 171 522 648 transform 0;
#X obj 288 130 until;
#X obj 288 151 f;
#X obj 314 153 + 1;
#X msg 349 129 0;
#X obj 269 109 t b a b;
#X obj 269 67 text size -s obj-array transform, f 13;
#X obj 42 226 text get -s obj-array transform, f 11;
#X obj 264 485 list append;
#X obj 354 217 + 1;
#X obj 327 193 t a a;
#X obj 327 241 pack;
#X obj 42 311 route accumrotate rotate scale translate none, f 12
;
#X obj 42 291 list trim;
#X obj 41 404 list prepend accumrotate, f 12;
#X obj 121 404 list prepend rotate, f 7;
#X obj 170 405 list prepend scale, f 7;
#X obj 219 405 list prepend translate, f 9;
#X obj 402 486 list append;
#X obj 372 413 list;
#X obj 164 10 inlet;
#X obj 195 456 list split 1;
#X obj 42 267 route bang;
#X msg 43 139 1;
#X obj 327 261 list prepend;
#X obj 164 31 t b p;
#X obj 278 620 s;
#X obj 385 577 r objID;
#X obj 395 242 r objID;
#X msg 385 596 list pd-transView\$1;
#X msg 264 506 obj 100 50 transform \$1 transView\$2 \$3 \$4, f 12
;
#X msg 402 507 obj 100 50 shear \$1 transView\$2 \$3 \$4, f 12;
#X obj 217 358 s;
#X obj 249 298 r objID;
#X obj 217 297 list;
#X obj 288 174 t b a a;
#X obj 239 279 r objPt;
#X msg 249 317 list transView\$1Pt, f 11;
#X connect 0 0 1 0;
#X connect 1 0 2 0;
#X connect 1 0 34 0;
#X connect 2 0 1 1;
#X connect 3 0 1 1;
#X connect 4 1 0 0;
#X connect 4 2 3 0;
#X connect 5 0 4 0;
#X connect 6 0 21 0;
#X connect 7 0 29 0;
#X connect 8 0 10 1;
#X connect 9 0 10 0;
#X connect 9 1 8 0;
#X connect 10 0 23 0;
#X connect 11 0 13 0;
#X connect 11 1 14 0;
#X connect 11 2 15 0;
#X connect 11 3 16 0;
#X connect 11 5 18 0;
#X connect 12 0 11 0;
#X connect 13 0 20 0;
#X connect 14 0 20 0;
#X connect 15 0 20 0;
#X connect 16 0 20 0;
#X connect 17 0 30 0;
#X connect 18 0 17 0;
#X connect 19 0 24 0;
#X connect 20 0 7 0;
#X connect 21 1 12 0;
#X connect 22 0 6 0;
#X connect 23 0 7 1;
#X connect 23 0 17 1;
#X connect 24 0 5 0;
#X connect 24 1 5 1;
#X connect 24 1 6 3;
#X connect 26 0 28 0;
#X connect 27 0 23 1;
#X connect 28 0 25 1;
#X connect 29 0 25 0;
#X connect 30 0 25 0;
#X connect 32 0 36 0;
#X connect 33 0 31 0;
#X connect 34 0 33 0;
#X connect 34 1 6 0;
#X connect 34 2 9 0;
#X connect 35 0 33 1;
#X connect 36 0 31 1;
#X restore 92 317 pd transform;
#X obj 44 230 t p p p;
#X obj 70 385 element object geo, f 13;
#X obj 70 416 get geo-array name, f 9;
#X obj 109 275 get obj-array matID;
#X obj 109 296 outlet;
#X obj 27 148 t f f f f;
#N canvas 0 50 450 300 createObjPart 0;
#X obj 154 10 inlet;
#X msg 153 192 obj 100 100 vmap-object objPartView \$1 \$2;
#X obj 153 174 pack;
#X obj 181 153 + 1;
#X obj 154 29 t a a;
#X obj 153 213 s pd-objPartView;
#X obj 193 61 element object obj, f 14;
#X obj 275 43 r objectPt;
#X obj 193 91 get obj-array parent, f 9;
#X connect 0 0 4 0;
#X connect 1 0 5 0;
#X connect 2 0 1 0;
#X connect 3 0 2 1;
#X connect 4 0 6 0;
#X connect 4 1 3 0;
#X connect 6 0 8 0;
#X connect 7 0 6 1;
#X connect 8 0 2 0;
#X restore 252 199 pd createObjPart;
#X obj 200 199 outlet;
#X obj 70 343 get obj-array geoID, f 9;
#X obj 70 457 list append;
#X obj 134 438 r objID;
#X obj 58 527 r objID;
#X obj 42 565 s;
#X msg 97 496 \; pd-objView\$2 obj 100 100 geo/\$1 objView\$2;
#X obj 70 478 t b a;
#X obj 42 503 list;
#X obj 145 365 r objectPt;
#X msg 58 546 list objView\$1Pt;
#X obj 244 272 s objPt;
#X obj 6 599 element object obj, f 14;
#X obj 6 633 s objPt;
#X obj 88 579 r objectPt;
#X msg 6 576 0;
#X connect 0 0 5 0;
#X connect 1 0 2 0;
#X connect 2 0 3 0;
#X connect 2 0 15 0;
#X connect 3 0 2 1;
#X connect 4 0 2 1;
#X connect 5 0 7 0;
#X connect 5 1 8 1;
#X connect 6 0 32 0;
#X connect 6 1 1 0;
#X connect 6 2 4 0;
#X connect 7 0 6 0;
#X connect 8 0 10 0;
#X connect 10 0 18 0;
#X connect 10 1 9 0;
#X connect 10 1 25 1;
#X connect 10 2 13 0;
#X connect 10 2 28 0;
#X connect 11 0 12 0;
#X connect 12 0 19 0;
#X connect 13 0 14 0;
#X connect 15 1 8 0;
#X connect 15 2 17 0;
#X connect 15 3 16 0;
#X connect 18 0 11 0;
#X connect 19 0 24 0;
#X connect 20 0 19 1;
#X connect 21 0 27 0;
#X connect 24 0 25 0;
#X connect 24 1 23 0;
#X connect 25 0 22 0;
#X connect 26 0 11 1;
#X connect 27 0 22 1;
#X connect 29 0 30 0;
#X connect 31 0 29 1;
#X connect 32 0 29 0;
#X restore 154 227 pd objArray;
#X obj 182 200 s objectPt;
#N canvas 868 48 476 505 surfParamSet 0;
#X obj 87 115 getsize obj-array surf, f 10;
#X obj 87 96 list;
#X obj 185 12 r objPt;
#X obj 86 175 until;
#X obj 86 196 f;
#X obj 114 197 + 1;
#X obj 87 155 t a b;
#X msg 127 176 0;
#X obj 86 219 element obj-array surf, f 17;
#X obj 239 52 t b a;
#X obj 159 261 t p p;
#X obj 85 283 get surf-param name, f 11;
#X obj 266 259 list split 1;
#X obj 85 335 sel symbol;
#X obj 123 429 set surf-param value, f 11;
#X obj 123 364 f;
#X obj 239 33 route geo;
#X obj 239 12 r obj;
#X obj 344 158 get obj-array id;
#X floatatom 372 203 5 0 0 0 - - -;
#X obj 262 463 s objViewPt;
#X obj 262 441 list prepend;
#X obj 268 420 list;
#X obj 125 385 t b a;
#X connect 0 0 6 0;
#X connect 1 0 0 0;
#X connect 2 0 1 1;
#X connect 2 0 8 1;
#X connect 2 0 18 0;
#X connect 2 0 22 1;
#X connect 3 0 4 0;
#X connect 4 0 5 0;
#X connect 4 0 8 0;
#X connect 5 0 4 1;
#X connect 6 0 3 0;
#X connect 6 1 7 0;
#X connect 7 0 4 1;
#X connect 8 0 10 0;
#X connect 9 0 1 0;
#X connect 9 1 12 0;
#X connect 10 0 11 0;
#X connect 10 1 14 1;
#X connect 11 0 13 0;
#X connect 12 0 13 1;
#X connect 12 1 15 1;
#X connect 13 0 15 0;
#X connect 15 0 23 0;
#X connect 16 0 9 0;
#X connect 17 0 16 0;
#X connect 18 0 19 0;
#X connect 18 0 21 1;
#X connect 21 0 20 0;
#X connect 22 0 21 0;
#X connect 23 1 14 0;
#X restore 318 203 pd surfParamSet;
#N canvas 1383 402 450 300 transformSet 1;
#X obj 33 9 r obj;
#X obj 134 259 text set -s obj-array transform;
#X obj 317 238 r objPt;
#X obj 33 31 route Trans;
#X obj 33 52 route X_Y_Z_ value;
#X obj 33 93 route X Y Z;
#X obj 35 136 t a b;
#X obj 73 137 t a b;
#X obj 113 136 t a b;
#X obj 151 137 t a b;
#X msg 214 193 1;
#X msg 242 194 2;
#X msg 274 194 3;
#X msg 302 195 4;
#X obj 195 132 r objTransID;
#X connect 0 0 3 0;
#X connect 2 0 1 3;
#X connect 3 0 4 0;
#X connect 4 0 5 0;
#X connect 4 1 9 0;
#X connect 5 0 6 0;
#X connect 5 1 7 0;
#X connect 5 2 8 0;
#X connect 6 0 1 0;
#X connect 6 1 10 0;
#X connect 7 0 1 0;
#X connect 7 1 11 0;
#X connect 8 0 1 0;
#X connect 8 1 12 0;
#X connect 9 0 1 0;
#X connect 9 1 13 0;
#X connect 10 0 1 2;
#X connect 11 0 1 2;
#X connect 12 0 1 2;
#X connect 13 0 1 2;
#X connect 14 0 1 1;
#X restore 367 239 pd transformSet;
#N canvas -34 456 450 369 objBind 0;
#X obj 119 25 r obj;
#X obj 119 46 route bind;
#X obj 119 67 route mouse;
#X obj 119 88 list split 1;
#X obj 126 270 element object obj, f 14;
#X obj 236 246 r objectPt;
#X obj 126 302 s objPt;
#X obj 153 154 s2l -;
#X obj 153 174 list split 1;
#X obj 227 217 s objTransID;
#X obj 187 193 list split 1;
#X obj 157 124 route float;
#X connect 0 0 1 0;
#X connect 1 0 2 0;
#X connect 2 0 3 0;
#X connect 3 0 4 0;
#X connect 3 1 11 0;
#X connect 4 0 6 0;
#X connect 5 0 4 1;
#X connect 7 0 8 0;
#X connect 8 1 10 0;
#X connect 10 1 9 0;
#X connect 11 1 7 0;
#X restore 372 110 pd objBind;
#X msg 17 302 \; pd-objPartView clear;
#X obj 154 248 outlet;
#X obj 239 335 s objID;
#X msg 316 311 \; pd-matView\$1 clear \; pd-texViewFx\$1 clear \; pd-transView\$1
clear \; pd-objView\$1 clear;
#X obj 239 263 + 1;
#X connect 0 0 4 0;
#X connect 1 0 2 0;
#X connect 2 0 5 0;
#X connect 2 1 6 0;
#X connect 3 0 10 0;
#X connect 4 0 1 0;
#X connect 5 0 11 0;
#X connect 5 1 14 0;
#X connect 14 0 12 0;
#X connect 14 0 13 0;
#X restore 58 244 pd objectData;
#X msg 85 163 \; pd-media-data read \$1/../tmp/media.data \; pd-modul-data
read \$1/../tmp/modul.data \; pd-texture-data read \$1/../tmp/texture.data
\; pd-material-data read \$1/../tmp/material.data \; pd-object-data
read \$1/../tmp/object.data;
#X connect 0 0 2 0;
#X connect 1 0 11 0;
#X connect 2 0 5 0;
#X connect 2 1 9 0;
#X connect 3 0 5 0;
#X connect 4 0 7 0;
#X connect 5 0 10 0;
#X connect 5 1 1 0;
#X connect 8 0 4 0;
#X connect 10 0 8 0;
#X restore 375 203 pd readData;
#X msg 63 51 destroy;
#X msg 33 143 0;
#X msg 63 144 1;
#X obj 107 18 t b b;
#X obj 63 122 r render;
#X obj 260 248 s fx;
#N canvas 0 50 450 300 parseModul 0;
#X obj 196 21 inlet;
#X obj 196 41 t a a;
#X obj 224 61 route open;
#X obj 196 102 list prepend;
#X obj 196 123 list trim;
#X obj 224 81 list split 5;
#X obj 196 144 s modul;
#X connect 0 0 1 0;
#X connect 1 0 3 0;
#X connect 1 1 2 0;
#X connect 2 0 5 0;
#X connect 3 0 4 0;
#X connect 4 0 6 0;
#X connect 5 1 3 1;
#X restore 349 224 pd parseModul;
#X obj 479 201 s mat;
#X obj 396 127 bng 15 250 50 0 empty empty empty 17 7 0 10 -262144
-1 -1;
#X msg 260 40 connect localhost 9867 \, send conn;
#X obj 260 152 netreceive -u 9868;
#X obj 221 296 print objPreview;
#X obj 524 203 s obj;
#X obj 260 174 route fx media modul start reload matRgbScale obj object
;
#X obj 31 190 list prepend 0;
#X obj 31 211 list trim;
#X obj 31 231 s objPartViewHead;
#N canvas 483 515 450 300 objPartView 0;
#X obj 100 129 vmap-object objPartView 0 1;
#X obj 100 100 vmap-object objPartView 0 2;
#X restore 33 258 pd objPartView;
#X connect 0 0 22 0;
#X connect 2 0 1 0;
#X connect 3 0 17 0;
#X connect 3 0 11 0;
#X connect 8 0 1 0;
#X connect 11 0 2 0;
#X connect 11 1 9 0;
#X connect 12 0 10 0;
#X connect 16 0 7 0;
#X connect 17 0 4 0;
#X connect 18 0 19 0;
#X connect 18 0 21 0;
#X connect 21 0 13 0;
#X connect 21 1 6 0;
#X connect 21 2 14 0;
#X connect 21 3 7 0;
#X connect 21 4 7 1;
#X connect 21 5 15 0;
#X connect 21 6 20 0;
#X connect 21 7 20 0;
#X connect 22 0 23 0;
#X connect 23 0 24 0;
