#N canvas 1064 31 450 300 10;
#N canvas 37 504 463 356 CreatePointer 0;
#X obj 197 82 pointer;
#X obj 26 35 t a a b;
#X msg 49 60 0;
#X obj 49 179 list prepend 0;
#X obj 49 137 t p p;
#X text 155 15 create a single pointer and add elements;
#X obj 26 14 r create_\$1;
#X obj 165 38 symbol \$1;
#X obj 49 118 append \$1 id;
#X obj 81 157 s \$1Pt;
#X obj 49 199 element \$1 \$2;
#X obj 76 267 list prepend;
#X obj 209 145 t a b;
#X msg 209 241 symbol \$1\$2;
#X obj 209 221 list;
#X obj 236 198 makefilename %.3i;
#X msg 236 165 0;
#X msg 197 62 traverse pd-\$1-data \, bang;
#X obj 49 223 t p p;
#X obj 49 311 s \$2Pt;
#X obj 76 289 outlet;
#X connect 0 0 8 1;
#X connect 1 1 2 0;
#X connect 1 2 7 0;
#X connect 2 0 8 0;
#X connect 3 0 10 0;
#X connect 4 0 3 0;
#X connect 4 1 9 0;
#X connect 6 0 1 0;
#X connect 7 0 17 0;
#X connect 7 0 12 0;
#X connect 8 0 4 0;
#X connect 10 0 18 0;
#X connect 11 0 20 0;
#X connect 12 0 14 0;
#X connect 12 1 16 0;
#X connect 13 0 11 1;
#X connect 14 0 13 0;
#X connect 15 0 14 1;
#X connect 16 0 15 0;
#X connect 17 0 0 0;
#X connect 18 0 19 0;
#X connect 18 1 11 0;
#X restore 17 117 pd CreatePointer;
#X obj 125 51 r \$2add;
#N canvas 493 183 450 300 ID 0;
#X obj 98 89 r \$2ID-s;
#X obj 235 109 r \$1Pt;
#X obj 98 130 element \$1 \$2;
#X obj 199 166 get \$2-array name;
#X msg 199 220 \; \$2Name-r set \$1;
#X obj 199 188 list append \$2;
#X obj 98 187 s \$2Pt;
#X obj 55 271 set \$2-array id;
#X obj 55 251 list prepend;
#X obj 124 229 r \$2ID-s;
#X connect 0 0 2 0;
#X connect 1 0 2 1;
#X connect 2 0 3 0;
#X connect 2 0 6 0;
#X connect 2 0 8 0;
#X connect 3 0 5 0;
#X connect 5 0 4 0;
#X connect 8 0 7 0;
#X connect 9 0 8 1;
#X restore 194 92 pd ID;
#N canvas 1114 123 399 524 addElement 0;
#X obj 20 12 inlet;
#X obj 20 43 pointer;
#X obj 179 173 + 1;
#X obj 21 63 t p p;
#X obj 302 165 t a;
#X obj 88 387 list prepend;
#X obj 225 245 makefilename %.3i;
#X obj 21 148 t a a;
#X obj 66 12 r \$1Pt;
#X obj 21 90 getsize \$1 \$2;
#X obj 227 210 setsize \$1 \$2;
#X obj 225 269 list prepend \$1;
#X msg 225 297 list \$1\$2;
#X obj 21 282 element \$1 \$2;
#X obj 48 201 list append \$2;
#X msg 48 227 \; \$2ID-r range 0 \$1 \, \$1 \;, f 16;
#X obj 21 374 s \$2Pt;
#X obj 21 308 t p p b;
#X obj 95 346 pointer;
#X obj 136 327 r \$1Pt;
#X obj 95 366 s \$1Pt;
#X obj 88 447 outlet;
#X connect 0 0 1 0;
#X connect 1 0 3 0;
#X connect 2 0 10 0;
#X connect 3 0 9 0;
#X connect 3 1 4 0;
#X connect 4 0 10 1;
#X connect 4 0 13 1;
#X connect 5 0 21 0;
#X connect 6 0 11 0;
#X connect 7 0 13 0;
#X connect 7 1 2 0;
#X connect 7 1 6 0;
#X connect 7 1 14 0;
#X connect 8 0 1 1;
#X connect 9 0 7 0;
#X connect 11 0 12 0;
#X connect 12 0 5 1;
#X connect 13 0 17 0;
#X connect 14 0 15 0;
#X connect 17 0 16 0;
#X connect 17 1 5 0;
#X connect 17 2 18 0;
#X connect 18 0 20 0;
#X connect 19 0 18 1;
#X restore 125 116 pd addElement;
#N canvas 580 486 394 185 set_name 0;
#X obj 235 41 list prepend \$2;
#X obj 121 116 set -symbol \$2-array name;
#X msg 248 76 \; \$1Name-r set \$2;
#X obj 47 9 inlet;
#X obj 47 30 t a a;
#X obj 47 154 outlet;
#X connect 0 0 2 0;
#X connect 3 0 4 0;
#X connect 4 0 5 0;
#X connect 4 1 0 0;
#X connect 4 1 1 0;
#X restore 125 169 pd set_name;
#N canvas 474 31 583 699 delElement 1;
#X obj 125 424 text search tempFile;
#X obj 125 445 route -1;
#X obj 86 120 pointer;
#X obj 125 398 pack f s;
#X obj 125 230 ==;
#X obj 86 79 t b a, f 27;
#X obj 86 139 t p p, f 17;
#X obj 86 190 moses 2;
#X obj 34 216 b;
#X obj 125 250 sel 0 1;
#X obj 245 166 + 1;
#X obj 245 147 t a a;
#X obj 267 277 f;
#X obj 267 296 list append;
#N canvas 3 406 450 300 writeTempFile 1;
#X obj 145 156 s tempFile;
#X obj 124 59 inlet;
#X obj 123 192 outlet;
#X obj 168 115 s \$1Write;
#X msg 145 137 read tmp/\$1.data;
#X obj 124 77 list append \$1;
#X obj 123 95 t b a b, f 8;
#X connect 1 0 5 0;
#X connect 4 0 0 0;
#X connect 5 0 6 0;
#X connect 6 0 2 0;
#X connect 6 1 4 0;
#X connect 6 2 3 0;
#X restore 125 285 pd writeTempFile;
#X obj 125 329 pointer;
#X obj 86 40 pointer;
#X obj 125 369 t a a;
#X obj 305 415 + 1;
#X obj 305 493 text search tempFile;
#X obj 305 512 route -1;
#N canvas 0 50 450 300 resize 0;
#X msg 183 161 \; \$2ID-r range 0 \$1 \, \$1 \;, f 16;
#X obj 183 118 - 1;
#X msg 183 99 \$1;
#X obj 183 24 inlet;
#X obj 183 45 t a a;
#X obj 183 139 list append \$2;
#X obj 211 69 setsize \$1 \$2;
#X connect 1 0 5 0;
#X connect 2 0 1 0;
#X connect 3 0 4 0;
#X connect 4 0 2 0;
#X connect 4 1 6 0;
#X connect 5 0 0 0;
#X restore 267 317 pd resize;
#N canvas 0 50 450 300 deletelines 0;
#X obj 248 235 text delete tempFile;
#X obj 189 134 -;
#X obj 189 153 abs;
#X obj 189 171 max 1;
#X obj 189 189 until;
#X obj 248 213 f;
#X obj 189 74 inlet;
#X obj 260 73 inlet;
#X obj 189 98 t a a;
#X connect 1 0 2 0;
#X connect 2 0 3 0;
#X connect 3 0 4 0;
#X connect 4 0 5 0;
#X connect 5 0 0 0;
#X connect 6 0 8 0;
#X connect 7 0 1 1;
#X connect 8 0 1 0;
#X connect 8 1 5 1;
#X restore 197 538 pd deletelines;
#X obj 170 477 t b a;
#X obj 170 558 t b b;
#X obj 305 473 pack f s;
#X msg 210 450 65;
#X obj 125 210 t a a;
#X obj 498 296 - 2;
#X obj 82 15 inlet;
#X obj 123 16 r \$2Pt;
#X obj 86 61 get \$2-array id;
#X obj 125 101 r \$1Pt;
#X obj 86 159 getsize \$1 \$2, f 15;
#X obj 34 237 s \$2clear;
#X obj 164 306 r \$2Pt;
#X obj 125 348 get \$2-array id name;
#X obj 416 414 r \$1Pt;
#X obj 305 435 element \$1 \$2;
#X obj 305 454 get \$2-array id name;
#N canvas 0 50 450 300 tempFile 0;
#X obj 161 22 inlet;
#X obj 157 67 getdir;
#X obj 297 72 s tempFile;
#X msg 297 53 write \$1/test.data;
#X obj 157 86 t a a;
#X obj 213 59 bng 15 250 50 0 empty empty empty 17 7 0 10 -262144 -1
-1;
#X obj 157 106 list append \$1;
#X msg 157 126 \; pd-\$2-data read \$1/test.data;
#X connect 0 0 1 0;
#X connect 1 0 4 0;
#X connect 3 0 2 0;
#X connect 4 0 6 0;
#X connect 4 1 3 0;
#X connect 5 0 1 0;
#X connect 6 0 7 0;
#X restore 197 579 pd tempFile;
#N canvas 0 50 450 300 updatePt 0;
#X obj 43 4 inlet;
#X obj 374 23 inlet;
#X obj 43 73 pointer;
#X obj 44 122 f;
#X obj 44 94 t b p;
#X obj 44 179 pack f f;
#X msg 43 52 traverse pd-\$1-data \, next;
#X obj 148 184 s \$1Pt;
#X obj 108 75 r \$2ID-s;
#X msg 44 226 \; \$3ID-r range 0 \$2 \, \$1 \;, f 16;
#X obj 43 202 list append \$2;
#X connect 0 0 6 0;
#X connect 1 0 5 1;
#X connect 2 0 4 0;
#X connect 3 0 5 0;
#X connect 4 0 3 0;
#X connect 4 1 7 0;
#X connect 5 0 10 0;
#X connect 6 0 2 0;
#X connect 8 0 3 1;
#X connect 10 0 9 0;
#X restore 436 659 pd updatePt;
#X obj 170 602 list append \$1;
#X connect 0 0 1 0;
#X connect 1 1 23 0;
#X connect 2 0 6 0;
#X connect 3 0 0 0;
#X connect 4 0 9 0;
#X connect 5 0 2 0;
#X connect 5 1 11 0;
#X connect 6 0 33 0;
#X connect 6 1 13 1;
#X connect 7 0 8 0;
#X connect 7 1 27 0;
#X connect 8 0 34 0;
#X connect 9 0 14 0;
#X connect 9 1 12 0;
#X connect 10 0 4 1;
#X connect 11 0 10 0;
#X connect 11 1 12 1;
#X connect 12 0 13 0;
#X connect 13 0 21 0;
#X connect 14 0 15 0;
#X connect 15 0 36 0;
#X connect 16 0 31 0;
#X connect 17 0 3 0;
#X connect 17 1 18 0;
#X connect 18 0 38 0;
#X connect 19 0 20 0;
#X connect 20 1 22 1;
#X connect 23 0 24 0;
#X connect 23 1 22 0;
#X connect 24 0 42 0;
#X connect 24 1 40 0;
#X connect 25 0 19 0;
#X connect 26 0 23 0;
#X connect 27 0 4 0;
#X connect 27 1 28 0;
#X connect 28 0 41 1;
#X connect 29 0 16 0;
#X connect 30 0 16 1;
#X connect 31 0 5 0;
#X connect 32 0 2 1;
#X connect 33 0 7 0;
#X connect 35 0 15 1;
#X connect 36 0 17 0;
#X connect 36 1 3 1;
#X connect 37 0 38 1;
#X connect 38 0 39 0;
#X connect 39 0 25 0;
#X connect 39 1 25 1;
#X connect 42 0 41 0;
#X restore 305 163 pd delElement;
#X obj 276 118 r \$2del;
#X obj 256 174 t b a;
#X obj 256 213 s \$2deleted;
#X obj 125 196 s \$2Default;
#N canvas 0 50 450 300 write 0;
#X obj 142 134 list append \$1;
#X obj 142 43 r \$1Write;
#X msg 142 176 \; pd-object-data write ../tmp/\$1.data;
#X connect 0 0 2 0;
#X connect 1 0 0 0;
#X restore 345 54 pd write;
#X connect 0 0 4 0;
#X connect 1 0 3 0;
#X connect 3 0 4 0;
#X connect 4 0 9 0;
#X connect 6 0 7 0;
#X connect 7 0 8 0;
#X connect 7 1 5 0;
