#N canvas 833 136 743 396 10;
#X obj 312 126 t b a;
#X obj 496 139 t p p;
#X obj 5 8 r \$1Default;
#X obj 496 5 r \$1Pt;
#X obj 540 271 outlet;
#X obj 496 118 element \$1-array \$2;
#X obj 496 75 t b p;
#X msg 496 96 0;
#X obj 5 27 list split 1;
#X obj 5 82 b;
#X obj 219 96 r \$1\$2\$3\$4-s;
#X obj 312 97 r \$1\$2\$3\$5-s;
#X obj 5 104 list prepend \$7 \$8 \$9, f 12;
#X obj 5 266 set \$2-array \$3\$4 \$3\$5 \$3\$6;
#X obj 311 287 list prepend \$1 \$2 \$3 \$4 \$5 \$6;
#X msg 312 311 \; \$1\$2\$3\$4-r set \$7 \; \$1\$2\$3\$5-r set \$8
\; \$1\$2\$3\$6-r set \$9;
#X obj 496 171 get \$2-array \$3\$4 \$3\$5 \$3\$6, f 13;
#X obj 312 246 pack f f f;
#X obj 394 127 t b a;
#X obj 394 98 r \$1\$2\$3\$6-s;
#X connect 0 0 13 0;
#X connect 0 0 17 0;
#X connect 0 1 17 1;
#X connect 1 0 16 0;
#X connect 1 1 13 3;
#X connect 2 0 8 0;
#X connect 3 0 6 0;
#X connect 5 0 1 0;
#X connect 6 0 7 0;
#X connect 6 1 5 1;
#X connect 7 0 5 0;
#X connect 8 0 9 0;
#X connect 8 1 6 0;
#X connect 9 0 12 0;
#X connect 10 0 13 0;
#X connect 10 0 17 0;
#X connect 11 0 0 0;
#X connect 11 0 13 1;
#X connect 12 0 13 0;
#X connect 12 0 17 0;
#X connect 14 0 15 0;
#X connect 16 0 17 0;
#X connect 16 1 17 1;
#X connect 16 2 17 2;
#X connect 17 0 4 0;
#X connect 17 0 14 0;
#X connect 18 0 17 0;
#X connect 18 0 13 0;
#X connect 18 1 17 2;
#X connect 18 1 13 2;
#X connect 19 0 18 0;
