#N canvas 686 174 743 348 10;
#X obj 456 25 t p p;
#X obj 5 8 r \$1Default;
#X obj 456 6 r \$1Pt;
#X obj 456 212 outlet;
#X obj 234 6 r \$1\$2-s;
#X obj 39 64 list prepend \$3, f 12;
#X obj 456 82 get \$1-array \$2, f 13;
#X msg 262 228 \; \$1\$2-r set \$3;
#X obj 261 204 list prepend \$1 \$2;
#X obj 39 216 set \$1-array \$2;
#X obj 5 33 list split 1;
#X connect 0 0 6 0;
#X connect 0 1 9 1;
#X connect 1 0 10 0;
#X connect 2 0 0 0;
#X connect 4 0 9 0;
#X connect 4 0 3 0;
#X connect 5 0 9 0;
#X connect 6 0 3 0;
#X connect 6 0 8 0;
#X connect 8 0 7 0;
#X connect 10 1 5 0;
