#N canvas 686 174 743 348 10;
#X obj 312 106 t b a;
#X obj 456 25 t p p;
#X obj 312 216 pack;
#X obj 351 164 max 1;
#X obj 422 163 max 1;
#X obj 5 8 r \$1Default;
#X obj 104 6 r \$1\$2\$3-s;
#X obj 197 7 r \$1\$2\$4-s;
#X obj 456 82 get \$1-array \$2\$3 \$2\$4, f 13;
#X obj 30 216 set \$1-array \$2\$3 \$2\$4;
#X obj 456 6 r \$1Pt;
#X obj 6 54 list prepend \$5 \$6, f 12;
#X obj 5 33 b;
#X obj 311 257 list prepend \$1 \$2 \$3 \$4;
#X obj 540 251 outlet;
#X msg 312 281 \; \$1\$2\$3-r set \$5 \; \$1\$2\$4-r set \$6;
#X connect 0 0 2 0;
#X connect 0 0 9 0;
#X connect 0 1 2 1;
#X connect 1 0 8 0;
#X connect 1 1 9 2;
#X connect 2 0 13 0;
#X connect 2 0 14 0;
#X connect 3 0 2 0;
#X connect 4 0 2 1;
#X connect 5 0 12 0;
#X connect 6 0 2 0;
#X connect 6 0 9 0;
#X connect 7 0 0 0;
#X connect 7 0 9 1;
#X connect 8 0 3 0;
#X connect 8 1 4 0;
#X connect 10 0 1 0;
#X connect 11 0 9 0;
#X connect 11 0 2 0;
#X connect 12 0 11 0;
#X connect 13 0 15 0;
