#N canvas 826 437 743 396 10;
#X obj 456 140 t p p;
#X obj 5 8 r \$1Default;
#X obj 456 6 r \$1Pt;
#X obj 456 271 outlet;
#X obj 456 119 element \$1-array \$2;
#X obj 456 76 t b p;
#X msg 456 97 0;
#X obj 5 27 list split 1;
#X obj 5 82 b;
#X obj 5 104 list prepend \$4, f 12;
#X obj 219 96 r \$1\$2\$3-s;
#X obj 456 172 get \$2-array \$3, f 13;
#X obj 269 273 list prepend \$1 \$2 \$3;
#X msg 270 297 \; \$1\$2\$3-r set \$4 \;;
#X obj 5 266 set \$2-array \$3;
#X connect 0 0 11 0;
#X connect 0 1 14 1;
#X connect 1 0 7 0;
#X connect 2 0 5 0;
#X connect 4 0 0 0;
#X connect 5 0 6 0;
#X connect 5 1 4 1;
#X connect 6 0 4 0;
#X connect 7 0 8 0;
#X connect 7 1 5 0;
#X connect 8 0 9 0;
#X connect 9 0 14 0;
#X connect 10 0 12 0;
#X connect 10 0 3 0;
#X connect 10 0 14 0;
#X connect 11 0 3 0;
#X connect 11 0 12 0;
#X connect 12 0 13 0;
