#N canvas 833 136 743 396 10;
#X obj 312 126 t b a;
#X obj 456 140 t p p;
#X obj 312 246 pack;
#X obj 5 8 r \$1Default;
#X obj 456 6 r \$1Pt;
#X obj 540 271 outlet;
#X obj 456 119 element \$1-array \$2;
#X obj 5 104 list prepend \$6 \$7, f 12;
#X obj 5 266 set \$2-array \$3\$4 \$3\$5;
#X obj 456 76 t b p;
#X msg 456 97 0;
#X obj 456 172 get \$2-array \$3\$4 \$3\$5, f 13;
#X obj 5 27 list split 1;
#X obj 5 82 b;
#X obj 219 96 r \$1\$2\$3\$4-s;
#X obj 312 97 r \$1\$2\$3\$5-s;
#X obj 311 287 list prepend \$1 \$2 \$3 \$4 \$5;
#X msg 312 311 \; \$1\$2\$3\$4-r set \$6 \; \$1\$2\$3\$5-r set \$7
;
#X connect 0 0 2 0;
#X connect 0 0 8 0;
#X connect 0 1 2 1;
#X connect 1 0 11 0;
#X connect 1 1 8 2;
#X connect 2 0 5 0;
#X connect 2 0 16 0;
#X connect 3 0 12 0;
#X connect 4 0 9 0;
#X connect 6 0 1 0;
#X connect 7 0 2 0;
#X connect 7 0 8 0;
#X connect 9 0 10 0;
#X connect 9 1 6 1;
#X connect 10 0 6 0;
#X connect 11 0 2 0;
#X connect 11 1 2 1;
#X connect 12 0 13 0;
#X connect 12 1 9 0;
#X connect 13 0 7 0;
#X connect 14 0 2 0;
#X connect 14 0 8 0;
#X connect 15 0 0 0;
#X connect 15 0 8 1;
#X connect 16 0 17 0;
