#N canvas 2 609 450 300 10;
#X obj 91 129 element mat-array RGB;
#X obj 240 77 r \$1Pt;
#X obj 91 88 \$2;
#X obj 42 65 t a b;
#X obj 91 160 get rgb-param r g b a;
#X obj 42 31 route \$2;
#X obj 42 9 r \$1;
#X obj 42 252 list prepend \$4;
#X obj 42 224 \$3RGB;
#X obj 42 274 s \$1;
#X connect 0 0 4 0;
#X connect 1 0 0 1;
#X connect 2 0 0 0;
#X connect 3 0 8 0;
#X connect 3 1 2 0;
#X connect 4 0 8 1;
#X connect 4 1 8 2;
#X connect 4 2 8 3;
#X connect 4 3 8 4;
#X connect 5 0 3 0;
#X connect 6 0 5 0;
#X connect 7 0 9 0;
#X connect 8 0 7 0;
