#N canvas 0 50 450 300 10;
#X obj 100 100 cnv 15 60 30 empty empty empty 20 12 0 14 -1 -66577
0;
#X obj 103 113 nbx 5 14 -1e+037 1e+037 0 0 empty empty \$1 0 -8 0 10
-191407 -1 -262144 0 256;
#X msg 102 78 set \$1;
#X obj 102 57 get \$2 \$1;
#X obj 103 159 set \$2 \$1;
#X obj 303 28 r \$3;
#X connect 1 0 4 0;
#X connect 2 0 1 0;
#X connect 3 0 2 0;
#X connect 5 0 3 0;
#X connect 5 0 4 1;
#X coords 0 -1 1 1 60 30 2 100 100;
