#N canvas 431 50 618 608 10;
#X obj 222 240 t l;
#X obj 54 147 until;
#X obj 35 268 list;
#X obj 35 453 list trim;
#X obj 142 361 makefilename %c;
#X obj 141 309 makefilename %c;
#X msg 141 288 123;
#X msg 142 342 125;
#X obj 35 339 list prepend;
#X obj 35 360 list append;
#X obj 35 287 t a b;
#X obj 5 558 s SYS_GUI;
#X obj 35 473 s SYS_GUI;
#X obj 35 381 list prepend configure -values;
#X obj 35 123 t b a b;
#X msg 100 123 0;
#X obj 54 169 f;
#X obj 83 168 + 1;
#X obj 36 64 pointer;
#X obj 35 83 t a p, f 22;
#X obj 5 44 t a b;
#X obj 5 6 r \$2Pt;
#X obj 5 25 get \$2-array name;
#X obj 147 25 r \$1Pt;
#X obj 35 103 getsize \$1 \$2;
#X obj 55 189 element \$1 \$2;
#X obj 55 208 get \$2-array name;
#X obj 35 417 list prepend .vmapgui.n.\$2.pw.set.cbox;
#X msg 5 538 .vmapgui.n.\$2.pw.set.cbox set \$1;
#X obj 5 516 list append \$2;
#X obj 55 240 list prepend;
#X obj 236 23 r vmapgui-s;
#X obj 236 137 s \$2add;
#X obj 273 117 s \$2del;
#X obj 236 43 route \$2;
#X obj 236 63 route add del clear;
#X obj 310 98 s \$2clear;
#X connect 0 0 30 1;
#X connect 1 0 16 0;
#X connect 2 0 10 0;
#X connect 3 0 12 0;
#X connect 4 0 9 1;
#X connect 5 0 8 1;
#X connect 6 0 5 0;
#X connect 7 0 4 0;
#X connect 8 0 9 0;
#X connect 9 0 13 0;
#X connect 10 0 8 0;
#X connect 10 1 6 0;
#X connect 10 1 7 0;
#X connect 13 0 27 0;
#X connect 14 0 2 0;
#X connect 14 1 1 0;
#X connect 14 2 0 0;
#X connect 14 2 15 0;
#X connect 15 0 16 1;
#X connect 16 0 17 0;
#X connect 16 0 25 0;
#X connect 17 0 16 1;
#X connect 18 0 19 0;
#X connect 19 0 24 0;
#X connect 19 1 25 1;
#X connect 20 0 29 0;
#X connect 20 1 18 0;
#X connect 21 0 22 0;
#X connect 22 0 20 0;
#X connect 23 0 18 1;
#X connect 24 0 14 0;
#X connect 25 0 26 0;
#X connect 26 0 30 0;
#X connect 27 0 3 0;
#X connect 28 0 11 0;
#X connect 29 0 28 0;
#X connect 30 0 0 0;
#X connect 30 0 2 1;
#X connect 31 0 34 0;
#X connect 34 0 35 0;
#X connect 35 0 32 0;
#X connect 35 1 33 0;
#X connect 35 2 36 0;
