#N struct media float id array m m-array;
#N struct m-array float id symbol name float type symbol filename float
width float height text mediaPrev array image image-array float length
text video;
#N struct image-array float id float bytes float colour-space float
type float upsidedown float notowed;
#N struct modul float id array mod mod-array;
#N struct mod-array float id float enable symbol name float lfo float
freq float amp symbol waveshape symbol OSC text param array midi mod-midi
;
#N struct mod-midi float id symbol name float channel float num float
type;
#N struct texture float id array tex tex-array;
#N struct tex-array float id symbol name array media media-array float
mediaID array fx fx-array float fxID;
#N struct media-array float id array film film-array array texcoord
texcoord-array;
#N struct film-array float frame float start float end float auto float
fps;
#N struct texcoord-array float tlx float tly float trx float try float
blx float bly float brx float bry;
#N struct fx-array symbol name symbol folder float preset text presets
array param fx-param float paramId;
#N struct fx-param symbol name float id float type float value float
ctl float min float max float incr float modulId float modulEnable
;
#N canvas 605 328 530 585 10;
#X obj 31 170 gemhead;
#N canvas 146 653 450 300 texViewFx 1;
#X obj 100 100 fx/glsl/GLSLpoint texView 0 1;
#X restore 31 304 pd texViewFx;
#X obj 31 264 list prepend 0;
#X obj 31 284 s texViewFxHead;
#X obj 32 324 r texViewFxHead;
#X obj 32 480 pix_coordinate;
#N canvas 1353 589 450 300 coord 0;
#X obj 67 212 outlet;
#X obj 67 183 pack 0 0 1 0 1 1 0 1;
#X obj 139 216 pack 0 0 1 0 1 1 0 1;
#X obj 127 251 bng 15 250 50 0 empty empty empty 17 7 0 10 -262144
-1 -1;
#X obj 106 29 r texCoordPt;
#X obj 67 70 get texcoord-array tlx tly trx try blx bly brx bry;
#X obj 68 49 pointer;
#X obj 63 6 inlet;
#X obj 67 94 / 1000;
#X obj 109 94 / 1000;
#X obj 151 94 / 1000;
#X obj 194 94 / 1000;
#X obj 236 94 / 1000;
#X obj 279 94 / 1000;
#X obj 321 94 / 1000;
#X obj 364 94 / 1000;
#X connect 1 0 0 0;
#X connect 2 0 0 0;
#X connect 3 0 2 0;
#X connect 4 0 6 1;
#X connect 5 0 8 0;
#X connect 5 1 9 0;
#X connect 5 2 10 0;
#X connect 5 3 11 0;
#X connect 5 4 12 0;
#X connect 5 5 13 0;
#X connect 5 6 14 0;
#X connect 5 7 15 0;
#X connect 6 0 5 0;
#X connect 7 0 6 0;
#X connect 8 0 1 0;
#X connect 9 0 1 1;
#X connect 10 0 1 2;
#X connect 11 0 1 3;
#X connect 12 0 1 4;
#X connect 13 0 1 5;
#X connect 14 0 1 6;
#X connect 15 0 1 7;
#X restore 125 454 pd coord;
#X obj 32 430 t a b;
#N canvas 845 487 722 474 texViewMedia 0;
#X obj 21 15 inlet;
#X obj 21 425 outlet;
#N canvas 66 92 450 300 texView-stream 0;
#X restore 7 449 pd texView-stream;
#X obj 127 218 metro 50;
#X obj 110 194 /;
#X msg 110 175 1000;
#X obj 60 14 r filmPt;
#X obj 132 153 t b a;
#X obj 127 236 f;
#X obj 354 162 -;
#X obj 172 256 mod;
#X obj 363 6 r media;
#X obj 197 276 +;
#X obj 336 79 route auto fps offset end frame;
#X obj 60 39 get film-array auto fps start end frame;
#X obj 307 373 pix_buffer media-0;
#X msg 48 347 set media-\$1;
#X obj 426 162 r media;
#X obj 446 226 sel 0;
#X msg 446 247 0;
#X obj 427 267 t a a;
#X obj 454 203 t a b;
#X msg 499 207 1;
#X obj 240 313 spigot 1;
#X obj 21 379 pix_buffer_read media-0;
#X obj 220 173 tgl 15 0 empty empty empty 17 7 0 10 -262144 -1 -1 0
1;
#X obj 629 67 r filmPt;
#X obj 469 130 set film-array auto;
#X obj 491 149 set film-array fps;
#X obj 505 170 set film-array start;
#X obj 526 190 set film-array end;
#X obj 546 210 set film-array frame;
#X obj 363 28 route Sel;
#X obj 336 58 route;
#X msg 209 102 0;
#X obj 215 233 abs;
#X obj 160 237 + 1;
#X obj 63 309 r setMedia;
#X obj 427 182 route type;
#X obj 21 193 t a b;
#X obj 48 328 f;
#X obj 21 402 pix_buf;
#X obj 447 29 r setMedia;
#X connect 0 0 39 0;
#X connect 3 0 8 0;
#X connect 4 0 3 1;
#X connect 5 0 4 0;
#X connect 6 0 14 0;
#X connect 6 0 34 0;
#X connect 7 0 5 0;
#X connect 7 1 4 1;
#X connect 8 0 10 0;
#X connect 8 0 36 0;
#X connect 9 0 35 0;
#X connect 10 0 12 0;
#X connect 11 0 32 0;
#X connect 12 0 23 0;
#X connect 13 0 25 0;
#X connect 13 0 27 0;
#X connect 13 1 7 0;
#X connect 13 1 28 0;
#X connect 13 2 9 0;
#X connect 13 2 12 1;
#X connect 13 2 29 0;
#X connect 13 3 9 1;
#X connect 13 3 30 0;
#X connect 13 4 24 1;
#X connect 13 4 31 0;
#X connect 14 0 25 0;
#X connect 14 1 7 0;
#X connect 14 2 9 0;
#X connect 14 2 12 1;
#X connect 14 3 9 1;
#X connect 14 4 23 0;
#X connect 16 0 24 0;
#X connect 17 0 38 0;
#X connect 18 0 19 0;
#X connect 19 0 20 0;
#X connect 20 0 24 1;
#X connect 20 1 23 1;
#X connect 21 0 18 0;
#X connect 21 1 22 0;
#X connect 22 0 23 1;
#X connect 23 0 24 1;
#X connect 24 0 41 0;
#X connect 25 0 3 0;
#X connect 26 0 27 1;
#X connect 26 0 28 1;
#X connect 26 0 29 1;
#X connect 26 0 30 1;
#X connect 26 0 31 1;
#X connect 32 0 33 1;
#X connect 32 1 33 0;
#X connect 33 0 13 0;
#X connect 34 0 8 1;
#X connect 35 0 10 1;
#X connect 36 0 8 1;
#X connect 37 0 40 1;
#X connect 38 0 21 0;
#X connect 39 0 24 0;
#X connect 39 1 40 0;
#X connect 40 0 16 0;
#X connect 41 0 1 0;
#X connect 42 0 33 1;
#X restore 31 239 pd texViewMedia;
#X obj 130 101 gemwin;
#X msg 131 76 create \, 1;
#X obj 260 12 loadbang;
#X obj 260 61 netsend -u;
#X msg 260 40 connect localhost 9875 \, send conn;
#X obj 260 152 netreceive -u 9876;
#N canvas 442 77 219 59 datastructure 0;
#X obj 32 23 struct-media;
#X obj 32 45 struct-modul;
#X obj 33 69 struct-texture;
#X restore 264 111 pd datastructure;
#X obj 221 276 print texPreview;
#X obj 299 247 s media;
#N canvas 308 50 450 393 readData 0;
#X obj 127 13 inlet;
#X obj 155 143 getdir;
#X obj 128 37 t b b;
#X obj 185 17 inlet;
#X msg 234 77 \; clear bang \; pd-media-data clear \; pd-modul-data
clear \; pd-texture-data clear \;;
#X msg 155 163 \; pd-media-data read \$1/../tmp/media.data \; pd-modul-data
read \$1/../tmp/modul.data \; pd-texture-data read \$1/../tmp/texture.data
;
#N canvas 0 50 450 300 mediaData 0;
#X obj 155 15 inlet;
#X obj 154 80 pointer;
#X obj 154 101 s mediaPt;
#X msg 154 40 traverse pd-media-data \, next, f 16;
#X connect 0 0 3 0;
#X connect 1 0 2 0;
#X connect 3 0 1 0;
#X restore 168 244 pd mediaData;
#X obj 128 120 t b b;
#X obj 128 224 t b b b;
#N canvas 759 70 450 300 modulData 0;
#X obj 155 15 inlet;
#X obj 154 80 pointer;
#X msg 154 40 traverse pd-modul-data \, next, f 16;
#N canvas 975 375 426 447 Modul 0;
#X obj 168 5 inlet;
#X obj 168 234 f;
#X obj 296 224 + 1;
#X obj 168 190 t b b a;
#X obj 168 255 moses;
#X msg 238 213 0;
#X obj 24 278 r clear;
#X obj 98 198 bng 15 250 50 0 empty empty empty 17 7 0 10 -262144 -1
-1;
#X obj 253 182 r modDone;
#N canvas 1155 82 555 457 makeModul 0;
#X obj 89 22 inlet;
#X obj 254 229 list append;
#X obj 89 43 t a a;
#X obj 317 83 t a a;
#X obj 89 277 t b a;
#X obj 116 358 list trim;
#X obj 89 398 s modDone;
#X obj 190 115 r modulPt;
#X obj 89 156 t p b;
#N canvas 0 50 450 300 texViewModul 0;
#X obj 100 100 modul 0;
#X restore 305 332 pd texViewModul;
#X obj 116 337 list append;
#X obj 179 316 r texPt;
#X obj 116 297 list prepend;
#X obj 89 134 element modul mod;
#X msg 254 251 \; pd-texViewModul obj 100 100 modul \$1;
#X obj 116 378 s texViewModPt;
#X connect 0 0 2 0;
#X connect 1 0 14 0;
#X connect 2 0 13 0;
#X connect 2 1 3 0;
#X connect 3 0 1 1;
#X connect 3 1 12 1;
#X connect 4 0 6 0;
#X connect 4 1 12 0;
#X connect 5 0 15 0;
#X connect 7 0 13 1;
#X connect 8 0 4 0;
#X connect 8 1 1 0;
#X connect 10 0 5 0;
#X connect 11 0 10 1;
#X connect 12 0 10 0;
#X connect 13 0 8 0;
#X restore 168 275 pd makeModul;
#X obj 168 26 t p p;
#X obj 195 47 s modulPt;
#X msg 24 307 \; pd-texViewModul clear;
#X obj 168 153 getsize modul mod;
#X connect 0 0 10 0;
#X connect 1 0 2 0;
#X connect 1 0 4 0;
#X connect 2 0 1 1;
#X connect 3 0 1 0;
#X connect 3 1 5 0;
#X connect 3 2 4 1;
#X connect 4 0 9 0;
#X connect 5 0 1 1;
#X connect 6 0 12 0;
#X connect 7 0 1 0;
#X connect 8 0 1 0;
#X connect 10 0 13 0;
#X connect 10 1 11 0;
#X connect 13 0 3 0;
#X restore 154 104 pd Modul;
#X connect 0 0 2 0;
#X connect 1 0 3 0;
#X connect 2 0 1 0;
#X restore 128 287 pd modulData;
#N canvas 0 50 450 300 textureData 0;
#X obj 155 15 inlet;
#X obj 155 79 pointer;
#X obj 155 117 element texture tex;
#X obj 155 98 list prepend 0;
#X msg 155 39 traverse pd-texture-data \, next, f 16;
#X obj 194 156 s texPt;
#N canvas 0 503 450 300 Media 0;
#X obj 166 5 inlet;
#N canvas 810 85 450 457 makeMedia 0;
#X obj 86 101 inlet;
#X obj 87 264 list trim;
#N canvas 1146 154 450 300 film 0;
#X obj 31 53 inlet;
#N canvas 1230 529 377 312 createBufferSub 0;
#X obj 23 15 inlet;
#X obj 68 152 + 10;
#X obj 101 45 r mPt;
#X obj 62 67 pointer;
#X obj 204 160 sel -1;
#X obj 201 124 t a a;
#X obj 246 99 r mediaclear;
#X msg 246 125 -1;
#X obj 204 181 outlet;
#X obj 68 132 * 40;
#X obj 23 271 s mediaBuffer-r;
#X obj 23 199 t a a;
#X obj 23 172 pack s f f f;
#X msg 50 219 \; pd-filmBuffers obj 10 \$3 filmBuffer \$1 \$2 \$4;
#X msg 23 252 \$2 \$1;
#X obj 63 88 get m-array id length;
#X obj 23 44 t a b;
#X connect 0 0 16 0;
#X connect 1 0 12 2;
#X connect 2 0 3 1;
#X connect 3 0 15 0;
#X connect 4 0 8 0;
#X connect 5 0 4 1;
#X connect 5 1 4 0;
#X connect 6 0 7 0;
#X connect 7 0 4 1;
#X connect 9 0 1 0;
#X connect 11 0 14 0;
#X connect 11 1 13 0;
#X connect 12 0 11 0;
#X connect 14 0 10 0;
#X connect 15 0 9 0;
#X connect 15 0 12 1;
#X connect 15 1 5 0;
#X connect 15 1 12 3;
#X connect 16 0 12 0;
#X connect 16 1 3 0;
#X restore 31 110 pd createBufferSub;
#N canvas 624 576 450 300 filmBuffers 0;
#X restore 29 22 pd filmBuffers;
#X msg 31 185 \; pd-filmBuffers clear \, vis 0;
#X obj 161 114 r clear;
#X connect 0 0 1 0;
#X connect 1 0 3 0;
#X connect 4 0 3 0;
#X restore 152 369 pd film;
#N canvas 454 42 329 222 image 0;
#X obj 31 42 inlet;
#N canvas 791 163 377 312 createBufferSub 0;
#X obj 33 15 inlet;
#X obj 115 198 + 10;
#X obj 33 44 t a b;
#X obj 126 50 r mPt;
#X obj 87 72 pointer;
#X obj 88 93 get m-array id;
#X obj 60 218 pack s f f;
#X obj 204 160 sel -1;
#X obj 201 124 t a a;
#X obj 246 99 r mediaclear;
#X msg 246 125 -1;
#X obj 204 181 outlet;
#X obj 115 178 * 40;
#X obj 33 286 outlet;
#X obj 33 168 f;
#X obj 33 88 t b a;
#X msg 60 250 \; pd-pixBuffers obj 10 \$3 imageBuffer \$1 \$2;
#X connect 0 0 2 0;
#X connect 1 0 6 2;
#X connect 2 0 15 0;
#X connect 2 1 4 0;
#X connect 3 0 4 1;
#X connect 4 0 5 0;
#X connect 5 0 6 1;
#X connect 5 0 8 0;
#X connect 5 0 12 0;
#X connect 5 0 14 1;
#X connect 6 0 16 0;
#X connect 7 0 11 0;
#X connect 8 0 7 1;
#X connect 8 1 7 0;
#X connect 9 0 10 0;
#X connect 10 0 7 1;
#X connect 12 0 1 0;
#X connect 14 0 13 0;
#X connect 15 0 14 0;
#X connect 15 1 6 0;
#X restore 31 63 pd createBufferSub;
#X msg 130 125 \; pd-pixBuffers clear \, vis 0;
#N canvas 624 576 428 300 pixBuffers 0;
#X obj 10 50 imageBuffer C:/Users/Patrice/Documents/Pd/pdpatch/Gem/videoMapper/media/img/img1.jpg
1;
#X restore 32 22 pd pixBuffers;
#X obj 31 202 s mediaBuffer-r;
#X obj 149 83 r clear;
#X connect 0 0 1 0;
#X connect 1 0 4 0;
#X connect 1 1 2 0;
#X connect 5 0 2 0;
#X restore 87 369 pd image;
#X obj 87 285 route 0 1 2 3;
#X obj 86 141 get media-array id;
#X obj 86 161 element media m;
#X obj 211 141 r mediaPt;
#X obj 87 180 t p p;
#X obj 114 201 s mPt;
#X obj 87 243 pack f s;
#X obj 87 222 get m-array type filename;
#X obj 86 121 element tex-array media;
#X obj 221 96 r texPt;
#X connect 0 0 12 0;
#X connect 1 0 4 0;
#X connect 4 0 3 0;
#X connect 4 1 2 0;
#X connect 5 0 6 0;
#X connect 6 0 8 0;
#X connect 7 0 6 1;
#X connect 8 0 11 0;
#X connect 8 1 9 0;
#X connect 10 0 1 0;
#X connect 11 0 10 0;
#X connect 11 1 10 1;
#X connect 12 0 5 0;
#X connect 13 0 12 1;
#X restore 257 178 pd makeMedia;
#X obj 167 32 getsize tex-array media;
#X obj 226 114 f;
#X obj 277 112 + 1;
#X obj 167 51 moses 2;
#X obj 98 143 t b b;
#X obj 95 114 bng 15 250 50 0 empty empty empty 17 7 0 10 -262144 -1
-1;
#X obj 291 62 r mediaDone;
#X obj 123 119 sel;
#X obj 206 70 t b b a;
#X obj 231 155 t a a;
#X msg 276 93 1;
#X obj 141 95 - 1;
#X obj 231 135 moses;
#X obj 88 215 s render;
#N canvas 960 419 492 543 setMedia 0;
#X obj 192 10 inlet;
#X obj 192 64 get tex-array mediaID;
#X obj 243 5 r texPt;
#X obj 192 35 pointer;
#X obj 192 125 element media m;
#X obj 230 105 r mediaPt;
#X obj 192 85 t a a, f 25;
#X obj 219 163 s mPt;
#X obj 192 181 get m-array type;
#X obj 192 145 t p p;
#X obj 192 222 route 0 1 2 3;
#X obj 164 378 element tex-array media, f 10;
#X obj 164 358 list prepend;
#X obj 164 419 list prepend 0;
#X obj 164 438 element media-array film, f 11;
#X obj 164 480 s filmPt;
#X obj 165 338 pointer;
#X obj 204 317 r texPt;
#X obj 330 281 s media;
#X msg 330 256 type \$1;
#X obj 373 5 r media;
#X obj 361 30 route Sel;
#X obj 354 184 s setMedia;
#X connect 0 0 3 0;
#X connect 1 0 6 0;
#X connect 2 0 3 1;
#X connect 3 0 1 0;
#X connect 4 0 9 0;
#X connect 5 0 4 1;
#X connect 6 0 4 0;
#X connect 6 1 12 1;
#X connect 6 1 22 0;
#X connect 8 0 10 0;
#X connect 8 0 19 0;
#X connect 9 0 8 0;
#X connect 9 1 7 0;
#X connect 10 1 16 0;
#X connect 11 0 13 0;
#X connect 12 0 11 0;
#X connect 13 0 14 0;
#X connect 14 0 15 0;
#X connect 16 0 12 0;
#X connect 17 0 16 1;
#X connect 19 0 18 0;
#X connect 20 0 21 0;
#X connect 21 0 6 0;
#X restore 125 173 pd setMedia;
#X msg 272 246 \; pd-texViewFx clear;
#X obj 277 214 r clear;
#X connect 0 0 2 0;
#X connect 2 0 5 0;
#X connect 3 0 4 0;
#X connect 3 0 14 0;
#X connect 4 0 3 1;
#X connect 5 1 10 0;
#X connect 6 0 15 0;
#X connect 6 1 16 0;
#X connect 7 0 6 0;
#X connect 8 0 3 0;
#X connect 9 0 6 0;
#X connect 10 0 3 0;
#X connect 10 1 12 0;
#X connect 10 2 13 0;
#X connect 10 2 14 1;
#X connect 11 0 9 0;
#X connect 11 1 1 0;
#X connect 12 0 3 1;
#X connect 13 0 9 1;
#X connect 14 0 11 0;
#X connect 18 0 17 0;
#X restore 155 204 pd Media;
#X obj 155 136 t p p p;
#N canvas 501 8 426 333 Fx 0;
#X obj 166 5 inlet;
#X obj 188 150 f;
#X obj 296 140 + 1;
#X obj 168 106 t b b a;
#X obj 193 171 moses;
#X obj 167 32 getsize tex-array fx;
#X obj 253 98 r fxDone;
#N canvas 919 85 670 457 makeFx 0;
#X obj 89 22 inlet;
#X obj 89 156 t p p;
#X obj 206 115 r texPt;
#X obj 89 134 element tex-array fx;
#X obj 192 229 list append;
#X obj 87 357 s texViewFxPt;
#X obj 116 195 list append texView;
#X obj 282 110 + 1;
#X obj 219 249 list append;
#X obj 89 43 t a a;
#X obj 255 83 t a a;
#X obj 27 277 t b a;
#X obj 27 398 s fxDone;
#X obj 87 316 list prepend;
#X obj 87 337 list trim;
#X obj 116 175 get fx-array name folder;
#X obj 305 294 list append;
#X msg 305 314 \; pd-texViewFx obj 100 100 fx/\$5/\$1 \$2 \$3 \$4 \;
\$2FX\$4 loadbang \;;
#X connect 0 0 9 0;
#X connect 1 0 11 0;
#X connect 1 1 15 0;
#X connect 2 0 3 1;
#X connect 3 0 1 0;
#X connect 4 0 8 0;
#X connect 6 0 4 0;
#X connect 7 0 8 1;
#X connect 8 0 16 0;
#X connect 9 0 3 0;
#X connect 9 1 10 0;
#X connect 9 1 13 1;
#X connect 10 0 4 1;
#X connect 10 1 7 0;
#X connect 11 0 12 0;
#X connect 11 1 13 0;
#X connect 13 0 14 0;
#X connect 14 0 5 0;
#X connect 15 0 6 0;
#X connect 15 1 16 1;
#X connect 16 0 17 0;
#X restore 233 256 pd makeFx;
#X msg 187 67 1;
#X msg 238 129 0;
#X msg 261 210 \; pd-texViewFx clear;
#X obj 294 181 r clear;
#X obj 98 118 bng 15 250 50 0 empty empty empty 17 7 0 10 -262144 -1
-1;
#X obj 267 64 s texViewFxFoot;
#X obj 49 203 t b b;
#X obj 46 174 bng 15 250 50 0 empty empty empty 17 7 0 10 -262144 -1
-1;
#X obj 74 179 sel;
#X obj 92 155 - 1;
#N canvas 960 769 492 193 setFx 0;
#X obj 192 10 inlet;
#X obj 243 5 r texPt;
#X obj 192 35 pointer;
#X obj 192 64 get tex-array fxID;
#X obj 192 119 s fx;
#X msg 192 88 Sel \$1;
#X connect 0 0 2 0;
#X connect 1 0 2 1;
#X connect 2 0 3 0;
#X connect 3 0 5 0;
#X connect 5 0 4 0;
#X restore 76 233 pd setFx;
#X obj 194 193 t a a;
#X obj 49 282 s texPt;
#X obj 49 263 pointer;
#X obj 113 263 r texPt;
#X connect 0 0 5 0;
#X connect 1 0 2 0;
#X connect 1 0 4 0;
#X connect 2 0 1 1;
#X connect 3 0 1 0;
#X connect 3 1 9 0;
#X connect 3 2 4 1;
#X connect 3 2 17 0;
#X connect 4 0 19 0;
#X connect 5 0 3 0;
#X connect 5 0 13 0;
#X connect 6 0 1 0;
#X connect 8 0 3 0;
#X connect 9 0 1 1;
#X connect 11 0 10 0;
#X connect 12 0 1 0;
#X connect 14 0 21 0;
#X connect 14 1 18 0;
#X connect 15 0 14 0;
#X connect 16 0 14 0;
#X connect 17 0 16 1;
#X connect 19 0 16 0;
#X connect 19 1 7 0;
#X connect 21 0 20 0;
#X connect 22 0 21 1;
#X restore 174 179 pd Fx;
#N canvas 917 95 450 300 fxParam 0;
#X obj 224 80 r texPt;
#X obj 107 122 element tex-array fx;
#X obj 64 28 r fx;
#X obj 64 51 route param Sel;
#X obj 87 226 element fx-array param;
#X obj 64 175 list split 1;
#X obj 64 205 swap;
#X obj 64 262 set fx-param value;
#X connect 0 0 1 1;
#X connect 1 0 4 1;
#X connect 2 0 3 0;
#X connect 3 0 5 0;
#X connect 3 1 1 0;
#X connect 4 0 7 1;
#X connect 5 0 6 0;
#X connect 5 1 6 1;
#X connect 6 0 7 0;
#X connect 6 1 4 0;
#X restore 232 180 pd fxParam;
#X connect 0 0 4 0;
#X connect 1 0 3 0;
#X connect 2 0 7 0;
#X connect 3 0 2 0;
#X connect 4 0 1 0;
#X connect 7 0 6 0;
#X connect 7 1 8 0;
#X connect 7 2 5 0;
#X restore 147 267 pd textureData;
#X connect 0 0 2 0;
#X connect 1 0 5 0;
#X connect 2 0 7 0;
#X connect 2 1 4 0;
#X connect 3 0 7 0;
#X connect 7 0 8 0;
#X connect 7 1 1 0;
#X connect 8 0 9 0;
#X connect 8 1 10 0;
#X connect 8 2 6 0;
#X restore 376 203 pd readData;
#X obj 32 550 rectangle 4 4;
#N canvas 0 50 450 438 dimen 0;
#X obj 17 14 inlet;
#X obj 44 78 pointer;
#X obj 161 31 r mPt;
#X obj 17 45 t a b;
#X obj 17 400 outlet;
#X obj 44 144 pack f f;
#X obj 106 142 >;
#X obj 44 122 t a a;
#X obj 44 180 spigot;
#X obj 135 163 == 0;
#X obj 149 203 spigot;
#X obj 43 206 t b a;
#X obj 43 292 pack 4 f;
#X obj 70 226 swap;
#X obj 70 247 /;
#X obj 70 268 * 4;
#X obj 147 224 /;
#X obj 147 245 * 4;
#X obj 147 270 pack f 4;
#X obj 44 100 get m-array width height;
#X obj 70 400 outlet;
#X floatatom 244 153 5 0 0 0 - - -;
#X connect 0 0 3 0;
#X connect 1 0 19 0;
#X connect 2 0 1 1;
#X connect 3 0 4 0;
#X connect 3 1 1 0;
#X connect 5 0 8 0;
#X connect 5 0 10 0;
#X connect 6 0 9 0;
#X connect 6 0 8 1;
#X connect 7 0 5 0;
#X connect 7 1 6 0;
#X connect 8 0 11 0;
#X connect 9 0 10 1;
#X connect 10 0 16 0;
#X connect 11 0 12 0;
#X connect 11 1 13 0;
#X connect 12 0 20 0;
#X connect 13 0 14 0;
#X connect 13 1 14 1;
#X connect 14 0 15 0;
#X connect 15 0 12 1;
#X connect 16 0 17 0;
#X connect 17 0 18 0;
#X connect 18 0 20 0;
#X connect 19 0 7 0;
#X connect 19 0 21 0;
#X connect 19 1 6 1;
#X connect 19 1 5 1;
#X restore 32 502 pd dimen;
#X obj 68 525 unpack;
#X msg 63 51 destroy;
#X msg 33 143 0;
#X msg 63 144 1;
#X obj 107 18 t b b;
#X obj 63 122 r render;
#X obj 32 452 pix_texture;
#X obj 260 248 s fx;
#X obj 32 348 list trim;
#X obj 71 386 r texViewFxFoot;
#X obj 32 406 route 0;
#X obj 46 215 alpha;
#X obj 260 177 route fx media modul start reload;
#X obj 31 189 t a b;
#X obj 101 214 s texViewFrame;
#N canvas 0 50 450 300 parseModul 0;
#X obj 196 21 inlet;
#X obj 196 41 t a a;
#X obj 224 61 route open;
#X obj 196 102 list prepend;
#X obj 196 123 list trim;
#X obj 224 81 list split 5;
#X obj 196 144 s modul;
#X connect 0 0 1 0;
#X connect 1 0 3 0;
#X connect 1 1 2 0;
#X connect 2 0 5 0;
#X connect 3 0 4 0;
#X connect 4 0 6 0;
#X connect 5 1 3 1;
#X restore 338 225 pd parseModul;
#X msg 183 404 rectangle 1;
#X msg 270 407 rectangle 0;
#X connect 0 0 34 0;
#X connect 2 0 3 0;
#X connect 4 0 29 0;
#X connect 5 0 20 0;
#X connect 6 0 5 1;
#X connect 7 0 27 0;
#X connect 8 0 2 0;
#X connect 10 0 9 0;
#X connect 11 0 13 0;
#X connect 11 0 25 0;
#X connect 13 0 12 0;
#X connect 14 0 16 0;
#X connect 14 0 33 0;
#X connect 20 0 19 0;
#X connect 20 1 21 0;
#X connect 21 0 19 1;
#X connect 21 1 19 2;
#X connect 22 0 9 0;
#X connect 23 0 0 0;
#X connect 24 0 0 0;
#X connect 25 0 10 0;
#X connect 25 1 23 0;
#X connect 26 0 24 0;
#X connect 27 0 5 0;
#X connect 29 0 31 0;
#X connect 30 0 31 1;
#X connect 31 0 7 0;
#X connect 32 0 8 0;
#X connect 33 0 28 0;
#X connect 33 1 17 0;
#X connect 33 2 36 0;
#X connect 33 3 18 0;
#X connect 33 4 18 1;
#X connect 34 0 8 0;
#X connect 34 1 35 0;
#X connect 37 0 27 0;
#X connect 38 0 27 0;
