#N canvas 2292 390 594 613 10;
#X obj 48 250 +;
#X obj 48 272 *;
#X obj 98 214 r heightFactor;
#X obj 85 192 r widthFactor;
#X obj 258 237 *;
#X obj 292 192 r heightFactor;
#X obj 258 193 + 4;
#X obj 256 143 r initCadre;
#X msg 258 163 -1;
#X obj 107 34 inlet;
#X obj 174 32 inlet;
#X obj 125 494 outlet;
#X obj 310 478 outlet;
#X obj 526 31 inlet;
#X obj 287 401 spigot;
#X obj 121 402 spigot;
#X obj 15 91 r initCadre;
#X msg 17 111 -1;
#X obj 169 441 \$1;
#X obj 457 421 \$2;
#X obj 540 153 sel 0;
#X obj 474 98 t b a a;
#X floatatom 128 310 5 0 0 0 - - -, f 5;
#X floatatom 128 112 5 0 0 0 - - -, f 5;
#X obj 258 258 abs;
#X floatatom 124 253 5 0 0 0 - - -, f 5;
#X obj 48 291 max 0;
#X obj 354 59;
#X connect 0 0 1 0;
#X connect 1 0 22 0;
#X connect 1 0 26 0;
#X connect 2 0 1 1;
#X connect 2 0 25 0;
#X connect 3 0 0 1;
#X connect 4 0 24 0;
#X connect 5 0 4 1;
#X connect 6 0 4 0;
#X connect 7 0 8 0;
#X connect 8 0 6 0;
#X connect 9 0 0 0;
#X connect 9 0 23 0;
#X connect 10 0 6 0;
#X connect 13 0 21 0;
#X connect 14 0 12 0;
#X connect 15 0 11 0;
#X connect 16 0 17 0;
#X connect 17 0 0 0;
#X connect 18 0 11 0;
#X connect 19 0 12 0;
#X connect 20 0 18 0;
#X connect 20 0 19 0;
#X connect 21 0 6 0;
#X connect 21 0 0 0;
#X connect 21 1 14 1;
#X connect 21 1 15 1;
#X connect 21 2 20 0;
#X connect 24 0 14 0;
#X connect 26 0 15 0;
