#N canvas 66 112 450 300 10;
#X obj 100 100 tgl 15 0 \$0-s \$0-r empty 17 7 0 10 -262144 -1 -1 0
1;
#X obj 99 160 s tgl-s;
#X obj 101 51 r tgl-r;
#X obj 100 121 list prepend \$1;
#X obj 100 141 list trim;
#X obj 102 73 route \$1;
#X connect 0 0 3 0;
#X connect 2 0 5 0;
#X connect 3 0 4 0;
#X connect 4 0 1 0;
#X connect 5 0 0 0;
#X coords 0 -1 1 1 15 15 2 100 100;
