#N canvas 109 535 450 357 10;
#X obj 98 178 \$1XYZ;
#N canvas 1083 422 363 494 datastructure 1;
#X obj 24 9 inlet;
#X obj 15 319 outlet;
#X obj 151 314 outlet;
#X obj 104 7 inlet;
#X obj 55 180 text get -s obj-array transform;
#X obj 55 201 unpack s f f f;
#X obj 91 319 outlet;
#X obj 55 135 f \$3;
#X connect 0 0 7 0;
#X connect 3 0 4 3;
#X connect 4 0 5 0;
#X connect 5 1 1 0;
#X connect 5 2 6 0;
#X connect 5 3 2 0;
#X connect 7 0 4 0;
#X restore 124 97 pd datastructure;
#X obj 98 74 t a b;
#X obj 99 274 list trim;
#X obj 98 8 r \$2Head;
#X obj 98 294 s \$2Head;
#X obj 217 26 r \$2Pt;
#X obj 98 29 route \$3;
#X obj 98 253 list prepend \$4;
#X connect 0 0 8 0;
#X connect 1 0 0 1;
#X connect 1 1 0 2;
#X connect 1 2 0 3;
#X connect 2 0 0 0;
#X connect 2 1 1 0;
#X connect 3 0 5 0;
#X connect 4 0 7 0;
#X connect 6 0 1 1;
#X connect 7 0 2 0;
#X connect 8 0 3 0;
