#N canvas 521 46 450 761 10;
#X obj 66 276 list prepend 0;
#X obj 67 451 pix_coordinate;
#N canvas 1353 589 450 300 coord 0;
#X obj 67 212 outlet;
#X obj 67 183 pack 0 0 1 0 1 1 0 1;
#X obj 139 216 pack 0 0 1 0 1 1 0 1;
#X obj 127 251 bng 15 250 50 0 empty empty empty 17 7 0 10 -262144
-1 -1;
#X obj 106 29 r texCoordPt;
#X obj 67 70 get texcoord-array tlx tly trx try blx bly brx bry;
#X obj 68 49 pointer;
#X obj 63 6 inlet;
#X obj 67 94 / 1000;
#X obj 109 94 / 1000;
#X obj 151 94 / 1000;
#X obj 194 94 / 1000;
#X obj 236 94 / 1000;
#X obj 279 94 / 1000;
#X obj 321 94 / 1000;
#X obj 364 94 / 1000;
#X connect 1 0 0 0;
#X connect 2 0 0 0;
#X connect 3 0 2 0;
#X connect 4 0 6 1;
#X connect 5 0 8 0;
#X connect 5 1 9 0;
#X connect 5 2 10 0;
#X connect 5 3 11 0;
#X connect 5 4 12 0;
#X connect 5 5 13 0;
#X connect 5 6 14 0;
#X connect 5 7 15 0;
#X connect 6 0 5 0;
#X connect 7 0 6 0;
#X connect 8 0 1 0;
#X connect 9 0 1 1;
#X connect 10 0 1 2;
#X connect 11 0 1 3;
#X connect 12 0 1 4;
#X connect 13 0 1 5;
#X connect 14 0 1 6;
#X connect 15 0 1 7;
#X restore 160 425 pd coord;
#X obj 67 401 t a b;
#X obj 67 423 pix_texture;
#X obj 67 355 list trim;
#X obj 67 377 route 0;
#X obj 66 60 t a b;
#X msg 256 363 rectangle 1;
#X msg 343 364 rectangle 0;
#X obj 136 85 s texViewFrame;
#N canvas 845 399 722 562 texViewMedia 0;
#X obj 21 15 inlet;
#X obj 21 425 outlet;
#X obj 127 218 metro 50;
#X obj 110 194 /;
#X msg 110 175 1000;
#X obj 60 14 r filmPt;
#X obj 132 153 t b a;
#X obj 127 236 f;
#X obj 354 162 -;
#X obj 172 256 mod;
#X obj 363 6 r media;
#X obj 197 276 +;
#X obj 336 79 route auto fps offset end frame;
#X obj 60 39 get film-array auto fps start end frame;
#X obj 426 162 r media;
#X obj 446 226 sel 0;
#X msg 446 247 0;
#X obj 427 267 t a a;
#X obj 454 203 t a b;
#X msg 499 207 1;
#X obj 240 313 spigot 1;
#X obj 220 173 tgl 15 0 empty empty empty 17 7 0 10 -262144 -1 -1 0
1;
#X obj 629 67 r filmPt;
#X obj 469 130 set film-array auto;
#X obj 491 149 set film-array fps;
#X obj 505 170 set film-array start;
#X obj 526 190 set film-array end;
#X obj 546 210 set film-array frame;
#X obj 363 28 route Sel;
#X obj 336 58 route;
#X msg 209 102 0;
#X obj 215 233 abs;
#X obj 160 237 + 1;
#X obj 63 309 r setMedia;
#X obj 427 182 route type;
#X obj 21 193 t a b;
#X obj 48 328 f;
#X obj 21 402 pix_buf;
#X obj 447 29 r setMedia;
#N canvas 66 92 450 300 texView-stream 0;
#X restore 7 449 pd texView-stream;
#X msg 48 347 set media-\$1;
#X obj 21 379 pix_buffer_read media-0;
#X connect 0 0 35 0;
#X connect 2 0 7 0;
#X connect 3 0 2 1;
#X connect 4 0 3 0;
#X connect 5 0 13 0;
#X connect 5 0 30 0;
#X connect 6 0 4 0;
#X connect 6 1 3 1;
#X connect 7 0 9 0;
#X connect 7 0 32 0;
#X connect 8 0 31 0;
#X connect 9 0 11 0;
#X connect 10 0 28 0;
#X connect 11 0 20 0;
#X connect 12 0 21 0;
#X connect 12 0 23 0;
#X connect 12 1 6 0;
#X connect 12 1 24 0;
#X connect 12 2 8 0;
#X connect 12 2 11 1;
#X connect 12 2 25 0;
#X connect 12 3 8 1;
#X connect 12 3 26 0;
#X connect 12 4 27 0;
#X connect 12 4 41 1;
#X connect 13 0 21 0;
#X connect 13 1 6 0;
#X connect 13 2 8 0;
#X connect 13 2 11 1;
#X connect 13 3 8 1;
#X connect 13 4 20 0;
#X connect 14 0 34 0;
#X connect 15 0 16 0;
#X connect 16 0 17 0;
#X connect 17 0 41 1;
#X connect 17 1 20 1;
#X connect 18 0 15 0;
#X connect 18 1 19 0;
#X connect 19 0 20 1;
#X connect 20 0 41 1;
#X connect 21 0 2 0;
#X connect 22 0 23 1;
#X connect 22 0 24 1;
#X connect 22 0 25 1;
#X connect 22 0 26 1;
#X connect 22 0 27 1;
#X connect 28 0 29 1;
#X connect 28 1 29 0;
#X connect 29 0 12 0;
#X connect 30 0 7 1;
#X connect 31 0 9 1;
#X connect 32 0 7 1;
#X connect 33 0 36 1;
#X connect 34 0 18 0;
#X connect 35 0 41 0;
#X connect 35 1 36 0;
#X connect 36 0 40 0;
#X connect 37 0 1 0;
#X connect 38 0 29 1;
#X connect 40 0 41 0;
#X connect 41 0 37 0;
#X restore 66 256 pd texViewMedia;
#N canvas 0 50 450 300 alpha 0;
#X obj 124 95 alpha;
#X obj 128 36 inlet;
#X obj 122 189 outlet;
#X connect 0 0 2 0;
#X connect 1 0 0 0;
#X restore 66 85 pd alpha;
#X obj 66 213 list trim;
#X obj 66 236 route 0;
#X obj 66 132 list trim;
#X obj 66 112 list prepend 1;
#X obj 67 470 list prepend 0;
#X obj 67 491 list trim;
#X obj 66 27 route \$2;
#X obj 66 6 r \$1Head;
#X obj 67 717 list trim;
#X obj 67 736 s objPartViewHead;
#X obj 68 573 list trim;
#X obj 68 615 route 0;
#X obj 67 696 list prepend \$3;
#X obj 66 152 s matView\$3Head;
#N canvas 536 555 450 300 matView\$3 0;
#X restore 66 174 pd matView\$3;
#X obj 66 194 r matView\$3Head;
#X obj 130 213 r matView\$3Foot;
#X obj 66 296 s texView\$3FxHead;
#N canvas 146 653 450 300 texViewFx\$3 0;
#X obj 100 100 fx/pix/nofx texView2 0 1;
#X restore 66 316 pd texViewFx\$3;
#X obj 67 336 r texView\$3FxHead;
#X obj 136 355 r texView\$3FxFoot;
#X obj 67 510 s transView\$3Head;
#N canvas 533 28 450 453 transView\$3 0;
#X restore 67 528 pd transView\$3;
#X obj 68 554 r transView\$3Head;
#X obj 107 595 r transView\$3Foot;
#X obj 68 636 s objView\$3Head;
#N canvas 533 28 450 453 objView\$3 0;
#X obj 100 100 geo/circle objView2;
#X restore 68 654 pd objView\$3;
#X obj 67 677 r objView\$3Foot;
#X connect 0 0 30 0;
#X connect 1 0 17 0;
#X connect 2 0 1 1;
#X connect 3 0 4 0;
#X connect 4 0 1 0;
#X connect 5 0 6 0;
#X connect 6 0 3 0;
#X connect 7 0 12 0;
#X connect 7 1 10 0;
#X connect 8 0 4 0;
#X connect 9 0 4 0;
#X connect 11 0 0 0;
#X connect 12 0 16 0;
#X connect 13 0 14 0;
#X connect 14 0 11 0;
#X connect 15 0 26 0;
#X connect 16 0 15 0;
#X connect 17 0 18 0;
#X connect 18 0 34 0;
#X connect 19 0 7 0;
#X connect 20 0 19 0;
#X connect 21 0 22 0;
#X connect 23 0 24 0;
#X connect 24 0 38 0;
#X connect 25 0 21 0;
#X connect 28 0 13 0;
#X connect 29 0 14 1;
#X connect 32 0 5 0;
#X connect 33 0 6 1;
#X connect 36 0 23 0;
#X connect 37 0 24 1;
#X connect 40 0 25 0;
