#N canvas 1035 533 462 333 10;
#X obj 98 232 circle 4;
#X obj 244 204 symbol;
#X msg 244 224 draw \$1;
#N canvas 1083 422 363 475 datastructure 1;
#X obj 24 9 inlet;
#X obj 24 140 list prepend;
#X obj 24 64 t b p;
#X obj 24 102 t a a;
#X obj 24 159 list trim;
#X obj 24 254 outlet;
#X obj 156 264 outlet;
#X obj 24 178 route 0 1;
#X msg 24 83 0 \, 1;
#X obj 24 227 get surf-param value;
#X obj 156 229 get surf-param value;
#X obj 24 121 element obj-array surf;
#X obj 24 44 list;
#X obj 104 7 inlet;
#X connect 0 0 12 0;
#X connect 1 0 4 0;
#X connect 2 0 8 0;
#X connect 2 1 11 1;
#X connect 3 0 11 0;
#X connect 3 1 1 1;
#X connect 4 0 7 0;
#X connect 7 0 9 0;
#X connect 7 1 10 0;
#X connect 8 0 3 0;
#X connect 9 0 5 0;
#X connect 10 0 6 0;
#X connect 11 0 1 0;
#X connect 12 0 2 0;
#X connect 13 0 12 1;
#X restore 124 97 pd datastructure;
#X msg 303 173 line;
#X msg 344 175 point;
#X obj 253 141 sel 0 1 2;
#X obj 98 74 t a b;
#X msg 244 171 default;
#X text 225 33 param: Size 2 0 100 0.1;
#X text 225 17 param: Draw 0 0 2 1;
#X obj 274 56 r \$1Pt;
#X obj 98 8 r \$1Head;
#X obj 98 294 s \$1Foot;
#X connect 0 0 13 0;
#X connect 1 0 2 0;
#X connect 2 0 0 0;
#X connect 3 0 0 1;
#X connect 3 1 6 0;
#X connect 4 0 1 0;
#X connect 5 0 1 0;
#X connect 6 0 8 0;
#X connect 6 1 4 0;
#X connect 6 2 5 0;
#X connect 7 0 0 0;
#X connect 7 1 3 0;
#X connect 8 0 1 0;
#X connect 11 0 3 1;
#X connect 12 0 7 0;
