#N canvas 620 701 450 300 10;
#X obj 53 256 cone 4 32;
#X obj 52 30 r \$1Geo;
#X obj 267 201 symbol;
#X msg 267 221 draw \$1;
#N canvas 936 616 313 435 datastructure 1;
#X obj 28 9 inlet;
#X obj 95 13 inlet;
#X obj 56 52 pointer;
#X obj 95 33 t p b p;
#X obj 54 164 list prepend;
#X obj 54 88 t b p;
#X obj 54 126 t a a;
#X obj 54 183 list trim;
#X obj 57 402 outlet;
#X obj 80 357 outlet;
#X obj 153 110 setsize object surf;
#X obj 54 145 element object surf;
#X obj 57 381 get surf-param value;
#X obj 79 337 get surf-param value;
#X obj 28 29 t b b;
#X msg 152 91 3;
#X msg 54 107 0 \, 1 \, 2;
#X obj 95 315 outlet;
#X obj 94 295 get surf-param value;
#X obj 54 202 route 0 1 2;
#X connect 0 0 14 0;
#X connect 1 0 3 0;
#X connect 2 0 5 0;
#X connect 3 0 2 1;
#X connect 3 1 15 0;
#X connect 3 2 10 1;
#X connect 4 0 7 0;
#X connect 5 0 16 0;
#X connect 5 1 11 1;
#X connect 6 0 11 0;
#X connect 6 1 4 1;
#X connect 7 0 19 0;
#X connect 11 0 4 0;
#X connect 12 0 8 0;
#X connect 13 0 9 0;
#X connect 14 1 2 0;
#X connect 15 0 10 0;
#X connect 16 0 6 0;
#X connect 18 0 17 0;
#X connect 19 0 12 0;
#X connect 19 1 13 0;
#X connect 19 2 18 0;
#X restore 80 97 pd datastructure;
#X obj 173 31 r \$1Pt;
#X msg 322 173 line;
#X msg 363 175 point;
#X obj 276 143 sel 0 1 2;
#X obj 53 58 t a b;
#X msg 267 173 default;
#X text 225 17 param: Draw 0 0 2 1;
#X text 225 33 param: Size 4 0 100 0.1;
#X text 226 50 param: Segments 32 0 1024 1;
#X connect 1 0 9 0;
#X connect 2 0 3 0;
#X connect 3 0 0 0;
#X connect 4 0 8 0;
#X connect 4 1 0 1;
#X connect 4 2 0 2;
#X connect 5 0 4 1;
#X connect 6 0 2 0;
#X connect 7 0 2 0;
#X connect 8 0 10 0;
#X connect 8 1 6 0;
#X connect 8 2 7 0;
#X connect 9 0 0 0;
#X connect 9 1 4 0;
#X connect 10 0 2 0;
