#N canvas 1001 746 450 300 10;
#X obj 88 256 cube 4;
#X obj 88 20 r \$1Geo;
#X obj 236 194 symbol;
#X msg 236 214 draw \$1;
#N canvas 499 170 787 474 datastructure 0;
#X obj 28 9 inlet;
#X obj 94 17 inlet;
#X obj 55 56 pointer;
#X obj 94 37 t p b p;
#X obj 86 115 == 0;
#X obj 54 75 t p b;
#X obj 54 134 spigot;
#X obj 86 95 \$2;
#X obj 54 229 list prepend;
#X obj 54 153 t b p;
#X obj 54 191 t a a;
#X obj 54 248 list trim;
#X obj 30 396 outlet;
#X obj 385 135 route \$3;
#X obj 168 376 outlet;
#X obj 384 113 r \$0fx;
#X obj 54 267 route 0 1;
#X msg 54 172 0 \, 1;
#X msg 151 95 2;
#X obj 152 114 setsize object surf;
#X obj 54 210 element object surf;
#X obj 36 347 get surf-param value;
#X obj 168 349 get surf-param value;
#X obj 344 384 set surf-param value;
#X obj 473 385 set surf-param value;
#X obj 28 29 t b b;
#X obj 385 160 route Draw Size;
#X connect 0 0 25 0;
#X connect 1 0 3 0;
#X connect 2 0 5 0;
#X connect 3 0 2 1;
#X connect 3 1 18 0;
#X connect 3 2 19 1;
#X connect 4 0 6 1;
#X connect 5 0 6 0;
#X connect 5 1 7 0;
#X connect 6 0 9 0;
#X connect 7 0 4 0;
#X connect 8 0 11 0;
#X connect 9 0 17 0;
#X connect 9 1 20 1;
#X connect 10 0 20 0;
#X connect 10 1 8 1;
#X connect 11 0 16 0;
#X connect 13 0 26 0;
#X connect 15 0 13 0;
#X connect 16 0 21 0;
#X connect 16 0 23 1;
#X connect 16 1 22 0;
#X connect 16 1 24 1;
#X connect 17 0 10 0;
#X connect 18 0 19 0;
#X connect 20 0 8 0;
#X connect 21 0 12 0;
#X connect 22 0 14 0;
#X connect 25 1 2 0;
#X connect 26 0 23 0;
#X connect 26 1 24 0;
#X restore 116 87 pd datastructure;
#X obj 209 21 r \$1Pt;
#X msg 322 171 line;
#X msg 363 173 point;
#X obj 272 139 sel 0 1 2;
#X obj 89 48 t a b;
#X msg 263 169 default;
#X text 267 5 param: Draw 0 0 2 1;
#X text 267 21 param: Size 4 0 100 0.1;
#X connect 1 0 9 0;
#X connect 2 0 3 0;
#X connect 3 0 0 0;
#X connect 4 0 8 0;
#X connect 4 1 0 1;
#X connect 5 0 4 1;
#X connect 6 0 2 0;
#X connect 7 0 2 0;
#X connect 8 0 10 0;
#X connect 8 1 6 0;
#X connect 8 2 7 0;
#X connect 9 0 0 0;
#X connect 9 1 4 0;
#X connect 10 0 2 0;
