#N canvas 977 587 527 292 10;
#X obj 147 278 cylinder 2 32;
#X obj 53 41 r \$1Geo;
#X obj 294 111 r /\$1/\$2/geo;
#X obj 286 143 route Draw Size Segments;
#X obj 8 234 symbol;
#X msg 8 254 draw \$1;
#N canvas 1083 434 830 645 datastructure 0;
#X obj 28 9 inlet;
#X obj 93 93 inlet;
#X obj 54 132 pointer;
#X obj 93 113 t p b p;
#X obj 53 305 list prepend;
#X obj 53 229 t b p;
#X obj 53 267 t a a;
#X obj 53 324 list trim;
#X obj 39 553 outlet;
#X obj 534 258 route \$3;
#X obj 177 533 outlet;
#X obj 533 236 r \$0fx;
#X obj 151 190 setsize object surf;
#X obj 53 286 element object surf;
#X obj 43 446 get surf-param value;
#X obj 175 448 get surf-param value;
#X obj 493 507 set surf-param value;
#X obj 622 508 set surf-param value;
#X obj 28 29 t b b;
#X msg 150 171 3;
#X msg 53 248 0 \, 1 \, 2;
#X obj 52 343 route 0 1 2;
#X obj 314 522 outlet;
#X obj 307 453 get surf-param value;
#X obj 652 461 set surf-param value;
#X obj 534 283 route Draw Size Segments;
#X connect 0 0 18 0;
#X connect 1 0 3 0;
#X connect 2 0 5 0;
#X connect 3 0 2 1;
#X connect 3 1 19 0;
#X connect 3 2 12 1;
#X connect 4 0 7 0;
#X connect 5 0 20 0;
#X connect 5 1 13 1;
#X connect 6 0 13 0;
#X connect 6 1 4 1;
#X connect 7 0 21 0;
#X connect 9 0 25 0;
#X connect 11 0 9 0;
#X connect 13 0 4 0;
#X connect 14 0 8 0;
#X connect 15 0 10 0;
#X connect 18 1 2 0;
#X connect 19 0 12 0;
#X connect 20 0 6 0;
#X connect 21 0 14 0;
#X connect 21 0 16 1;
#X connect 21 1 15 0;
#X connect 21 1 17 1;
#X connect 21 2 24 1;
#X connect 21 2 23 0;
#X connect 23 0 22 0;
#X connect 25 0 16 0;
#X connect 25 1 17 0;
#X connect 25 2 24 0;
#X restore 154 143 pd datastructure;
#X msg 70 211 line;
#X obj 44 179 sel 0 1 2;
#X obj 109 68 t a b;
#X obj 241 113 r \$1Pt;
#X msg 35 209 fill;
#X msg 103 212 point;
#X text 352 40 param: Segments 32 0 1024 1;
#X text 351 23 param: Size 4 0 100 0.1;
#X text 351 7 param: Draw 0 0 2 1;
#X connect 1 0 9 0;
#X connect 2 0 3 0;
#X connect 3 0 8 0;
#X connect 3 1 0 1;
#X connect 3 2 0 2;
#X connect 4 0 5 0;
#X connect 5 0 0 0;
#X connect 6 0 8 0;
#X connect 6 1 0 1;
#X connect 6 2 0 2;
#X connect 7 0 4 0;
#X connect 8 0 11 0;
#X connect 8 1 7 0;
#X connect 8 2 12 0;
#X connect 9 0 0 0;
#X connect 9 1 6 0;
#X connect 10 0 6 1;
#X connect 11 0 4 0;
#X connect 12 0 4 0;
