#N canvas 76 379 565 301 10;
#X obj 169 267 disk 4 32;
#X obj 164 42 r \$1Geo;
#X obj 28 221 symbol;
#X msg 28 241 draw \$1;
#N canvas 1077 435 352 616 datastructure 0;
#X obj 28 9 inlet;
#X obj 93 93 inlet;
#X obj 54 132 pointer;
#X obj 93 113 t p b p;
#X obj 53 305 list prepend;
#X obj 53 229 t b p;
#X obj 53 267 t a a;
#X obj 53 324 list trim;
#X obj 34 565 outlet;
#X obj 58 521 outlet;
#X obj 151 190 setsize object surf;
#X obj 53 286 element object surf;
#X obj 34 544 get surf-param value;
#X obj 59 502 get surf-param value;
#X obj 28 29 t b b;
#X msg 150 171 4;
#X msg 53 248 0 \, 1 \, 2 \, 3;
#X obj 53 343 route 0 1 2 3;
#X obj 72 483 outlet;
#X obj 96 439 outlet;
#X obj 72 462 get surf-param value;
#X obj 97 420 get surf-param value;
#X connect 0 0 14 0;
#X connect 1 0 3 0;
#X connect 2 0 5 0;
#X connect 3 0 2 1;
#X connect 3 1 15 0;
#X connect 3 2 10 1;
#X connect 4 0 7 0;
#X connect 5 0 16 0;
#X connect 5 1 11 1;
#X connect 6 0 11 0;
#X connect 6 1 4 1;
#X connect 7 0 17 0;
#X connect 11 0 4 0;
#X connect 12 0 8 0;
#X connect 13 0 9 0;
#X connect 14 1 2 0;
#X connect 15 0 10 0;
#X connect 16 0 6 0;
#X connect 17 0 12 0;
#X connect 17 1 13 0;
#X connect 17 2 20 0;
#X connect 17 3 21 0;
#X connect 20 0 18 0;
#X connect 21 0 19 0;
#X restore 194 117 pd datastructure;
#X obj 285 43 r \$1Pt;
#X msg 83 193 line;
#X msg 124 195 point;
#X obj 37 163 sel 0 1 2;
#X obj 165 70 t a b;
#X msg 28 193 fill;
#X text 356 46 param: Segments 32 0 1024 1;
#X text 355 13 param: Draw 0 0 2 1;
#X text 355 29 param: Size 4 0 99.99 0.1;
#X text 357 62 param: r 1 0 99.99 0.1;
#X connect 1 0 9 0;
#X connect 2 0 3 0;
#X connect 3 0 0 0;
#X connect 4 0 0 2;
#X connect 4 1 8 0;
#X connect 4 2 0 1;
#X connect 4 3 0 3;
#X connect 5 0 4 1;
#X connect 6 0 2 0;
#X connect 7 0 2 0;
#X connect 8 0 10 0;
#X connect 8 1 6 0;
#X connect 8 2 7 0;
#X connect 9 0 0 0;
#X connect 9 1 4 0;
#X connect 10 0 2 0;
