#N canvas 1013 525 815 358 10;
#X obj 26 10 r \$1Geo;
#X obj 288 129 r /\$1/\$2/geo;
#N canvas 1069 465 390 582 datastructure 1;
#X obj 28 9 inlet;
#X obj 94 15 inlet;
#X obj 55 54 pointer;
#X obj 94 35 t p b p;
#X obj 55 163 list prepend;
#X obj 55 87 t b p;
#X obj 55 125 t a a;
#X obj 55 182 list trim;
#X obj 45 557 outlet;
#X obj 57 512 outlet;
#X obj 228 119 setsize object surf;
#X obj 55 144 element object surf;
#X obj 45 534 get surf-param value;
#X obj 57 491 get surf-param value;
#X obj 28 29 t b b;
#X obj 72 470 outlet;
#X obj 72 450 get surf-param value;
#X obj 86 429 outlet;
#X obj 86 409 get surf-param value;
#X obj 100 386 outlet;
#X obj 100 366 get surf-param value;
#X obj 114 345 outlet;
#X obj 114 325 get surf-param value;
#X msg 55 106 0 \, 1 \, 2 \, 3 \, 4 \, 5 \, 6;
#X msg 227 100 7;
#X obj 54 201 route 0 1 2 3 4 5 6;
#X obj 137 306 outlet;
#X obj 137 286 get surf-param value;
#X connect 0 0 14 0;
#X connect 1 0 3 0;
#X connect 2 0 5 0;
#X connect 3 0 2 1;
#X connect 3 1 24 0;
#X connect 3 2 10 1;
#X connect 4 0 7 0;
#X connect 5 0 23 0;
#X connect 5 1 11 1;
#X connect 6 0 11 0;
#X connect 6 1 4 1;
#X connect 7 0 25 0;
#X connect 11 0 4 0;
#X connect 12 0 8 0;
#X connect 13 0 9 0;
#X connect 14 1 2 0;
#X connect 16 0 15 0;
#X connect 18 0 17 0;
#X connect 20 0 19 0;
#X connect 22 0 21 0;
#X connect 23 0 6 0;
#X connect 24 0 10 0;
#X connect 25 0 12 0;
#X connect 25 1 13 0;
#X connect 25 2 16 0;
#X connect 25 3 18 0;
#X connect 25 4 20 0;
#X connect 25 5 22 0;
#X connect 25 6 27 0;
#X connect 27 0 26 0;
#X restore 45 147 pd datastructure;
#X obj 302 235 / 64;
#X obj 138 127 r \$1Pt;
#X obj 26 327 model;
#X msg 45 253 open \$1;
#X text 137 35 parameters: Obj Tex Mat Smooth Rescale Group;
#N canvas 942 483 557 292 selector 0;
#X obj 58 112 sys_gui;
#X obj 58 43 getdir;
#X obj 58 62 pack s \$0;
#X obj 147 140 r \$0model;
#N canvas 87 598 337 481 select 0;
#X obj 259 13 inlet;
#X obj 57 139 mod;
#X obj 74 185 list;
#X obj 75 205 list split 1;
#X obj 158 76 list length;
#X obj 74 228 list split 1;
#X obj 253 50 t a a;
#X obj 57 158 t b a;
#X obj 22 17 inlet float;
#X obj 75 253 outlet;
#X floatatom 85 73 5 0 0 0 - - -, f 5;
#X connect 0 0 6 0;
#X connect 1 0 7 0;
#X connect 2 0 3 0;
#X connect 3 1 5 0;
#X connect 4 0 1 1;
#X connect 5 0 9 0;
#X connect 6 0 4 0;
#X connect 6 1 2 1;
#X connect 7 0 2 0;
#X connect 7 1 3 1;
#X connect 8 0 1 0;
#X connect 10 0 1 0;
#X restore 27 250 pd select;
#X obj 27 138 inlet float;
#X obj 27 269 outlet symbol;
#X msg 58 93 pdsend "\$2model [glob -directory \$1/model *.obj]";
#X obj 58 19 r \$0init;
#X obj 27 171 spigot;
#X msg 77 159 1;
#X obj 27 211 change;
#X obj 148 161 t b a;
#X obj 27 192 + 1;
#X obj 27 231 - 1;
#X connect 1 0 2 0;
#X connect 2 0 7 0;
#X connect 3 0 12 0;
#X connect 4 0 6 0;
#X connect 5 0 9 0;
#X connect 7 0 0 0;
#X connect 8 0 1 0;
#X connect 9 0 13 0;
#X connect 10 0 9 1;
#X connect 11 0 14 0;
#X connect 12 0 10 0;
#X connect 12 1 4 1;
#X connect 13 0 11 0;
#X connect 14 0 4 0;
#X restore 45 232 pd selector;
#X obj 26 33 t a b b;
#X obj 65 73 change;
#X obj 65 92 bng 15 250 50 0 empty empty empty 17 7 0 10 -262144 -1
-1;
#X msg 65 54 1;
#X obj 65 110 s \$0init;
#X msg 131 232 object \$1;
#X msg 209 233 material \$1;
#X msg 302 255 smooth \$1;
#X msg 404 248 rescale \$1;
#X msg 494 249 group \$1;
#X text 586 23 param: Obj 0 0 99999 1;
#X obj 284 155 route Obj Tex Mat Smooth Rescale Group Revert;
#X msg 569 249 revert \$1;
#X text 586 39 param: Tex 0 0 2 1;
#X text 587 56 param: Mat 0 0 1 1;
#X text 587 70 param: Smooth 0 0 1 0.1;
#X text 588 84 param: Rescale 0 0 1 1;
#X text 588 98 param: Group 0 0 2 1;
#X text 588 114 param: Revert 0 0 1 1;
#X connect 0 0 9 0;
#X connect 1 0 20 0;
#X connect 2 0 8 0;
#X connect 2 1 14 0;
#X connect 2 2 15 0;
#X connect 2 3 3 0;
#X connect 2 4 17 0;
#X connect 2 5 18 0;
#X connect 3 0 16 0;
#X connect 4 0 2 1;
#X connect 6 0 5 0;
#X connect 8 0 6 0;
#X connect 9 0 5 0;
#X connect 9 1 2 0;
#X connect 9 2 12 0;
#X connect 10 0 11 0;
#X connect 11 0 13 0;
#X connect 12 0 10 0;
#X connect 14 0 5 0;
#X connect 15 0 5 0;
#X connect 16 0 5 0;
#X connect 17 0 5 0;
#X connect 18 0 5 0;
#X connect 20 0 8 0;
#X connect 20 1 14 0;
#X connect 20 2 15 0;
#X connect 20 3 3 0;
#X connect 20 4 17 0;
#X connect 20 5 18 0;
#X connect 20 6 21 0;
#X connect 21 0 5 0;
