#N canvas 1007 709 539 308 10;
#X obj 47 264 rectangle 4 3;
#X obj 37 26 r \$1Geo;
#X obj 274 213 symbol;
#X msg 274 233 draw \$1;
#N canvas 213 264 830 645 datastructure 0;
#X obj 28 9 inlet;
#X obj 93 93 inlet;
#X obj 54 132 pointer;
#X obj 93 113 t p b p;
#X obj 53 305 list prepend;
#X obj 53 229 t b p;
#X obj 53 267 t a a;
#X obj 53 324 list trim;
#X obj 39 553 outlet;
#X obj 534 258 route \$3;
#X obj 177 533 outlet;
#X obj 533 236 r \$0fx;
#X obj 151 190 setsize object surf;
#X obj 53 286 element object surf;
#X obj 43 446 get surf-param value;
#X obj 175 448 get surf-param value;
#X obj 471 508 set surf-param value;
#X obj 622 508 set surf-param value;
#X obj 28 29 t b b;
#X msg 150 171 3;
#X msg 53 248 0 \, 1 \, 2;
#X obj 53 344 route 0 1 2;
#X obj 306 534 outlet;
#X obj 304 449 get surf-param value;
#X obj 534 283 route Draw Width Height;
#X obj 646 460 set surf-param value;
#X connect 0 0 18 0;
#X connect 1 0 3 0;
#X connect 2 0 5 0;
#X connect 3 0 2 1;
#X connect 3 1 19 0;
#X connect 3 2 12 1;
#X connect 4 0 7 0;
#X connect 5 0 20 0;
#X connect 5 1 13 1;
#X connect 6 0 13 0;
#X connect 6 1 4 1;
#X connect 7 0 21 0;
#X connect 9 0 24 0;
#X connect 11 0 9 0;
#X connect 13 0 4 0;
#X connect 14 0 8 0;
#X connect 15 0 10 0;
#X connect 18 1 2 0;
#X connect 19 0 12 0;
#X connect 20 0 6 0;
#X connect 21 0 14 0;
#X connect 21 0 16 1;
#X connect 21 1 15 0;
#X connect 21 1 17 1;
#X connect 21 2 23 0;
#X connect 21 2 25 1;
#X connect 23 0 22 0;
#X connect 24 0 16 0;
#X connect 24 1 17 0;
#X connect 24 2 25 0;
#X restore 65 93 pd datastructure;
#X obj 219 31 r \$1Pt;
#X msg 331 180 line;
#X msg 372 182 point;
#X obj 273 145 sel 0 1 2;
#X obj 38 54 t a b;
#X msg 273 179 default;
#X text 289 28 param: Draw 0 0 2 1;
#X text 289 42 param: Width 4 0 999 0.1;
#X text 289 56 param: Height 3 0 999 0.1;
#X connect 1 0 9 0;
#X connect 2 0 3 0;
#X connect 3 0 0 0;
#X connect 4 0 8 0;
#X connect 4 1 0 1;
#X connect 4 2 0 2;
#X connect 5 0 4 1;
#X connect 6 0 2 0;
#X connect 7 0 2 0;
#X connect 8 0 10 0;
#X connect 8 1 6 0;
#X connect 8 2 7 0;
#X connect 9 0 0 0;
#X connect 9 1 4 0;
#X connect 10 0 2 0;
