#N canvas 1006 154 850 643 10;
#X obj 179 330 translateXYZ;
#X obj 179 135 repeat 100;
#X obj 160 177 separator;
#X floatatom 224 561 5 0 0 0 - - -;
#X obj 17 115 s \$0pixNumber;
#X obj 236 7 r \$0pixNumber;
#X floatatom 10 60 5 0 100 0 - - -;
#X floatatom 6 162 5 0 0 0 - - -;
#N canvas 1273 153 467 518 pixfilter 0;
#X obj 162 181 pix_data;
#N canvas 629 457 450 300 pixCounter 0;
#X obj 149 127 sel 0;
#X obj 149 147 f;
#X obj 208 195 + 1;
#X obj 268 181 mod 10;
#X obj 149 106 mod 10;
#X obj 105 35 f;
#X obj 116 62 + 1;
#X obj 149 84 mod 100;
#X obj 104 175 mod 10;
#X obj 104 194 / 10;
#X obj 208 215 / 10;
#X obj 104 220 pack;
#X obj 104 239 outlet;
#X obj 103 11 inlet;
#X obj 256 30 r \$0pixNumber;
#X obj 251 133 pow 0.5;
#X connect 0 0 1 0;
#X connect 1 0 2 0;
#X connect 2 0 3 0;
#X connect 2 0 10 0;
#X connect 3 0 1 1;
#X connect 4 0 0 0;
#X connect 5 0 6 0;
#X connect 5 0 8 0;
#X connect 6 0 7 0;
#X connect 7 0 5 1;
#X connect 7 0 4 0;
#X connect 8 0 9 0;
#X connect 9 0 11 0;
#X connect 10 0 11 1;
#X connect 11 0 12 0;
#X connect 13 0 5 0;
#X connect 14 0 7 1;
#X connect 14 0 15 0;
#X connect 15 0 8 1;
#X connect 15 0 9 1;
#X connect 15 0 3 1;
#X connect 15 0 10 1;
#X connect 15 0 4 1;
#X restore 216 103 pd pixCounter;
#X obj 192 157 unpack;
#X obj 162 65 t b b;
#X obj 162 44 inlet;
#X obj 177 103 inlet;
#X obj 162 467 outlet;
#X obj 216 122 t a a;
#X obj 184 245 unpack f f f;
#X obj 180 346 &;
#X obj 179 370 &;
#X obj 269 416 mux 0 1 2 3 4;
#X obj 304 301 < 0.1;
#X obj 326 335 &;
#X obj 325 359 &;
#X obj 346 389 inlet;
#X obj 210 301 > 0.5;
#X obj 252 301 > 0.5;
#X obj 169 301 > 0.5;
#X obj 272 245 inlet;
#X obj 344 301 < 0.1;
#X obj 385 301 < 0.1;
#X obj 260 197 s \$0pixColor;
#X obj 304 146 s \$0pixXY;
#X connect 0 1 8 0;
#X connect 0 1 22 0;
#X connect 1 0 7 0;
#X connect 2 0 0 2;
#X connect 2 1 0 3;
#X connect 3 0 0 0;
#X connect 3 1 1 0;
#X connect 4 0 3 0;
#X connect 5 0 0 1;
#X connect 7 0 2 0;
#X connect 7 1 23 0;
#X connect 8 0 12 0;
#X connect 8 0 18 0;
#X connect 8 1 16 0;
#X connect 8 1 20 0;
#X connect 8 2 17 0;
#X connect 8 2 21 0;
#X connect 9 0 10 0;
#X connect 10 0 11 3;
#X connect 11 0 6 0;
#X connect 12 0 13 0;
#X connect 13 0 14 0;
#X connect 14 0 11 4;
#X connect 15 0 11 5;
#X connect 16 0 9 1;
#X connect 16 0 11 1;
#X connect 17 0 10 1;
#X connect 17 0 11 2;
#X connect 18 0 9 0;
#X connect 18 0 11 0;
#X connect 19 0 18 1;
#X connect 19 0 16 1;
#X connect 19 0 17 1;
#X connect 20 0 13 1;
#X connect 21 0 14 1;
#X restore 242 175 pd pixfilter;
#X obj 301 163 hradio 10 1 0 5 empty empty empty 0 -8 0 10 -262144
-1 -1 2;
#X text 298 144 r g b w black;
#X obj 197 196 spigot;
#X floatatom 276 135 5 0 1 0 - - -;
#N canvas 82 576 762 288 gemwin 0;
#X obj 78 225 gemwin;
#X obj 67 89 outlet;
#X obj 67 10 inlet;
#X obj 67 41 route create;
#X msg 67 70 set destroy;
#X msg 142 68 set create;
#X msg 256 112 destroy;
#X obj 323 10 gemhead;
#X msg 410 149 1 1 1;
#X obj 323 171 world_light;
#X obj 332 101 tgl 20 0 empty \$0-onoff empty 17 7 0 10 -262144 -1
-1 0 1;
#X floatatom 389 8 5 0 0 0 - - -;
#X floatatom 351 47 5 0 0 0 - - -;
#X obj 323 76 rotateXYZ -70 -60 0;
#X obj 29 175 r \$0gemwin;
#X msg 409 126 0.1 0.1 0.1;
#X msg 79 201 reset \, dimen 1024 728 \, create \, lighting 1 \, 1
;
#X msg 293 230 frame 24;
#X connect 2 0 3 0;
#X connect 3 0 4 0;
#X connect 3 0 16 0;
#X connect 3 1 5 0;
#X connect 3 1 6 0;
#X connect 4 0 1 0;
#X connect 5 0 1 0;
#X connect 6 0 0 0;
#X connect 7 0 13 0;
#X connect 8 0 9 1;
#X connect 10 0 9 0;
#X connect 11 0 13 2;
#X connect 12 0 13 1;
#X connect 13 0 9 0;
#X connect 14 0 0 0;
#X connect 15 0 9 1;
#X connect 16 0 0 0;
#X connect 17 0 0 0;
#X restore 11 32 pd gemwin;
#X msg 11 13 destroy;
#X obj 179 372 rotateXYZ;
#X obj 404 179 unpack;
#X obj 404 201 * 360;
#X obj 443 201 * 360;
#N canvas 647 2 450 483 autoRotate 0;
#X obj 103 47 inlet;
#X obj 151 48 inlet;
#X obj 247 245 inlet;
#X obj 235 101 metro 100;
#X obj 369 51 inlet;
#X obj 106 382 outlet;
#X obj 235 194 f;
#X obj 218 268 + 1;
#X obj 186 310 mod 360;
#X obj 247 65 > 0;
#X obj 280 188 spigot 1;
#X obj 317 149 == 1;
#X obj 303 235 spigot 1;
#X obj 378 152 == 2;
#X obj 279 271 - 1;
#X obj 106 338 +;
#X obj 286 80 inlet;
#X obj 170 378 outlet;
#X obj 170 334 +;
#X obj 205 147 sel 0;
#X msg 196 171 0;
#X connect 0 0 15 0;
#X connect 1 0 18 0;
#X connect 2 0 7 1;
#X connect 2 0 14 1;
#X connect 3 0 6 0;
#X connect 4 0 11 0;
#X connect 4 0 13 0;
#X connect 4 0 9 0;
#X connect 4 0 19 0;
#X connect 6 0 10 0;
#X connect 6 0 12 0;
#X connect 7 0 8 0;
#X connect 8 0 18 1;
#X connect 8 0 15 1;
#X connect 8 0 6 1;
#X connect 9 0 3 0;
#X connect 10 0 7 0;
#X connect 11 0 10 1;
#X connect 12 0 14 0;
#X connect 13 0 12 1;
#X connect 14 0 8 0;
#X connect 15 0 5 0;
#X connect 16 0 3 1;
#X connect 18 0 17 0;
#X connect 19 0 20 0;
#X connect 20 0 6 1;
#X connect 20 0 18 1;
#X connect 20 0 15 1;
#X restore 411 265 pd autoRotate;
#X obj 549 256 hradio 10 1 0 3 empty empty empty 0 -8 0 10 -262144
-1 -1 1;
#X floatatom 449 225 5 0 0 0 - - -;
#X floatatom 467 247 5 0 0 0 - - -;
#X text 482 223 coef;
#X text 502 247 speed;
#X text 579 273 dir;
#N canvas 1033 108 488 262 pixXYZ 0;
#X obj 106 188 outlet;
#X obj 61 187 outlet;
#X obj 67 64 unpack;
#X obj 150 189 outlet;
#X obj 40 44 t b a;
#X obj 100 117 * 6;
#X obj 100 151 - 3;
#X obj 186 95 / 2;
#X obj 181 58 * 6;
#X obj 181 28 max 1;
#X obj 63 113 * 8;
#X obj 62 150 - 4;
#X obj 40 25 r \$0pixXY;
#X connect 2 0 10 0;
#X connect 2 1 5 0;
#X connect 4 1 2 0;
#X connect 5 0 6 0;
#X connect 6 0 0 0;
#X connect 7 0 6 1;
#X connect 7 0 11 1;
#X connect 8 0 5 1;
#X connect 8 0 7 0;
#X connect 8 0 10 1;
#X connect 9 0 8 0;
#X connect 10 0 11 0;
#X connect 11 0 1 0;
#X connect 12 0 4 0;
#X restore 291 215 pd pixXYZ;
#X obj 125 346 f;
#X obj 153 347 + 1;
#X msg 140 322 0;
#X obj 110 366 f;
#X obj 195 217 t b a;
#X obj 107 85 gemhead 50;
#X obj 13 83 pow 2;
#N canvas 556 562 722 353 colorMode 0;
#X obj 118 35 inlet;
#X obj 286 21 inlet;
#X obj 118 308 outlet;
#X obj 118 125 spigot 1;
#X obj 139 100 ==;
#X obj 145 149 r \$0pixColor;
#X obj 449 52 unpack;
#X obj 594 28 r \$0pixNumber;
#X obj 385 216 pix_crop;
#X obj 635 125 /;
#X obj 635 79 t b a;
#X obj 512 29 r \$0imgsiz;
#X obj 512 51 unpack;
#X obj 591 124 /;
#X obj 591 78 t b a;
#X obj 573 181 *;
#X obj 617 182 *;
#X obj 594 47 pow 0.5;
#X obj 385 236 pix_texture;
#X obj 491 118 *;
#X obj 535 119 *;
#X obj 286 82 spigot;
#X obj 331 60 == 1;
#X obj 447 28 r \$0pixXY;
#X obj 249 180 pix_buffer_read \$0cam;
#X obj 287 102 t a b;
#X obj 372 160 f;
#X obj 390 140 r \$0source;
#X obj 576 236 +;
#X obj 603 236 +;
#X floatatom 632 217 5 0 0 0 - - -;
#X floatatom 670 218 5 0 0 0 - - -;
#X obj 118 237 color;
#X connect 0 0 3 0;
#X connect 0 0 21 0;
#X connect 1 0 4 0;
#X connect 1 0 22 0;
#X connect 3 0 32 0;
#X connect 4 0 3 1;
#X connect 5 0 32 1;
#X connect 6 0 19 0;
#X connect 6 1 20 0;
#X connect 7 0 17 0;
#X connect 8 0 18 0;
#X connect 9 0 8 2;
#X connect 9 0 16 1;
#X connect 10 0 9 0;
#X connect 10 1 9 1;
#X connect 11 0 12 0;
#X connect 12 0 13 0;
#X connect 12 1 9 0;
#X connect 13 0 8 1;
#X connect 13 0 15 1;
#X connect 14 0 13 0;
#X connect 14 1 13 1;
#X connect 15 0 28 0;
#X connect 16 0 29 0;
#X connect 17 0 14 0;
#X connect 17 0 10 0;
#X connect 17 0 20 1;
#X connect 17 0 19 1;
#X connect 18 0 2 0;
#X connect 19 0 15 0;
#X connect 20 0 16 0;
#X connect 21 0 25 0;
#X connect 22 0 21 1;
#X connect 23 0 6 0;
#X connect 24 0 8 0;
#X connect 25 0 24 0;
#X connect 25 1 26 0;
#X connect 26 0 24 1;
#X connect 27 0 26 1;
#X connect 28 0 8 3;
#X connect 29 0 8 4;
#X connect 30 0 28 1;
#X connect 31 0 29 1;
#X connect 32 0 2 0;
#X restore 179 442 pd colorMode;
#X obj 396 101 r \$0pixXY;
#X obj 198 430 hradio 10 1 0 2 empty empty empty 0 -8 0 10 -262144
-1 -1 0;
#X text 201 414 object for images only;
#X obj 179 155 t a b;
#X obj 304 487 r \$0texDimen;
#X obj 224 541 / 5;
#X obj 179 580 cube 0.1;
#X obj 641 304 pix_film;
#X obj 562 472 pix_data;
#X msg 642 272 open \$1;
#X obj 717 213 openpanel;
#X obj 710 192 bng 15 250 50 0 empty empty empty 17 7 0 10 -262144
-1 -1;
#X floatatom 702 303 5 0 0 0 - - -;
#X obj 107 105 t b a b a;
#X msg 705 272 auto \$1;
#X obj 716 249 tgl 15 0 empty empty empty 17 7 0 10 -262144 -1 -1 1
1;
#X obj 675 167 gemhead 100;
#X obj 756 305 t a;
#X obj 453 386 t b b;
#X obj 603 421 unpack;
#X obj 619 396 r \$0pixXY;
#X obj 612 532 * 360;
#X floatatom 666 526 5 0 0 0 - - -;
#X floatatom 287 344 5 0 0 0 - - -;
#X floatatom 265 579 5 0 0 0 - - -;
#X obj 409 130 spigot;
#X obj 111 391 s \$0idx;
#X obj 599 499 spigot;
#X obj 637 474 tgl 15 0 empty empty empty 17 7 0 10 -262144 -1 -1 1
1;
#X obj 73 574 cylinder;
#X floatatom 110 541 5 0 0 0 - - -;
#X floatatom 117 515 5 0 0 0 - - -;
#X obj 253 114 r \$1Geo;
#X obj 493 56 r /\$1/\$2/geo;
#X obj 492 79 route rotate;
#X obj 489 99 unpack f f f f;
#X obj 630 28 r /\$1/\$2/geo;
#X obj 629 51 route rotate;
#X obj 460 127 == 1;
#X obj 704 377 == 0;
#X obj 635 88 route movie;
#X obj 757 98 r \$1texPt;
#X obj 635 119 element object media;
#X obj 634 139 get media-array filename;
#X connect 0 0 15 0;
#X connect 1 0 38 0;
#X connect 2 0 11 0;
#X connect 3 0 41 1;
#X connect 5 0 1 1;
#X connect 6 0 33 0;
#X connect 8 0 11 1;
#X connect 9 0 8 3;
#X connect 11 0 31 0;
#X connect 12 0 8 2;
#X connect 13 0 14 0;
#X connect 14 0 13 0;
#X connect 15 0 34 0;
#X connect 16 0 17 0;
#X connect 16 1 18 0;
#X connect 17 0 19 0;
#X connect 18 0 19 1;
#X connect 19 0 15 1;
#X connect 19 1 15 2;
#X connect 20 0 19 4;
#X connect 21 0 19 2;
#X connect 22 0 19 3;
#X connect 26 0 0 1;
#X connect 26 1 0 2;
#X connect 26 2 0 3;
#X connect 27 0 28 0;
#X connect 27 0 30 1;
#X connect 28 0 27 1;
#X connect 29 0 27 1;
#X connect 30 0 61 0;
#X connect 31 0 27 0;
#X connect 31 1 0 0;
#X connect 32 0 48 0;
#X connect 33 0 7 0;
#X connect 33 0 4 0;
#X connect 34 0 41 0;
#X connect 35 0 60 0;
#X connect 36 0 34 1;
#X connect 38 0 2 0;
#X connect 38 1 8 0;
#X connect 38 1 53 0;
#X connect 40 0 3 0;
#X connect 42 0 43 1;
#X connect 42 2 52 0;
#X connect 43 2 62 0;
#X connect 44 0 42 0;
#X connect 45 0 44 0;
#X connect 46 0 45 0;
#X connect 47 0 42 1;
#X connect 48 0 30 0;
#X connect 48 1 1 0;
#X connect 48 2 29 0;
#X connect 49 0 42 0;
#X connect 50 0 49 0;
#X connect 51 0 42 0;
#X connect 52 0 42 1;
#X connect 53 0 43 0;
#X connect 54 0 43 2;
#X connect 54 1 43 3;
#X connect 55 0 54 0;
#X connect 56 0 15 1;
#X connect 56 0 15 2;
#X connect 57 0 56 1;
#X connect 58 0 15 2;
#X connect 60 0 16 0;
#X connect 62 0 56 0;
#X connect 63 0 62 1;
#X connect 65 0 64 2;
#X connect 66 0 64 1;
#X connect 67 0 8 1;
#X connect 68 0 69 0;
#X connect 69 0 70 0;
#X connect 69 1 75 0;
#X connect 70 0 73 0;
#X connect 70 0 74 0;
#X connect 70 1 21 0;
#X connect 70 2 22 0;
#X connect 70 3 20 0;
#X connect 71 0 72 0;
#X connect 73 0 60 1;
#X connect 74 0 63 0;
#X connect 75 0 77 0;
#X connect 76 0 77 1;
#X connect 77 0 78 0;
#X connect 78 0 44 0;
