#N canvas 525 517 689 516 10;
#X obj 30 208 t a a;
#X obj 75 208 rectangle 1 0.5;
#X obj 30 257 rotateXYZ 0 0 80;
#X obj 290 234 line;
#X obj 30 281 translateXYZ 1 1 0;
#X obj 261 165 list split;
#X obj 289 190 list split 1;
#X obj 275 79 t b a;
#X msg 261 143 90 80 77.25 72 67.5 65.4 60 55.42 51.42 45;
#X obj 289 211 pack 0 2000;
#X obj 28 138 repeat 24;
#X obj 328 116 unpack f f;
#X obj 30 29 r \$1Geo;
#X floatatom 89 95 5 0 0 0 - - -, f 5;
#X floatatom 177 165 5 0 0 0 - - -, f 5;
#X connect 0 0 2 0;
#X connect 0 1 1 0;
#X connect 2 0 4 0;
#X connect 3 0 2 3;
#X connect 5 1 6 0;
#X connect 6 0 9 0;
#X connect 7 0 8 0;
#X connect 7 1 11 0;
#X connect 8 0 5 0;
#X connect 9 0 3 0;
#X connect 10 0 0 0;
#X connect 11 0 5 1;
#X connect 11 1 9 1;
#X connect 12 0 10 0;
#X connect 13 0 10 1;
#X connect 14 0 2 3;
