#N canvas 1013 723 605 300 10;
#X obj 205 254 sphere 2 32;
#X obj 196 60 r \$1Geo;
#X obj 46 242 symbol;
#X msg 46 262 draw \$1;
#N canvas 1048 522 711 432 datastructure 0;
#X obj 28 9 inlet;
#X obj 74 11 inlet;
#X obj 35 50 pointer;
#X obj 74 31 t p b p;
#X obj 36 170 list prepend;
#X obj 36 94 t b p;
#X obj 36 132 t a a;
#X obj 36 189 list trim;
#X obj 17 430 outlet;
#X obj 382 119 route \$3;
#X obj 41 386 outlet;
#X obj 381 97 r \$0fx;
#X obj 132 108 setsize object surf;
#X obj 36 151 element object surf;
#X obj 17 409 get surf-param value;
#X obj 42 367 get surf-param value;
#X obj 185 361 set surf-param value;
#X obj 314 362 set surf-param value;
#X obj 445 362 set surf-param value;
#X obj 55 348 outlet;
#X obj 55 327 get surf-param value;
#X obj 382 144 route Draw Size Segments;
#X msg 131 89 3;
#X obj 36 208 route 0 1 2;
#X msg 36 113 0 \, 1 \, 2;
#X connect 0 0 2 0;
#X connect 1 0 3 0;
#X connect 2 0 5 0;
#X connect 3 0 2 1;
#X connect 3 1 22 0;
#X connect 3 2 12 1;
#X connect 4 0 7 0;
#X connect 5 0 24 0;
#X connect 5 1 13 1;
#X connect 6 0 13 0;
#X connect 6 1 4 1;
#X connect 7 0 23 0;
#X connect 9 0 21 0;
#X connect 11 0 9 0;
#X connect 13 0 4 0;
#X connect 14 0 8 0;
#X connect 15 0 10 0;
#X connect 20 0 19 0;
#X connect 21 0 16 0;
#X connect 21 1 17 0;
#X connect 21 2 18 0;
#X connect 22 0 12 0;
#X connect 23 0 14 0;
#X connect 23 0 16 1;
#X connect 23 1 15 0;
#X connect 23 1 17 1;
#X connect 23 2 20 0;
#X connect 24 0 6 0;
#X restore 235 134 pd datastructure;
#X obj 317 61 r \$1Pt;
#X msg 101 214 line;
#X msg 142 216 point;
#X obj 55 184 sel 0 1 2;
#X obj 197 88 t a b;
#X msg 46 214 fill;
#X text 369 37 param: Segments 32 0 1024 1;
#X text 368 4 param: Draw 0 0 2 1;
#X text 368 20 param: Size 4 0 99.99 0.1;
#X connect 1 0 9 0;
#X connect 2 0 3 0;
#X connect 3 0 0 0;
#X connect 4 0 8 0;
#X connect 4 1 0 1;
#X connect 4 2 0 2;
#X connect 5 0 4 1;
#X connect 6 0 2 0;
#X connect 7 0 2 0;
#X connect 8 0 10 0;
#X connect 8 1 6 0;
#X connect 8 2 7 0;
#X connect 9 0 0 0;
#X connect 9 1 4 0;
#X connect 10 0 2 0;
