#N canvas 929 189 736 319 10;
#X obj 41 28 r \$1Geo;
#N canvas 820 169 1016 607 datastructure 0;
#X obj 28 9 inlet;
#X obj 94 17 inlet;
#X obj 55 56 pointer;
#X obj 94 37 t p b p;
#X obj 86 115 == 0;
#X obj 54 75 t p b;
#X obj 54 134 spigot;
#X obj 86 95 \$2;
#X obj 105 249 list prepend;
#X obj 54 153 t b p;
#X obj 54 191 t a a;
#X obj 105 271 list trim;
#X obj 30 426 outlet;
#X obj 294 41 route \$3;
#X obj 293 19 r \$0fx;
#X obj 128 113 setsize object surf;
#X obj 54 210 element object surf;
#X obj 261 405 set surf-param value;
#X obj 412 406 set surf-param value;
#X obj 28 29 t b b;
#X msg 127 94 5;
#X msg 54 172 0 \, 1 \, 2 \, 3 \, 4;
#X obj 105 292 route 0 1 2 3 4;
#X obj 563 406 set surf-param value;
#X obj 711 406 set surf-param value;
#X obj 859 407 set surf-param value;
#X obj 294 66 route Draw Size Font Alias Justify;
#X obj 30 362 get surf-param value name;
#X obj 30 384 list prepend;
#X obj 30 406 list trim;
#X obj 30 315 t a a;
#X obj 63 337 outlet;
#X connect 0 0 19 0;
#X connect 1 0 3 0;
#X connect 2 0 5 0;
#X connect 3 0 2 1;
#X connect 3 1 20 0;
#X connect 3 2 15 1;
#X connect 4 0 6 1;
#X connect 5 0 6 0;
#X connect 5 1 7 0;
#X connect 6 0 9 0;
#X connect 7 0 4 0;
#X connect 8 0 11 0;
#X connect 9 0 21 0;
#X connect 9 1 16 1;
#X connect 10 0 16 0;
#X connect 10 1 8 1;
#X connect 11 0 22 0;
#X connect 13 0 26 0;
#X connect 14 0 13 0;
#X connect 16 0 30 0;
#X connect 19 1 2 0;
#X connect 20 0 15 0;
#X connect 21 0 10 0;
#X connect 22 0 17 1;
#X connect 22 1 18 1;
#X connect 22 2 23 1;
#X connect 22 3 24 1;
#X connect 22 4 25 1;
#X connect 26 0 17 0;
#X connect 26 1 18 0;
#X connect 26 2 23 0;
#X connect 26 3 24 0;
#X connect 26 4 25 0;
#X connect 27 0 28 0;
#X connect 27 1 28 1;
#X connect 28 0 29 0;
#X connect 29 0 12 0;
#X connect 30 0 27 0;
#X connect 30 1 31 0;
#X connect 30 1 8 0;
#X restore 137 85 pd datastructure;
#X obj 209 21 r \$1Pt;
#X obj 41 69 t a b;
#X text 583 86 fontChooser: Font;
#X obj 161 281 text2d;
#X text 584 110 strings: Text;
#X text 585 15 param: Size 18 0 999 1;
#X text 582 39 checkbox: Aliasing 1;
#X text 582 62 menu: Justify 8;
#N canvas 1 51 450 300 justify 0;
#X obj 165 55 mod 3;
#X obj 211 56 / 3;
#X obj 211 76 int;
#X obj 165 32 t a a;
#X obj 165 11 inlet;
#X obj 122 117 route 0 1 2;
#X msg 105 177 left;
#X msg 146 177 right;
#X msg 192 177 center;
#X msg 250 177 top;
#X msg 283 178 bottom;
#X obj 128 278 outlet;
#X msg 125 250 justify \$1 \$2;
#X obj 211 117 route 0 1 2 3;
#X msg 392 177 base;
#X msg 337 177 middle;
#X obj 129 226 list append;
#X connect 0 0 5 0;
#X connect 1 0 2 0;
#X connect 2 0 13 0;
#X connect 3 0 0 0;
#X connect 3 1 1 0;
#X connect 4 0 3 0;
#X connect 5 0 6 0;
#X connect 5 1 7 0;
#X connect 5 2 8 0;
#X connect 6 0 16 0;
#X connect 7 0 16 0;
#X connect 8 0 16 0;
#X connect 9 0 16 1;
#X connect 10 0 16 1;
#X connect 12 0 11 0;
#X connect 13 0 9 0;
#X connect 13 1 10 0;
#X connect 13 2 15 0;
#X connect 13 3 14 0;
#X connect 14 0 16 1;
#X connect 15 0 16 1;
#X connect 16 0 12 0;
#X restore 95 141 pd justify;
#X msg 172 141 alias \$1;
#X obj 131 113 route Justify Aliasing Font Text Size;
#N canvas 1 51 450 300 font 1;
#X obj 36 33 inlet;
#X obj 156 259 outlet;
#X obj 165 121 get object font;
#X msg 288 219 font \$1;
#X obj 166 98 pointer;
#X obj 166 76 r \$1Pt;
#X obj 34 56 sel 1;
#X obj 9 163 set surf-param value;
#X msg 28 134 0;
#X obj 31 113 t b b;
#X obj 117 128 inlet;
#X obj 230 146 list trim;
#X obj 230 169 route font;
#X obj 288 199 symbol;
#X connect 0 0 6 0;
#X connect 2 0 11 0;
#X connect 3 0 1 0;
#X connect 4 0 2 0;
#X connect 5 0 4 0;
#X connect 6 0 9 0;
#X connect 8 0 7 0;
#X connect 9 0 8 0;
#X connect 9 1 4 0;
#X connect 10 0 7 1;
#X connect 11 0 12 0;
#X connect 12 1 13 0;
#X connect 13 0 3 0;
#X restore 238 163 pd font;
#N canvas 1 51 450 300 text 1;
#X obj 36 33 inlet;
#X obj 156 259 outlet;
#X obj 190 70 pointer;
#X obj 190 41 r \$1Pt;
#X obj 34 56 sel 1;
#X obj 9 163 set surf-param value;
#X msg 28 134 0;
#X obj 31 113 t b b;
#X obj 117 128 inlet;
#X obj 167 142 text get -s object text;
#X obj 189 97 t b p;
#X msg 189 120 0;
#X obj 190 182 list prepend string;
#X obj 190 204 list trim;
#X connect 0 0 4 0;
#X connect 2 0 10 0;
#X connect 3 0 2 0;
#X connect 4 0 7 0;
#X connect 6 0 5 0;
#X connect 7 0 6 0;
#X connect 7 1 2 0;
#X connect 8 0 5 1;
#X connect 9 0 12 0;
#X connect 10 0 11 0;
#X connect 10 1 9 3;
#X connect 11 0 9 0;
#X connect 12 0 13 0;
#X connect 13 0 1 0;
#X restore 358 169 pd text;
#X connect 0 0 3 0;
#X connect 1 0 12 0;
#X connect 1 1 13 1;
#X connect 1 1 14 1;
#X connect 2 0 1 1;
#X connect 3 0 5 0;
#X connect 3 1 1 0;
#X connect 10 0 5 0;
#X connect 11 0 5 0;
#X connect 12 0 10 0;
#X connect 12 1 11 0;
#X connect 12 2 13 0;
#X connect 12 3 14 0;
#X connect 12 4 5 1;
#X connect 13 0 5 0;
#X connect 14 0 5 0;
