#N canvas 1039 704 622 319 10;
#X obj 88 20 r \$1Geo;
#N canvas 840 189 1016 607 datastructure 0;
#X obj 28 9 inlet;
#X obj 94 17 inlet;
#X obj 55 56 pointer;
#X obj 94 37 t p b p;
#X obj 86 115 == 0;
#X obj 54 75 t p b;
#X obj 54 134 spigot;
#X obj 86 95 \$2;
#X obj 54 229 list prepend;
#X obj 54 153 t b p;
#X obj 54 191 t a a;
#X obj 54 248 list trim;
#X obj 34 560 outlet;
#X obj 294 41 route \$3;
#X obj 49 520 outlet;
#X obj 293 19 r \$0fx;
#X obj 152 114 setsize object surf;
#X obj 54 210 element object surf;
#X obj 34 539 get surf-param value;
#X obj 48 500 get surf-param value;
#X obj 291 407 set surf-param value;
#X obj 419 406 set surf-param value;
#X obj 28 29 t b b;
#X msg 151 95 5;
#X msg 54 172 0 \, 1 \, 2 \, 3 \, 4;
#X obj 69 481 outlet;
#X obj 84 441 outlet;
#X obj 69 460 get surf-param value;
#X obj 83 421 get surf-param value;
#X obj 104 402 outlet;
#X obj 103 382 get surf-param value;
#X obj 54 267 route 0 1 2 3 4;
#X obj 547 406 set surf-param value;
#X obj 677 406 set surf-param value;
#X obj 809 406 set surf-param value;
#X obj 294 66 route Draw Size Font Alias Justify;
#X connect 0 0 22 0;
#X connect 1 0 3 0;
#X connect 2 0 5 0;
#X connect 3 0 2 1;
#X connect 3 1 23 0;
#X connect 3 2 16 1;
#X connect 4 0 6 1;
#X connect 5 0 6 0;
#X connect 5 1 7 0;
#X connect 6 0 9 0;
#X connect 7 0 4 0;
#X connect 8 0 11 0;
#X connect 9 0 24 0;
#X connect 9 1 17 1;
#X connect 10 0 17 0;
#X connect 10 1 8 1;
#X connect 11 0 31 0;
#X connect 13 0 35 0;
#X connect 15 0 13 0;
#X connect 17 0 8 0;
#X connect 18 0 12 0;
#X connect 19 0 14 0;
#X connect 22 1 2 0;
#X connect 23 0 16 0;
#X connect 24 0 10 0;
#X connect 27 0 25 0;
#X connect 28 0 26 0;
#X connect 30 0 29 0;
#X connect 31 0 18 0;
#X connect 31 0 20 1;
#X connect 31 1 19 0;
#X connect 31 1 21 1;
#X connect 31 2 27 0;
#X connect 31 2 32 1;
#X connect 31 3 28 0;
#X connect 31 3 33 1;
#X connect 31 4 30 0;
#X connect 31 4 34 1;
#X connect 35 0 20 0;
#X connect 35 1 21 0;
#X connect 35 2 32 0;
#X connect 35 3 33 0;
#X connect 35 4 34 0;
#X restore 253 60 pd datastructure;
#X obj 209 21 r \$1Pt;
#X obj 89 48 t a b;
#X obj 30 264 text2d;
#X obj 138 265 text3d;
#X obj 318 262 textextruded;
#X obj 40 161 spigot;
#X obj 100 163 spigot;
#X obj 175 150 spigot;
#X obj 78 134 == 0;
#X obj 132 135 == 1;
#X obj 211 125 == 2;
#X obj 245 158 s \$0size;
#X obj 63 242 r \$0size;
#X obj 167 246 r \$0size;
#X obj 388 243 r \$0size;
#X text 272 3 parameters: Draw Size Font Alias Justify;
#X obj 46 220 r \$0param;
#X obj 137 226 r \$0param;
#X obj 334 221 r \$0param;
#X obj 419 140 s \$0param;
#X msg 419 118 Alias \$1;
#X msg 480 117 justify \$1;
#N canvas 64 80 450 300 font 0;
#X obj 102 32 inlet;
#X restore 309 121 pd font;
#X connect 0 0 3 0;
#X connect 1 0 12 0;
#X connect 1 0 11 0;
#X connect 1 0 10 0;
#X connect 1 1 13 0;
#X connect 1 2 24 0;
#X connect 1 3 22 0;
#X connect 1 4 23 0;
#X connect 2 0 1 1;
#X connect 3 0 7 0;
#X connect 3 0 8 0;
#X connect 3 0 9 0;
#X connect 3 1 1 0;
#X connect 7 0 4 0;
#X connect 8 0 5 0;
#X connect 9 0 6 0;
#X connect 10 0 7 1;
#X connect 11 0 8 1;
#X connect 12 0 9 1;
#X connect 14 0 4 1;
#X connect 15 0 5 1;
#X connect 16 0 6 1;
#X connect 18 0 4 0;
#X connect 19 0 5 0;
#X connect 20 0 6 0;
#X connect 22 0 21 0;
#X connect 23 0 21 0;
