#N canvas 1001 739 450 300 10;
#X obj 58 268 torus 4 6 1;
#X obj 52 30 r \$1Geo;
#X obj 303 214 symbol;
#X msg 303 233 draw \$1;
#N canvas 233 295 830 645 datastructure 0;
#X obj 28 9 inlet;
#X obj 93 93 inlet;
#X obj 54 132 pointer;
#X obj 93 113 t p b p;
#X obj 53 305 list prepend;
#X obj 53 229 t b p;
#X obj 53 267 t a a;
#X obj 53 324 list trim;
#X obj 34 565 outlet;
#X obj 525 242 route \$3;
#X obj 58 521 outlet;
#X obj 524 220 r \$0fx;
#X obj 151 190 setsize object surf;
#X obj 53 286 element object surf;
#X obj 34 544 get surf-param value;
#X obj 59 502 get surf-param value;
#X obj 328 484 set surf-param value;
#X obj 457 485 set surf-param value;
#X obj 28 29 t b b;
#X msg 150 171 4;
#X msg 53 248 0 \, 1 \, 2 \, 3;
#X obj 588 485 set surf-param value;
#X obj 717 486 set surf-param value;
#X obj 53 343 route 0 1 2 3;
#X obj 72 483 outlet;
#X obj 96 439 outlet;
#X obj 72 462 get surf-param value;
#X obj 97 420 get surf-param value;
#X obj 525 267 route Draw Size Slices Thickness;
#X connect 0 0 18 0;
#X connect 1 0 3 0;
#X connect 2 0 5 0;
#X connect 3 0 2 1;
#X connect 3 1 19 0;
#X connect 3 2 12 1;
#X connect 4 0 7 0;
#X connect 5 0 20 0;
#X connect 5 1 13 1;
#X connect 6 0 13 0;
#X connect 6 1 4 1;
#X connect 7 0 23 0;
#X connect 9 0 28 0;
#X connect 11 0 9 0;
#X connect 13 0 4 0;
#X connect 14 0 8 0;
#X connect 15 0 10 0;
#X connect 18 1 2 0;
#X connect 19 0 12 0;
#X connect 20 0 6 0;
#X connect 23 0 14 0;
#X connect 23 0 16 1;
#X connect 23 1 15 0;
#X connect 23 1 17 1;
#X connect 23 2 26 0;
#X connect 23 3 27 0;
#X connect 26 0 24 0;
#X connect 27 0 25 0;
#X connect 28 0 16 0;
#X connect 28 1 17 0;
#X connect 28 2 21 0;
#X connect 28 3 22 0;
#X restore 78 79 pd datastructure;
#X obj 173 31 r \$1Pt;
#X msg 358 186 line;
#X msg 399 188 point;
#X obj 312 156 sel 0 1 2;
#X obj 53 58 t a b;
#X msg 303 186 default;
#X text 246 34 param: Draw 0 0 2 1;
#X text 246 48 param: Size 4 0 99 0.1;
#X text 245 63 param: Slices 16 0 99 1;
#X text 245 79 param: Thickness 1 0 99 0.1;
#X connect 1 0 9 0;
#X connect 2 0 3 0;
#X connect 3 0 0 0;
#X connect 4 0 8 0;
#X connect 4 1 0 1;
#X connect 4 2 0 2;
#X connect 4 3 0 3;
#X connect 5 0 4 1;
#X connect 6 0 2 0;
#X connect 7 0 2 0;
#X connect 8 0 10 0;
#X connect 8 1 6 0;
#X connect 8 2 7 0;
#X connect 9 0 0 0;
#X connect 9 1 4 0;
#X connect 10 0 2 0;
