#N canvas 555 517 450 300 10;
#X obj 133 264 triangle 4;
#X obj 88 20 r \$1Geo;
#X obj 236 194 symbol;
#X msg 236 214 draw \$1;
#N canvas 629 120 703 455 datastructure 0;
#X obj 28 9 inlet;
#X obj 72 10 inlet;
#X obj 33 49 pointer;
#X obj 72 30 t p b p;
#X obj 64 108 == 0;
#X obj 32 68 t p b;
#X obj 32 127 spigot;
#X obj 64 88 \$2;
#X obj 32 222 list prepend;
#X obj 32 146 t b p;
#X obj 32 184 t a a;
#X obj 32 241 list trim;
#X obj 32 413 outlet;
#X obj 57 373 outlet;
#X obj 32 260 route 0 1;
#X msg 32 165 0 \, 1;
#X msg 129 88 2;
#X obj 130 107 setsize object surf;
#X obj 32 203 element object surf;
#X obj 33 393 get surf-param value;
#X obj 57 354 get surf-param value;
#X connect 0 0 2 0;
#X connect 1 0 3 0;
#X connect 2 0 5 0;
#X connect 3 0 2 1;
#X connect 3 1 16 0;
#X connect 3 2 17 1;
#X connect 4 0 6 1;
#X connect 5 0 6 0;
#X connect 5 1 7 0;
#X connect 6 0 9 0;
#X connect 7 0 4 0;
#X connect 8 0 11 0;
#X connect 9 0 15 0;
#X connect 9 1 18 1;
#X connect 10 0 18 0;
#X connect 10 1 8 1;
#X connect 11 0 14 0;
#X connect 14 0 19 0;
#X connect 14 1 20 0;
#X connect 15 0 10 0;
#X connect 16 0 17 0;
#X connect 18 0 8 0;
#X connect 19 0 12 0;
#X connect 20 0 13 0;
#X restore 116 87 pd datastructure;
#X obj 209 21 r \$1Pt;
#X msg 322 171 line;
#X msg 363 173 point;
#X obj 272 139 sel 0 1 2;
#X obj 89 48 t a b;
#X msg 263 169 default;
#X text 273 24 param: Size 2 0 100 0.1;
#X text 273 8 param: Draw 0 0 2 1;
#X connect 1 0 9 0;
#X connect 2 0 3 0;
#X connect 3 0 0 0;
#X connect 4 0 8 0;
#X connect 4 1 0 1;
#X connect 5 0 4 1;
#X connect 6 0 2 0;
#X connect 7 0 2 0;
#X connect 8 0 10 0;
#X connect 8 1 6 0;
#X connect 8 2 7 0;
#X connect 9 0 0 0;
#X connect 9 1 4 0;
#X connect 10 0 2 0;
