#N canvas 1189 328 627 572 10;
#X obj 275 385 tube 1 1 16 10;
#X obj 286 58 r \$1Geo;
#X obj 50 226 symbol;
#X msg 50 246 draw \$1;
#X msg 134 168 width \$1;
#X msg 161 198 numslices \$1;
#N canvas 59 51 1855 1000 datastructure 0;
#X obj 28 9 inlet;
#X obj 93 93 inlet;
#X obj 54 132 pointer;
#X obj 93 113 t p b p;
#X obj 85 191 == 0;
#X obj 53 151 t p b;
#X obj 53 210 spigot;
#X obj 85 171 \$2;
#X obj 53 305 list prepend;
#X obj 53 229 t b p;
#X obj 53 267 t a a;
#X obj 53 324 list trim;
#X obj 38 926 outlet;
#X obj 56 907 outlet;
#X obj 151 190 setsize object surf;
#X obj 53 286 element object surf;
#X obj 43 446 get surf-param value;
#X obj 61 469 get surf-param value;
#X obj 674 412 set surf-param value;
#X obj 661 446 set surf-param value;
#X obj 28 29 t b b;
#X obj 512 218 route D1 D2 H Tx Ty R1x R1y R2x R2y;
#X msg 150 171 12;
#X msg 53 248 0 \, 1 \, 2 \, 3 \, 4 \, 5 \, 6 \, 7 \, 8 \, 9 \, 10
\, 11;
#X obj 53 347 route 0 1 2 3 4 5 6 7 8 9 10 11;
#X obj 76 888 outlet;
#X obj 90 869 outlet;
#X obj 76 491 get surf-param value;
#X obj 94 514 get surf-param value;
#X obj 641 481 set surf-param value;
#X obj 626 508 set surf-param value;
#X obj 104 850 outlet;
#X obj 122 831 outlet;
#X obj 107 537 get surf-param value;
#X obj 125 560 get surf-param value;
#X obj 614 536 set surf-param value;
#X obj 597 571 set surf-param value;
#X obj 142 812 outlet;
#X obj 160 793 outlet;
#X obj 140 582 get surf-param value;
#X obj 158 605 get surf-param value;
#X obj 583 597 set surf-param value;
#X obj 566 632 set surf-param value;
#X obj 177 774 outlet;
#X obj 195 755 outlet;
#X obj 177 630 get surf-param value;
#X obj 195 653 get surf-param value;
#X obj 547 664 set surf-param value;
#X obj 530 699 set surf-param value;
#X obj 210 736 outlet;
#X obj 228 717 outlet;
#X obj 210 675 get surf-param value;
#X obj 228 698 get surf-param value;
#X obj 516 725 set surf-param value;
#X obj 499 760 set surf-param value;
#X obj 361 192 route Draw Width Numslices;
#X obj 362 171 r /\$1/\$2/geo;
#X connect 0 0 20 0;
#X connect 1 0 3 0;
#X connect 2 0 5 0;
#X connect 3 0 2 1;
#X connect 3 1 22 0;
#X connect 3 2 14 1;
#X connect 4 0 6 1;
#X connect 5 0 6 0;
#X connect 5 1 7 0;
#X connect 6 0 9 0;
#X connect 7 0 4 0;
#X connect 8 0 11 0;
#X connect 9 0 23 0;
#X connect 9 1 15 1;
#X connect 10 0 15 0;
#X connect 10 1 8 1;
#X connect 11 0 24 0;
#X connect 15 0 8 0;
#X connect 16 0 12 0;
#X connect 17 0 13 0;
#X connect 20 1 2 0;
#X connect 21 0 30 0;
#X connect 21 1 35 0;
#X connect 21 2 36 0;
#X connect 21 3 41 0;
#X connect 21 4 42 0;
#X connect 21 5 47 0;
#X connect 21 6 48 0;
#X connect 21 7 53 0;
#X connect 21 8 54 0;
#X connect 22 0 14 0;
#X connect 23 0 10 0;
#X connect 24 0 16 0;
#X connect 24 0 18 1;
#X connect 24 1 17 0;
#X connect 24 1 19 1;
#X connect 24 2 29 1;
#X connect 24 2 27 0;
#X connect 24 3 30 1;
#X connect 24 3 28 0;
#X connect 24 4 35 1;
#X connect 24 4 33 0;
#X connect 24 5 36 1;
#X connect 24 5 34 0;
#X connect 24 6 41 1;
#X connect 24 6 39 0;
#X connect 24 7 42 1;
#X connect 24 7 40 0;
#X connect 24 8 47 1;
#X connect 24 8 45 0;
#X connect 24 9 48 1;
#X connect 24 9 46 0;
#X connect 24 10 53 1;
#X connect 24 10 51 0;
#X connect 24 11 54 1;
#X connect 24 11 52 0;
#X connect 27 0 25 0;
#X connect 28 0 26 0;
#X connect 33 0 31 0;
#X connect 34 0 32 0;
#X connect 39 0 37 0;
#X connect 40 0 38 0;
#X connect 45 0 43 0;
#X connect 46 0 44 0;
#X connect 51 0 49 0;
#X connect 52 0 50 0;
#X connect 55 0 18 0;
#X connect 55 1 19 0;
#X connect 55 2 29 0;
#X connect 55 3 21 0;
#X connect 56 0 55 0;
#X restore 340 121 pd datastructure;
#X obj 433 55 r \$1Pt;
#X obj 298 94 t a b;
#X obj 31 171 sel 0 1 2;
#X msg 29 196 fill;
#X msg 66 197 line;
#X msg 103 201 point;
#X text 190 7 parameters: Draw Width Numslices D1 D2 H Tx Ty R1x R1y
R2x R2y;
#X text 18 342 param: Draw 0 0 2 1;
#X text 18 358 param: Width 2 0 100 0.1;
#X text 18 375 param: Numslices 16 0 100 1;
#X text 18 390 param: D1 1 0 100 0.1;
#X text 17 406 param: D2 1 0 100 0.1;
#X text 18 422 param: H 3 0 100 0.1;
#X text 17 440 param: Tx 0 0 100 0.1;
#X text 17 457 param: Ty 0 0 100 0.1;
#X text 17 474 param: R1x 0 -360 360 1;
#X text 15 489 param: R1y 0 -360 360 1;
#X text 18 506 param: R2x 0 -360 360 1;
#X text 18 522 param: R2y 0 -360 360 1;
#X connect 1 0 8 0;
#X connect 2 0 3 0;
#X connect 3 0 0 0;
#X connect 4 0 0 0;
#X connect 5 0 0 0;
#X connect 6 0 9 0;
#X connect 6 1 4 0;
#X connect 6 2 5 0;
#X connect 6 3 0 1;
#X connect 6 4 0 2;
#X connect 6 5 0 3;
#X connect 6 6 0 4;
#X connect 6 7 0 5;
#X connect 6 8 0 6;
#X connect 6 9 0 7;
#X connect 6 10 0 8;
#X connect 6 11 0 9;
#X connect 7 0 6 1;
#X connect 8 0 0 0;
#X connect 8 1 6 0;
#X connect 9 0 10 0;
#X connect 9 1 11 0;
#X connect 9 2 12 0;
#X connect 10 0 2 0;
#X connect 11 0 2 0;
#X connect 12 0 2 0;
