#N canvas 1126 597 606 394 10;
#X obj 78 4 r \$1FxHead;
#X obj 78 353 s \$1FxHead;
#X obj 78 304 pix_aging;
#X msg 99 218 dust \$1;
#X obj 312 237 tgl 15 0 empty empty empty 0 -6 0 8 -262144 -1 -1 0
1;
#X msg 312 254 pits \$1;
#X msg 135 247 coloraging \$1;
#X msg 234 245 scratch \$1;
#X obj 78 81 t a b;
#N canvas 788 377 370 443 datastructure 1;
#X obj 52 11 inlet;
#X obj 91 17 inlet;
#X obj 52 58 pointer;
#X obj 52 136 element fx-array param;
#X obj 52 155 list prepend;
#X obj 52 77 t b p;
#X obj 52 116 t a a;
#X obj 52 174 list trim;
#X obj 52 401 outlet;
#X obj 98 402 outlet;
#X obj 148 403 outlet;
#X obj 199 402 outlet;
#X msg 52 97 0 \, 1 \, 2 \, 3;
#X obj 52 193 route 0 1 2 3;
#X obj 91 37 route \$2;
#X obj 52 220 get fx-param value ctl;
#X obj 98 277 get fx-param value ctl;
#X obj 148 308 get fx-param value ctl;
#X obj 199 338 get fx-param value ctl;
#X obj 52 275 +;
#X obj 98 302 +;
#X obj 148 333 +;
#X obj 199 360 +;
#X connect 0 0 2 0;
#X connect 1 0 14 0;
#X connect 2 0 5 0;
#X connect 3 0 4 0;
#X connect 4 0 7 0;
#X connect 5 0 12 0;
#X connect 5 1 3 1;
#X connect 6 0 3 0;
#X connect 6 1 4 1;
#X connect 7 0 13 0;
#X connect 12 0 6 0;
#X connect 13 0 15 0;
#X connect 13 1 16 0;
#X connect 13 2 17 0;
#X connect 13 3 18 0;
#X connect 14 0 2 1;
#X connect 15 0 19 0;
#X connect 15 1 19 1;
#X connect 16 0 20 0;
#X connect 16 1 20 1;
#X connect 17 0 21 0;
#X connect 17 1 21 1;
#X connect 18 0 22 0;
#X connect 18 1 22 1;
#X connect 19 0 8 0;
#X connect 20 0 9 0;
#X connect 21 0 10 0;
#X connect 22 0 11 0;
#X restore 148 155 pd datastructure;
#X obj 257 126 r \$1FxPt;
#X obj 154 221 tgl 15 0 empty empty empty 0 -6 0 8 -262144 -1 -1 0
1;
#X obj 115 191 tgl 15 0 empty empty empty 0 -6 0 8 -262144 -1 -1 0
1;
#X text 351 9 param: Dust 0 1;
#X text 351 30 param: Aging 0 1;
#X text 351 49 param: Scratch 1 10 0 999 1;
#X text 351 68 param: Pits 0 1;
#X obj 78 26 route \$2;
#X obj 78 331 list prepend \$3;
#X connect 0 0 17 0;
#X connect 2 0 18 0;
#X connect 3 0 2 0;
#X connect 4 0 5 0;
#X connect 5 0 2 0;
#X connect 6 0 2 0;
#X connect 7 0 2 0;
#X connect 8 0 2 0;
#X connect 8 1 9 0;
#X connect 9 0 12 0;
#X connect 9 1 11 0;
#X connect 9 2 7 0;
#X connect 9 3 4 0;
#X connect 10 0 9 1;
#X connect 11 0 6 0;
#X connect 12 0 3 0;
#X connect 17 0 8 0;
#X connect 18 0 1 0;
