#N canvas 1080 615 606 394 10;
#X obj 78 23 r \$1FxHead;
#X obj 78 293 s \$1FxHead;
#X obj 78 244 pix_alpha;
#X obj 165 22 namecanvas \$1FX\$3;
#X obj 78 72 t a b;
#N canvas 545 439 737 475 datastructure 0;
#X obj 13 14 inlet;
#X obj 52 14 inlet;
#X obj 13 71 pointer;
#X obj 13 155 element fx-array param;
#X obj 13 174 list prepend;
#X obj 13 96 t b p;
#X obj 13 135 t a a;
#X obj 13 193 list trim;
#X obj 13 364 outlet;
#X obj 93 366 outlet;
#X obj 175 365 outlet;
#X msg 13 116 0 \, 1 \, 2 \, 3 \, 4 \, 5 \, 6 \, 7 \,;
#X obj 13 212 route 0 1 2 3 4 5 6 7;
#X obj 175 344 pack f f f;
#X obj 425 338 pack f f f;
#X obj 426 362 outlet;
#X obj 52 36 route \$2;
#X obj 13 270 get fx-param value ctl, f 12;
#X obj 93 270 get fx-param value ctl, f 12;
#X obj 175 269 get fx-param value ctl, f 12;
#X obj 262 268 get fx-param value ctl, f 12;
#X obj 345 267 get fx-param value ctl, f 12;
#X obj 425 267 get fx-param value ctl, f 12;
#X obj 510 266 get fx-param value ctl, f 12;
#X obj 604 264 get fx-param value ctl, f 12;
#X obj 13 305 +;
#X obj 93 305 +;
#X obj 175 306 +;
#X obj 262 304 +;
#X obj 345 302 +;
#X obj 425 305 +;
#X obj 510 303 +;
#X obj 604 299 +;
#X connect 0 0 2 0;
#X connect 1 0 16 0;
#X connect 2 0 5 0;
#X connect 3 0 4 0;
#X connect 4 0 7 0;
#X connect 5 0 11 0;
#X connect 5 1 3 1;
#X connect 6 0 3 0;
#X connect 6 1 4 1;
#X connect 7 0 12 0;
#X connect 11 0 6 0;
#X connect 12 0 17 0;
#X connect 12 1 18 0;
#X connect 12 2 19 0;
#X connect 12 3 20 0;
#X connect 12 4 21 0;
#X connect 12 5 22 0;
#X connect 12 6 23 0;
#X connect 12 7 24 0;
#X connect 13 0 10 0;
#X connect 14 0 15 0;
#X connect 16 0 2 1;
#X connect 17 0 25 0;
#X connect 17 1 25 1;
#X connect 18 0 26 0;
#X connect 18 1 26 1;
#X connect 19 0 27 0;
#X connect 19 1 27 1;
#X connect 20 0 28 0;
#X connect 20 1 28 1;
#X connect 21 0 29 0;
#X connect 21 1 29 1;
#X connect 22 0 30 0;
#X connect 22 1 30 1;
#X connect 23 0 31 0;
#X connect 23 1 31 1;
#X connect 24 0 32 0;
#X connect 24 1 32 1;
#X connect 25 0 8 0;
#X connect 26 0 9 0;
#X connect 27 0 13 0;
#X connect 28 0 13 1;
#X connect 29 0 13 2;
#X connect 30 0 14 0;
#X connect 31 0 14 1;
#X connect 32 0 14 2;
#X restore 105 92 pd datastructure;
#X obj 198 71 r \$1FxPt;
#X text 304 9 param: Alpha 1 1 0 1 0.01;
#X text 304 21 param: Other 1 0 0 1 0.01;
#X text 304 33 param: LowT-R 1 0.1 0 1 0.01;
#X text 304 56 param: LowT-B 1 0.1 0 1 0.01;
#X text 304 68 param: HighT-R 1 0.8 0 1 0.01;
#X text 304 80 param: HighT-G 1 0.8 0 1 0.01;
#X text 304 92 param: HighT-B 1 0.8 0 1 0.01;
#X text 304 45 param: LowT-G 1 0.1 0 1 0.01;
#X floatatom 318 144 5 0 1 1 pass - -;
#X floatatom 333 164 5 0 1 1 other - -;
#X msg 347 189 0.6 0.6 0.6;
#X msg 362 213 0.2 0.2 0.2;
#X text 305 118 preset: 1 0 0.6 0.6 0.6 0.2 0.2 0.2;
#X obj 78 51 route \$2;
#X obj 78 271 list prepend \$3;
#X connect 0 0 20 0;
#X connect 2 0 21 0;
#X connect 4 0 2 0;
#X connect 4 1 5 0;
#X connect 5 0 2 1;
#X connect 5 1 2 2;
#X connect 5 2 2 3;
#X connect 5 3 2 4;
#X connect 6 0 5 1;
#X connect 15 0 2 1;
#X connect 16 0 2 2;
#X connect 17 0 2 3;
#X connect 18 0 2 4;
#X connect 20 0 4 0;
#X connect 21 0 1 0;
