#N canvas 916 473 606 394 10;
#X obj 78 4 r \$1FxHead;
#X obj 78 353 s \$1FxHead;
#X obj 116 157 route \$3;
#X obj 115 136 r /\$1/fx;
#X msg 114 205 reset;
#X obj 84 246 pix_background;
#X obj 82 60 t a b;
#X obj 113 182 route reset;
#N canvas 83 455 286 394 datastructure 1;
#X obj 15 4 inlet;
#X obj 54 5 inlet;
#X obj 15 47 pointer;
#X obj 15 135 element fx-array param;
#X obj 15 154 list prepend;
#X obj 15 76 t b p;
#X obj 15 115 t a a;
#X obj 15 173 list trim;
#X obj 15 336 outlet;
#X obj 15 315 pack f f f;
#X msg 15 96 0 \, 1 \, 2;
#X obj 15 192 route 0 1 2;
#X obj 54 25 route \$2;
#X obj 15 234 get fx-param value ctl, f 12;
#X obj 99 233 get fx-param value ctl, f 12;
#X obj 180 233 get fx-param value ctl, f 13;
#X obj 15 267 +;
#X obj 99 267 +;
#X obj 180 272 +;
#X connect 0 0 2 0;
#X connect 1 0 12 0;
#X connect 2 0 5 0;
#X connect 3 0 4 0;
#X connect 4 0 7 0;
#X connect 5 0 10 0;
#X connect 5 1 3 1;
#X connect 6 0 3 0;
#X connect 6 1 4 1;
#X connect 7 0 11 0;
#X connect 9 0 8 0;
#X connect 10 0 6 0;
#X connect 11 0 13 0;
#X connect 11 1 14 0;
#X connect 11 2 15 0;
#X connect 12 0 2 1;
#X connect 13 0 16 0;
#X connect 13 1 16 1;
#X connect 14 0 17 0;
#X connect 14 1 17 1;
#X connect 15 0 18 0;
#X connect 15 1 18 1;
#X connect 16 0 9 0;
#X connect 17 0 9 1;
#X connect 18 0 9 2;
#X restore 287 180 pd datastructure;
#X obj 380 148 r \$1FxPt;
#X text 331 15 param: Thresh-R 1 0 0 1 0.01;
#X text 333 32 param: Thresh-G 1 0 0 1 0.01;
#X text 332 50 param: Thresh-B 1 0 0 1 0.01;
#X obj 78 26 route \$2;
#X obj 78 331 list prepend \$3;
#X connect 0 0 13 0;
#X connect 2 0 7 0;
#X connect 3 0 2 0;
#X connect 4 0 5 0;
#X connect 5 0 14 0;
#X connect 6 0 5 0;
#X connect 6 1 8 0;
#X connect 7 0 4 0;
#X connect 8 0 5 1;
#X connect 9 0 8 1;
#X connect 13 0 6 0;
#X connect 14 0 1 0;
