#N canvas 439 638 578 310 10;
#X obj 82 170 pix_biquad;
#X obj 82 6 r \$1FxHead;
#X obj 82 238 s \$1FxHead;
#X obj 82 94 t a b;
#N canvas 594 557 517 460 datastructure 0;
#X obj 45 60 inlet;
#X obj 84 37 inlet;
#X obj 45 79 pointer;
#X obj 45 163 element fx-array param;
#X obj 45 182 list prepend;
#X obj 45 104 t b p;
#X obj 45 143 t a a;
#X obj 45 201 list trim;
#X obj 45 403 outlet;
#X msg 45 124 0 \, 1 \, 2 \, 3 \, 4 \, 5;
#X obj 45 220 route 0 1 2 3 4 5;
#X obj 45 382 pack f f f f f f;
#X obj 84 58 route \$2;
#X obj 45 256 get fx-param value ctl, f 8;
#X obj 45 311 + 1;
#X obj 99 256 get fx-param value ctl, f 8;
#X obj 99 311 + 1;
#X obj 154 256 get fx-param value ctl, f 8;
#X obj 154 311 + 1;
#X obj 208 256 get fx-param value ctl, f 8;
#X obj 208 311 + 1;
#X obj 264 256 get fx-param value ctl, f 8;
#X obj 264 311 + 1;
#X obj 318 256 get fx-param value ctl, f 8;
#X obj 318 311 + 1;
#X connect 0 0 2 0;
#X connect 1 0 12 0;
#X connect 2 0 5 0;
#X connect 3 0 4 0;
#X connect 4 0 7 0;
#X connect 5 0 9 0;
#X connect 5 1 3 1;
#X connect 6 0 3 0;
#X connect 6 1 4 1;
#X connect 7 0 10 0;
#X connect 9 0 6 0;
#X connect 10 0 13 0;
#X connect 10 1 15 0;
#X connect 10 2 17 0;
#X connect 10 3 19 0;
#X connect 10 4 21 0;
#X connect 10 5 23 0;
#X connect 11 0 8 0;
#X connect 12 0 2 1;
#X connect 13 0 14 0;
#X connect 13 1 14 1;
#X connect 14 0 11 0;
#X connect 15 0 16 0;
#X connect 15 1 16 1;
#X connect 16 0 11 1;
#X connect 17 0 18 0;
#X connect 17 1 18 1;
#X connect 18 0 11 2;
#X connect 19 0 20 0;
#X connect 19 1 20 1;
#X connect 20 0 11 3;
#X connect 21 0 22 0;
#X connect 21 1 22 1;
#X connect 22 0 11 4;
#X connect 23 0 24 0;
#X connect 23 1 24 1;
#X connect 24 0 11 5;
#X restore 114 115 pd datastructure;
#X obj 223 95 r \$1FxPt;
#X text 318 21 param: v1 1 1 0 1 0.01;
#X text 318 34 param: v2 1 0 0 1 0.01;
#X text 318 61 param: v4 1 1 0 1 0.01;
#X text 318 48 param: v3 1 0 0 1 0.01;
#X text 320 75 param: v5 1 0 0 1 0.01;
#X text 319 90 param: v6 1 0 0 1 0.01;
#X text 318 106 preset: 1 0.1 0 1 0.1 0.1;
#X text 318 120 preset: 0.8 0.45 0.5 0.6 0.5 0.4;
#X text 320 135 preset: 0.5 0.4 0.5 0.6 0.4 0.4;
#X text 320 149 preset: 0.4 0.4 0.5 0.6 0.4 0.3;
#X text 320 165 preset: 0.3 0.5 0.4 0.6 0.3 0.2;
#X text 320 180 preset: 0.2 0.5 0.3 0.6 0.2 0.2;
#X text 320 194 preset: 1 0 0 1 0 0;
#X obj 82 26 route \$2;
#X obj 82 216 list prepend \$3;
#X connect 0 0 20 0;
#X connect 1 0 19 0;
#X connect 3 0 0 0;
#X connect 3 1 4 0;
#X connect 4 0 0 0;
#X connect 5 0 4 1;
#X connect 19 0 3 0;
#X connect 20 0 2 0;
