#N canvas 1128 478 606 394 10;
#X obj 78 4 r \$1FxHead;
#X obj 110 333 s \$1FxHead;
#X obj 110 230 pix_bitmask;
#N canvas 985 244 411 539 datastructure 1;
#X obj 45 60 inlet;
#X obj 92 23 inlet;
#X obj 55 107 pointer;
#X obj 55 189 element fx-array param;
#X obj 55 208 list prepend;
#X obj 55 130 t b p;
#X obj 55 169 t a a;
#X obj 55 227 list trim;
#X obj 65 495 outlet;
#X obj 110 494 outlet;
#X msg 55 150 0 \, 1 \, 2 \, 3 \, 4;
#X obj 55 246 route 0 1 2 3 4;
#X obj 95 49 route \$2;
#X obj 119 396 change;
#X obj 163 398 change;
#X obj 210 397 change;
#X obj 129 464 pack f f f;
#X obj 164 424 t b a;
#X obj 203 424 t b a;
#X obj 62 397 change;
#X obj 55 283 get fx-param value ctl, f 9;
#X obj 55 330 +;
#X obj 117 284 get fx-param value ctl, f 9;
#X obj 117 331 +;
#X obj 179 286 get fx-param value ctl, f 9;
#X obj 179 333 +;
#X obj 241 287 get fx-param value ctl, f 9;
#X obj 241 334 +;
#X connect 0 0 2 0;
#X connect 1 0 12 0;
#X connect 2 0 5 0;
#X connect 3 0 4 0;
#X connect 4 0 7 0;
#X connect 5 0 10 0;
#X connect 5 1 3 1;
#X connect 6 0 3 0;
#X connect 6 1 4 1;
#X connect 7 0 11 0;
#X connect 10 0 6 0;
#X connect 11 0 20 0;
#X connect 11 1 22 0;
#X connect 11 2 24 0;
#X connect 11 3 26 0;
#X connect 12 0 2 1;
#X connect 13 0 16 0;
#X connect 14 0 17 0;
#X connect 15 0 18 0;
#X connect 16 0 9 0;
#X connect 17 0 16 0;
#X connect 17 1 16 1;
#X connect 18 0 16 0;
#X connect 18 1 16 2;
#X connect 19 0 8 0;
#X connect 20 0 21 0;
#X connect 20 1 21 1;
#X connect 21 0 19 0;
#X connect 22 0 23 0;
#X connect 22 1 23 1;
#X connect 23 0 13 0;
#X connect 24 0 25 0;
#X connect 24 1 25 1;
#X connect 25 0 14 0;
#X connect 26 0 27 0;
#X connect 26 1 27 1;
#X connect 27 0 15 0;
#X restore 137 163 pd datastructure;
#X obj 230 131 r \$1FxPt;
#X obj 108 73 t a b;
#X text 331 15 param: Single 1 0 0 255 1;
#X text 331 30 param: R 1 0 0 255 1;
#X text 331 44 param: G 1 0 0 255 1;
#X text 331 59 param: B 1 0 0 255 1;
#X obj 78 26 route \$2;
#X obj 110 311 list prepend \$3;
#X text 338 132 preset: 127 255 0 128;
#X text 339 155 preset: 128 0 128 100;
#X connect 0 0 10 0;
#X connect 2 0 11 0;
#X connect 3 0 2 1;
#X connect 3 1 2 2;
#X connect 4 0 3 1;
#X connect 5 0 2 0;
#X connect 5 1 3 0;
#X connect 10 0 5 0;
#X connect 11 0 1 0;
