#N canvas 535 419 606 394 10;
#X obj 78 4 r \$1FxHead;
#X obj 78 353 s \$1FxHead;
#X obj 88 256 pix_backlight;
#X obj 87 77 t a b;
#X obj 144 26 namecanvas \$1FX\$3;
#N canvas 1077 335 310 443 datastructure 0;
#X obj 45 60 inlet;
#X obj 92 23 inlet;
#X obj 55 107 pointer;
#X obj 55 186 element fx-array param;
#X obj 55 205 list prepend;
#X obj 55 127 t b p;
#X obj 55 166 t a a;
#X obj 55 224 list trim;
#X obj 64 409 outlet;
#X msg 55 147 0 \, 1 \, 2;
#X obj 55 243 route 0 1 2;
#X obj 122 411 outlet;
#X obj 189 409 outlet;
#X obj 95 49 route \$2;
#X obj 67 278 ../../getValue fx-param;
#X obj 118 300 ../../getValue fx-param;
#X obj 149 322 ../../getValue fx-param;
#X connect 0 0 2 0;
#X connect 1 0 13 0;
#X connect 2 0 5 0;
#X connect 3 0 4 0;
#X connect 4 0 7 0;
#X connect 5 0 9 0;
#X connect 5 1 3 1;
#X connect 6 0 3 0;
#X connect 6 1 4 1;
#X connect 7 0 10 0;
#X connect 9 0 6 0;
#X connect 10 0 14 0;
#X connect 10 1 15 0;
#X connect 10 2 16 0;
#X connect 13 0 2 1;
#X connect 14 0 8 0;
#X connect 15 0 11 0;
#X connect 16 0 12 0;
#X restore 145 199 pd datastructure;
#X obj 238 167 r \$1FxPt;
#X obj 78 26 route \$2;
#X obj 78 331 list prepend \$3;
#X text 356 137 preset: 1 0 1;
#X text 352 75 param: Floor 1 0 0 1 0.01;
#X text 352 89 param: Ceiling 1 0 0 1 0.01;
#X text 356 158 preset: 1 1 0;
#X text 354 179 preset: 0.5 0 1;
#X text 352 60 param: Scale 1 0 0 20 0.01;
#X connect 0 0 7 0;
#X connect 2 0 8 0;
#X connect 3 0 2 0;
#X connect 3 1 5 0;
#X connect 5 0 2 1;
#X connect 5 1 2 2;
#X connect 5 2 2 3;
#X connect 6 0 5 1;
#X connect 7 0 3 0;
#X connect 8 0 1 0;
