#N canvas 458 587 606 394 10;
#X obj 78 4 r \$1FxHead;
#X obj 78 353 s \$1FxHead;
#X obj 133 266 pix_motionblur;
#X obj 175 32 namecanvas \$1FX\$3;
#X obj 87 67 t a b;
#N canvas 531 126 273 413 datastructure 1;
#X obj 45 60 inlet;
#X obj 92 23 inlet;
#X obj 55 107 pointer;
#X obj 57 191 element fx-array param;
#X obj 57 132 t b p;
#X obj 67 326 outlet;
#X msg 56 152 0;
#X obj 95 49 route \$2;
#X obj 57 226 ../../getValue fx-param;
#X connect 0 0 2 0;
#X connect 1 0 7 0;
#X connect 2 0 4 0;
#X connect 3 0 8 0;
#X connect 4 0 6 0;
#X connect 4 1 3 1;
#X connect 6 0 3 0;
#X connect 7 0 2 1;
#X connect 8 0 5 0;
#X restore 212 170 pd datastructure;
#X obj 359 129 r \$1FxPt;
#X obj 78 26 route \$2;
#X obj 78 331 list prepend \$3;
#X text 323 29 param: Blur 1 0 0 1 0.01;
#X connect 0 0 7 0;
#X connect 2 0 8 0;
#X connect 4 0 2 0;
#X connect 4 1 5 0;
#X connect 5 0 2 1;
#X connect 6 0 5 1;
#X connect 7 0 4 0;
#X connect 8 0 1 0;
