#N canvas 1021 399 606 394 10;
#X obj 78 4 r \$1FxHead;
#X obj 72 370 s \$1FxHead;
#X obj 276 17 namecanvas \$1FX\$3;
#X obj 80 46 t a b;
#X obj 72 295 pix_chroma_key;
#X msg 136 256 direction \$1;
#N canvas 187 238 521 562 datastructure 0;
#X obj 55 60 inlet;
#X obj 94 61 inlet;
#X obj 55 107 pointer;
#X obj 55 185 element fx-array param;
#X obj 55 204 list prepend;
#X obj 55 126 t b p;
#X obj 55 165 t a a;
#X obj 55 223 list trim;
#X obj 54 493 outlet;
#X obj 169 518 outlet;
#X obj 343 481 outlet;
#X obj 51 425 pack f f f;
#X obj 166 498 pack f f f;
#X msg 55 146 0 \, 1 \, 2 \, 3 \, 4 \, 5 \, 6 \, 7;
#X obj 397 503 outlet;
#X obj 55 242 route 0 1 2 3 4 5 6 7;
#X obj 94 87 route \$2;
#X obj 52 332 ../../getValue fx-param;
#X obj 96 355 ../../getValue fx-param;
#X obj 146 373 ../../getValue fx-param;
#X obj 197 395 ../../getValue fx-param;
#X obj 241 418 ../../getValue fx-param;
#X obj 291 436 ../../getValue fx-param;
#X obj 343 458 ../../getValue fx-param;
#X obj 397 480 ../../getValue fx-param;
#X connect 0 0 2 0;
#X connect 1 0 16 0;
#X connect 2 0 5 0;
#X connect 3 0 4 0;
#X connect 4 0 7 0;
#X connect 5 0 13 0;
#X connect 5 1 3 1;
#X connect 6 0 3 0;
#X connect 6 1 4 1;
#X connect 7 0 15 0;
#X connect 11 0 8 0;
#X connect 12 0 9 0;
#X connect 13 0 6 0;
#X connect 15 0 17 0;
#X connect 15 1 18 0;
#X connect 15 2 19 0;
#X connect 15 3 20 0;
#X connect 15 4 21 0;
#X connect 15 5 22 0;
#X connect 15 6 23 0;
#X connect 15 7 24 0;
#X connect 16 0 2 1;
#X connect 17 0 11 0;
#X connect 18 0 11 1;
#X connect 19 0 11 2;
#X connect 20 0 12 0;
#X connect 21 0 12 1;
#X connect 22 0 12 2;
#X connect 23 0 10 0;
#X connect 24 0 14 0;
#X restore 102 124 pd datastructure;
#X obj 203 94 r \$1FxPt;
#X msg 101 157 value \$1 \$2 \$3;
#X msg 125 214 range \$1 \$2 \$3;
#X obj 72 315 pix_info;
#X obj 282 266 pix_resize;
#X obj 213 366 pack f f;
#X msg 334 243 dimen \$1 \$2;
#X floatatom 190 322 5 0 0 0 - - -;
#X floatatom 228 321 5 0 0 0 - - -;
#X text 390 160 param: Direction 0 0 0 1 1;
#X text 390 65 param: Value-R 1 0 0 1 0.01;
#X text 390 80 param: Value-G 1 0 0 1 0.01;
#X text 390 96 param: Value-B 1 0 0 1 0.01;
#X text 390 112 param: Range-R 1 0 0 1 0.01;
#X text 390 128 param: Range-G 1 0 0 1 0.01;
#X text 390 144 param: Range-B 1 0 0 1 0.01;
#X obj 78 26 route \$2;
#X obj 72 348 list prepend \$3;
#X text 389 180 param: media 2 0 0 0 0;
#N canvas 896 103 587 385 buffer_read 0;
#X obj 165 58 inlet;
#X obj 77 344 outlet;
#X obj 77 301 pix_buf;
#X msg 103 277 auto 1;
#X obj 103 256 loadbang;
#X obj 77 185 pix_buffer_read media-0;
#X msg 165 125 set media-\$1;
#X obj 77 127 gemhead;
#N canvas 452 212 623 587 frame 0;
#X obj 110 384 metro 50;
#X obj 93 360 /;
#X msg 93 341 1000;
#X obj 115 319 t b a;
#X obj 110 402 f;
#X obj 407 328 -;
#X obj 116 451 mod;
#X obj 389 176 r media;
#X obj 156 486 +;
#X obj 389 245 route auto fps offset end frame;
#X obj 43 205 get film-array auto fps start end frame;
#X obj 203 339 tgl 15 0 empty empty empty 17 7 0 10 -262144 -1 -1 0
1;
#X obj 389 224 route;
#X msg 181 452 0;
#X obj 213 380 abs;
#X obj 143 403 + 1;
#X obj 223 530 outlet;
#X obj 42 25 inlet;
#N canvas 0 50 450 300 pointer 0;
#X obj 133 267 outlet;
#X obj 134 132 element tex-array media, f 10;
#X obj 134 173 list prepend 0;
#X obj 134 192 element media-array film, f 11;
#X obj 191 98 r texPt;
#X obj 134 57 inlet;
#X connect 1 0 2 0;
#X connect 2 0 3 0;
#X connect 3 0 0 0;
#X connect 4 0 1 1;
#X connect 5 0 1 0;
#X restore 42 136 pd pointer;
#X obj 113 426 t a a;
#X obj 181 429 sel;
#X connect 0 0 4 0;
#X connect 1 0 0 1;
#X connect 2 0 1 0;
#X connect 3 0 2 0;
#X connect 3 1 1 1;
#X connect 4 0 19 0;
#X connect 5 0 14 0;
#X connect 6 0 8 0;
#X connect 7 0 12 0;
#X connect 8 0 16 0;
#X connect 9 0 11 0;
#X connect 9 1 3 0;
#X connect 9 2 5 0;
#X connect 9 2 8 1;
#X connect 9 3 5 1;
#X connect 10 0 11 0;
#X connect 10 1 3 0;
#X connect 10 2 5 0;
#X connect 10 2 8 1;
#X connect 10 3 5 1;
#X connect 10 4 16 0;
#X connect 11 0 0 0;
#X connect 12 0 9 0;
#X connect 13 0 4 1;
#X connect 14 0 6 1;
#X connect 14 0 20 1;
#X connect 15 0 4 1;
#X connect 17 0 12 1;
#X connect 17 0 18 0;
#X connect 18 0 10 0;
#X connect 19 0 6 0;
#X connect 19 1 20 0;
#X connect 20 0 13 0;
#X connect 20 1 15 0;
#X restore 336 142 pd frame;
#X connect 0 0 6 0;
#X connect 0 0 8 0;
#X connect 2 0 1 0;
#X connect 3 0 2 0;
#X connect 4 0 3 0;
#X connect 5 0 2 0;
#X connect 6 0 5 0;
#X connect 7 0 5 0;
#X connect 8 0 5 1;
#X restore 282 178 pd buffer_read;
#X obj 282 65 r fx;
#X obj 282 134 spigot;
#X obj 282 88 route media Sel;
#X obj 333 114 == \$2;
#X connect 0 0 23 0;
#X connect 3 0 4 0;
#X connect 3 1 6 0;
#X connect 4 0 10 0;
#X connect 5 0 4 0;
#X connect 6 0 8 0;
#X connect 6 1 9 0;
#X connect 6 2 5 0;
#X connect 7 0 6 1;
#X connect 8 0 4 0;
#X connect 9 0 4 0;
#X connect 10 0 24 0;
#X connect 10 1 12 0;
#X connect 10 1 14 0;
#X connect 10 2 12 1;
#X connect 10 2 15 0;
#X connect 11 0 4 1;
#X connect 12 0 13 0;
#X connect 13 0 11 0;
#X connect 23 0 3 0;
#X connect 24 0 1 0;
#X connect 26 0 11 0;
#X connect 27 0 29 0;
#X connect 28 0 26 0;
#X connect 29 0 28 0;
#X connect 29 1 30 0;
#X connect 30 0 28 1;
