#N canvas 838 481 635 394 10;
#X obj 78 4 r \$1FxHead;
#X obj 78 253 s \$1FxHead;
#X obj 78 171 pix_colorreduce;
#X obj 78 70 t a b;
#N canvas 933 538 539 365 datastructure 0;
#X obj 35 10 inlet;
#X obj 74 10 inlet;
#X obj 35 57 pointer;
#X obj 35 135 element fx-array param;
#X obj 35 154 list prepend;
#X obj 35 76 t b p;
#X obj 35 115 t a a;
#X obj 35 173 list trim;
#X obj 35 298 outlet;
#X obj 186 296 outlet;
#X obj 356 294 outlet;
#X msg 35 96 0 \, 1 \, 2;
#X obj 35 192 route 0 1 2;
#X obj 74 36 route \$2;
#X obj 35 276 ../../getValue fx-param;
#X obj 186 275 ../../getValue fx-param;
#X obj 356 273 ../../getValue fx-param;
#X connect 0 0 2 0;
#X connect 1 0 13 0;
#X connect 2 0 5 0;
#X connect 3 0 4 0;
#X connect 4 0 7 0;
#X connect 5 0 11 0;
#X connect 5 1 3 1;
#X connect 6 0 3 0;
#X connect 6 1 4 1;
#X connect 7 0 12 0;
#X connect 11 0 6 0;
#X connect 12 0 14 0;
#X connect 12 1 15 0;
#X connect 12 2 16 0;
#X connect 13 0 2 1;
#X connect 14 0 8 0;
#X connect 15 0 9 0;
#X connect 16 0 10 0;
#X restore 105 96 pd datastructure;
#X obj 198 64 r \$1FxPt;
#X text 390 128 param: Coulours 1 0 0 255 1;
#X text 390 145 param: Persist 1 0 0 1 0.01;
#X text 390 160 param: Smooth 0 0 0 1 1;
#X obj 78 26 route \$2;
#X obj 78 231 list prepend \$3;
#X text 303 25 comment: doesn't work with alpha channel;
#X connect 0 0 9 0;
#X connect 2 0 10 0;
#X connect 3 0 2 0;
#X connect 3 1 4 0;
#X connect 4 0 2 1;
#X connect 4 1 2 2;
#X connect 4 2 2 3;
#X connect 5 0 4 1;
#X connect 9 0 3 0;
#X connect 10 0 1 0;
