#N canvas 388 601 606 394 10;
#X obj 78 4 r \$1FxHead;
#X obj 78 353 s \$1FxHead;
#X obj 107 187 pix_colormatrix;
#N canvas 949 181 839 856 datastructure 0;
#X obj 55 50 inlet;
#X obj 94 52 inlet;
#X obj 55 107 pointer;
#X obj 55 185 element fx-array param;
#X obj 55 204 list prepend;
#X obj 55 126 t b p;
#X obj 55 165 t a a;
#X obj 55 223 list trim;
#X obj 79 754 outlet;
#X msg 55 146 0 \, 1 \, 2 \, 3 \, 4 \, 5 \, 6 \, 7 \, 8 \, 9 \, 10
\, 11 \, 12 \, 13 \, 14 \, 15;
#X obj 55 242 route 0 1 2 3 4 5 6 7 8 9 10 11 12 13 14 15;
#X obj 81 730 pack f f f f f f f f f f f f f f f f;
#X obj 52 332 ../../getValue fx-param;
#X obj 96 355 ../../getValue fx-param;
#X obj 146 373 ../../getValue fx-param;
#X obj 197 395 ../../getValue fx-param;
#X obj 241 418 ../../getValue fx-param;
#X obj 291 436 ../../getValue fx-param;
#X obj 343 458 ../../getValue fx-param;
#X obj 397 480 ../../getValue fx-param;
#X obj 423 506 ../../getValue fx-param;
#X obj 450 528 ../../getValue fx-param;
#X obj 479 551 ../../getValue fx-param;
#X obj 526 578 ../../getValue fx-param;
#X obj 556 603 ../../getValue fx-param;
#X obj 586 623 ../../getValue fx-param;
#X obj 607 645 ../../getValue fx-param;
#X obj 651 674 ../../getValue fx-param;
#X obj 94 78 route \$2;
#X connect 0 0 2 0;
#X connect 1 0 28 0;
#X connect 2 0 5 0;
#X connect 3 0 4 0;
#X connect 4 0 7 0;
#X connect 5 0 9 0;
#X connect 5 1 3 1;
#X connect 6 0 3 0;
#X connect 6 1 4 1;
#X connect 7 0 10 0;
#X connect 9 0 6 0;
#X connect 10 0 12 0;
#X connect 10 1 13 0;
#X connect 10 2 14 0;
#X connect 10 3 15 0;
#X connect 10 4 16 0;
#X connect 10 5 17 0;
#X connect 10 6 18 0;
#X connect 10 7 19 0;
#X connect 10 8 20 0;
#X connect 10 9 21 0;
#X connect 10 10 22 0;
#X connect 10 11 23 0;
#X connect 10 12 24 0;
#X connect 10 13 25 0;
#X connect 10 14 26 0;
#X connect 10 15 27 0;
#X connect 11 0 8 0;
#X connect 12 0 11 0;
#X connect 13 0 11 1;
#X connect 14 0 11 2;
#X connect 15 0 11 3;
#X connect 16 0 11 4;
#X connect 17 0 11 5;
#X connect 18 0 11 6;
#X connect 19 0 11 7;
#X connect 20 0 11 8;
#X connect 21 0 11 9;
#X connect 22 0 11 10;
#X connect 23 0 11 11;
#X connect 24 0 11 12;
#X connect 25 0 11 13;
#X connect 26 0 11 14;
#X connect 27 0 11 15;
#X connect 28 0 2 1;
#X restore 209 165 pd datastructure;
#X obj 318 144 r \$1FxPt;
#X obj 80 46 t a b;
#X text 411 12 param: R1 1 0 0 1 0.01;
#X text 411 25 param: G1 1 0 0 1 0.01;
#X text 411 38 param: B1 1 0 0 1 0.01;
#X text 411 51 param: A1 1 1 0 1 0.01;
#X text 411 72 param: R2 1 0 0 1 0.01;
#X text 411 85 param: G2 1 0 0 1 0.01;
#X text 411 98 param: B2 1 0 0 1 0.01;
#X text 411 111 param: A2 1 1 0 1 0.01;
#X text 412 132 param: R3 1 0 0 1 0.01;
#X text 412 145 param: G3 1 0 0 1 0.01;
#X text 412 158 param: B3 1 0 0 1 0.01;
#X text 412 171 param: A3 1 1 0 1 0.01;
#X text 411 193 param: R4 1 0 0 1 0.01;
#X text 411 206 param: G4 1 0 0 1 0.01;
#X text 411 219 param: B4 1 0 0 1 0.01;
#X text 411 232 param: A4 1 1 0 1 0.01;
#X obj 78 26 route \$2;
#X obj 78 331 list prepend \$3;
#X connect 0 0 22 0;
#X connect 2 0 23 0;
#X connect 3 0 2 1;
#X connect 4 0 3 1;
#X connect 5 0 2 0;
#X connect 5 1 3 0;
#X connect 22 0 5 0;
#X connect 23 0 1 0;
