#N canvas 1082 593 606 394 10;
#X obj 79 4 r \$1FxHead;
#X obj 79 293 s \$1FxHead;
#X obj 79 179 pix_contrast;
#X obj 79 49 t a b;
#N canvas 329 228 525 608 datastructure 1;
#X obj 53 265 element fx-array param;
#X obj 53 284 list prepend;
#X obj 53 245 t a a;
#X obj 53 303 list trim;
#X obj 53 517 outlet;
#X obj 53 322 route 0 1;
#X msg 53 226 0 \, 1;
#X obj 198 519 outlet;
#X obj 53 64 inlet bang;
#X obj 182 63 inlet pointer;
#X obj 53 412 get fx-param value ctl;
#X obj 198 411 get fx-param value ctl;
#X obj 53 457 +;
#X obj 198 448 +;
#X connect 0 0 1 0;
#X connect 1 0 3 0;
#X connect 2 0 0 0;
#X connect 2 1 1 1;
#X connect 3 0 5 0;
#X connect 5 0 10 0;
#X connect 5 1 11 0;
#X connect 6 0 2 0;
#X connect 8 0 6 0;
#X connect 9 0 0 1;
#X connect 10 0 12 0;
#X connect 10 1 12 1;
#X connect 11 0 13 0;
#X connect 11 1 13 1;
#X connect 12 0 4 0;
#X connect 13 0 7 0;
#X restore 106 144 pd datastructure;
#X obj 199 66 r \$1FxPt;
#X text 361 16 param: Contrast 1 0 0 1 0.01;
#X text 361 32 param: Saturation 1 0 0 1 0.01;
#X obj 199 89 route \$2;
#X obj 79 28 route \$2;
#X obj 79 271 list prepend \$3;
#X connect 0 0 9 0;
#X connect 2 0 10 0;
#X connect 3 0 2 0;
#X connect 3 1 4 0;
#X connect 4 0 2 1;
#X connect 4 1 2 2;
#X connect 5 0 8 0;
#X connect 8 0 4 1;
#X connect 9 0 3 0;
#X connect 10 0 1 0;
