#N canvas 577 635 513 309 10;
#X obj 104 38 r \$1FxHead;
#X obj 103 218 pix_invert;
#X obj 103 261 s \$1FxHead;
#X obj 104 105 t a b;
#N canvas 915 526 248 277 datastructure 0;
#X obj 23 20 inlet;
#X obj 152 60 inlet;
#X obj 23 65 t a a;
#X obj 23 226 outlet;
#X obj 23 85 element fx-array param;
#X obj 23 104 list prepend;
#X obj 23 123 list trim;
#X msg 23 46 0;
#X obj 23 142 route 0;
#X obj 23 162 get fx-param value ctl;
#X obj 23 197 +;
#X connect 0 0 7 0;
#X connect 1 0 4 1;
#X connect 2 0 4 0;
#X connect 2 1 5 1;
#X connect 4 0 5 0;
#X connect 5 0 6 0;
#X connect 6 0 8 0;
#X connect 7 0 2 0;
#X connect 8 0 9 0;
#X connect 9 0 10 0;
#X connect 9 1 10 1;
#X connect 10 0 3 0;
#X restore 209 165 pd datastructure;
#X obj 281 79 r \$1FxPt;
#X text 325 15 param: Invert 0 1 0 1 1;
#X obj 208 190 change;
#X obj 104 60 route \$2;
#X obj 280 102 route \$2;
#X obj 103 240 list prepend \$3;
#X connect 0 0 8 0;
#X connect 1 0 10 0;
#X connect 3 0 1 0;
#X connect 3 1 4 0;
#X connect 4 0 7 0;
#X connect 5 0 9 0;
#X connect 7 0 1 0;
#X connect 8 0 3 0;
#X connect 9 0 4 1;
#X connect 10 0 2 0;
