#N canvas 1073 404 606 394 10;
#X obj 78 4 r \$1FxHead;
#X obj 75 347 s \$1FxHead;
#X obj 75 298 pix_kaleidoscope;
#X obj 75 53 t a b;
#N canvas 1001 325 916 748 datastructure 0;
#X obj 53 60 inlet;
#X obj 338 69 inlet;
#X obj 53 165 element fx-array param;
#X obj 53 184 list prepend;
#X obj 53 145 t a a;
#X obj 53 203 list trim;
#X obj 50 442 outlet;
#X obj 414 413 get fx-param value, f 12;
#X obj 278 476 outlet;
#X obj 663 460 outlet;
#X obj 743 463 outlet;
#X obj 53 222 route 0 1 2 3 4 5 6 7 8;
#X obj 414 465 outlet;
#X obj 142 444 outlet;
#X obj 278 456 pack f f;
#X obj 502 502 outlet;
#X obj 502 483 pack f f;
#X msg 53 126 0 \, 1 \, 2 \, 3 \, 4 \, 5 \, 6 \, 7 \, 8;
#X obj 50 412 ../../getValue fx-param, f 14;
#X obj 142 413 ../../getValue fx-param, f 14;
#X obj 232 413 ../../getValue fx-param, f 14;
#X obj 323 413 ../../getValue fx-param, f 14;
#X obj 584 413 get fx-param value, f 12;
#X obj 493 413 ../../getValue fx-param, f 14;
#X obj 663 414 get fx-param value, f 12;
#X obj 743 414 get fx-param value, f 12;
#X connect 0 0 17 0;
#X connect 1 0 2 1;
#X connect 2 0 3 0;
#X connect 3 0 5 0;
#X connect 4 0 2 0;
#X connect 4 1 3 1;
#X connect 5 0 11 0;
#X connect 7 0 12 0;
#X connect 11 0 18 0;
#X connect 11 1 19 0;
#X connect 11 2 20 0;
#X connect 11 3 21 0;
#X connect 11 4 7 0;
#X connect 11 5 23 0;
#X connect 11 6 22 0;
#X connect 11 7 24 0;
#X connect 11 8 25 0;
#X connect 14 0 8 0;
#X connect 16 0 15 0;
#X connect 17 0 4 0;
#X connect 18 0 6 0;
#X connect 19 0 13 0;
#X connect 20 0 14 0;
#X connect 21 0 14 1;
#X connect 22 0 16 1;
#X connect 23 0 16 0;
#X connect 24 0 9 0;
#X connect 25 0 10 0;
#X restore 116 108 pd datastructure _______;
#X text 369 15 param: Segments 1 7 0 64 1;
#X text 369 28 param: inAngl 1 0 0 360 1;
#X text 369 41 param: inPosX 1 0.5 0 1 0.01;
#X text 369 54 param: inPosY 1 0.5 0 1 0.01;
#X text 369 68 param: outAngl 1 0 0 360 1;
#X text 369 81 param: outPosX 1 0.5 0 1 0.01;
#X text 369 94 param: outPosY 1 0.5 0 1 0.01;
#X text 369 108 param: RLP 1 1 0 10 1;
#X text 369 122 param: SAP 1 1 0 10 1;
#X obj 227 45 r \$1FxPt;
#X obj 75 325 list prepend \$3;
#X obj 78 30 route \$2;
#X obj 260 82 route \$2;
#X connect 0 0 16 0;
#X connect 2 0 15 0;
#X connect 3 0 2 0;
#X connect 3 1 4 0;
#X connect 4 0 2 1;
#X connect 4 1 2 2;
#X connect 4 2 2 3;
#X connect 4 3 2 4;
#X connect 4 4 2 5;
#X connect 4 5 2 6;
#X connect 4 6 2 7;
#X connect 14 0 17 0;
#X connect 15 0 1 0;
#X connect 16 0 3 0;
#X connect 17 0 4 1;
