#N canvas 957 682 450 300 10;
#X obj 104 51 r \$1FxHead;
#X obj 104 141 s \$1FxHead;
#X obj 104 72 route \$2;
#X obj 105 120 list prepend \$3;
#X connect 0 0 2 0;
#X connect 2 0 3 0;
#X connect 3 0 1 0;
