#N canvas 956 443 686 608 10;
#X msg 49 130 print;
#X obj 94 432 glsl_program;
#X obj 167 331 pack 0 0;
#X msg 51 212 print;
#X obj 188 311 t b f;
#X obj 188 266 change;
#X obj 166 171 change;
#X msg 167 354 link \$1 \$2;
#X msg 118 403 print;
#X floatatom 188 292 2 0 0 0 ID - -;
#X floatatom 166 194 2 0 0 0 ID - -;
#X obj 185 375 print linking;
#X obj 94 246 glsl_fragment;
#X obj 94 152 glsl_vertex;
#X obj 144 109 bng 15 250 50 0 empty empty empty 0 -6 0 8 -262144 -1
-1;
#N canvas 66 82 450 300 load_shader 0;
#X obj 89 99 t b b;
#X msg 119 126 0;
#X obj 89 154 outlet;
#X obj 89 71 gemhead 1;
#X connect 0 0 2 0;
#X connect 0 1 1 0;
#X connect 1 0 3 0;
#X connect 3 0 0 0;
#X restore 144 88 pd load_shader;
#X msg 443 398 seed \$1;
#X obj 94 13 r \$1FxHead;
#X obj 94 516 s \$1FxHead;
#X msg 341 380 K1 \$1;
#X obj 94 52 t a b;
#N canvas 710 557 247 336 control 0;
#X obj 12 10 inlet;
#X obj 141 72 inlet;
#X obj 12 95 element fx-array param;
#X msg 12 56 0 \, 1;
#X obj 12 114 list prepend;
#X obj 12 75 t a a;
#X obj 12 133 list trim;
#X obj 12 152 route 0 1;
#X obj 12 277 outlet;
#X obj 123 276 outlet;
#X obj 12 235 ../../getValue fx-param, f 14;
#X obj 123 237 ../../getValue fx-param, f 14;
#X connect 0 0 3 0;
#X connect 1 0 2 1;
#X connect 2 0 4 0;
#X connect 3 0 5 0;
#X connect 4 0 6 0;
#X connect 5 0 2 0;
#X connect 5 1 4 1;
#X connect 6 0 7 0;
#X connect 7 0 10 0;
#X connect 7 1 11 0;
#X connect 10 0 8 0;
#X connect 11 0 9 0;
#X restore 392 157 pd control;
#X obj 482 80 r \$1FxPt;
#X text 304 28 param: Seed 1 0 0 1 0.01;
#X text 304 9 param: Point 1 0.3 0 20 0.1;
#X obj 94 32 route \$2;
#X obj 481 110 route \$2;
#X obj 94 495 list prepend \$3;
#X msg 108 130 open T_distord.vert;
#X msg 105 216 open T_distord.frag;
#X connect 0 0 13 0;
#X connect 1 0 27 0;
#X connect 2 0 7 0;
#X connect 3 0 12 0;
#X connect 4 0 2 0;
#X connect 4 1 2 1;
#X connect 5 0 9 0;
#X connect 6 0 10 0;
#X connect 7 0 1 0;
#X connect 7 0 11 0;
#X connect 8 0 1 0;
#X connect 9 0 4 0;
#X connect 10 0 2 0;
#X connect 12 0 1 0;
#X connect 12 1 5 0;
#X connect 13 0 12 0;
#X connect 13 1 6 0;
#X connect 14 0 28 0;
#X connect 14 0 29 0;
#X connect 15 0 14 0;
#X connect 16 0 1 0;
#X connect 17 0 25 0;
#X connect 19 0 1 0;
#X connect 20 0 13 0;
#X connect 20 1 21 0;
#X connect 21 0 19 0;
#X connect 21 1 16 0;
#X connect 22 0 26 0;
#X connect 25 0 20 0;
#X connect 26 0 21 1;
#X connect 27 0 18 0;
#X connect 28 0 13 0;
#X connect 29 0 12 0;
