#N canvas 1068 195 686 608 10;
#X msg 23 135 print;
#X obj 94 432 glsl_program;
#X obj 167 331 pack 0 0;
#X msg 25 217 print;
#X obj 188 311 t b f;
#X obj 188 266 change;
#X obj 166 171 change;
#X msg 167 354 link \$1 \$2;
#X msg 118 403 print;
#X floatatom 188 292 2 0 0 0 ID - -;
#X floatatom 166 194 2 0 0 0 ID - -;
#X obj 185 375 print linking;
#X obj 94 246 glsl_fragment;
#X obj 94 152 glsl_vertex;
#X obj 202 68 bng 15 250 50 0 empty empty empty 0 -6 0 8 -262144 -1
-1;
#N canvas 66 82 450 300 load_shader 0;
#X obj 89 99 t b b;
#X msg 119 126 0;
#X obj 89 154 outlet;
#X obj 89 71 gemhead 1;
#X connect 0 0 2 0;
#X connect 0 1 1 0;
#X connect 1 0 3 0;
#X connect 3 0 0 0;
#X restore 202 47 pd load_shader;
#X obj 94 13 r \$1FxHead;
#X obj 94 526 s \$1FxHead;
#X obj 96 51 t a b;
#X msg 306 379 A \$1;
#X msg 386 423 O \$1;
#X msg 460 320 LT \$1 \$2 \$3;
#X msg 565 329 HT \$1 \$2 \$3;
#N canvas 436 602 764 402 datastructure 0;
#X obj 25 10 inlet;
#X obj 194 56 inlet;
#X obj 25 95 element fx-array param;
#X obj 25 114 list prepend;
#X obj 25 75 t a a;
#X obj 25 133 list trim;
#X obj 25 305 outlet;
#X obj 115 304 outlet;
#X obj 205 328 outlet;
#X msg 25 56 0 \, 1 \, 2 \, 3 \, 4 \, 5 \, 6 \, 7 \,;
#X obj 25 152 route 0 1 2 3 4 5 6 7;
#X obj 205 308 pack f f f;
#X obj 476 313 pack f f f;
#X obj 476 333 outlet;
#X obj 25 272 ../../getValue fx-param, f 14;
#X obj 115 272 ../../getValue fx-param, f 14;
#X obj 205 272 ../../getValue fx-param, f 14;
#X obj 295 272 ../../getValue fx-param, f 14;
#X obj 386 272 ../../getValue fx-param, f 14;
#X obj 476 272 ../../getValue fx-param, f 14;
#X obj 566 272 ../../getValue fx-param, f 14;
#X obj 656 272 ../../getValue fx-param, f 14;
#X connect 0 0 9 0;
#X connect 1 0 2 1;
#X connect 2 0 3 0;
#X connect 3 0 5 0;
#X connect 4 0 2 0;
#X connect 4 1 3 1;
#X connect 5 0 10 0;
#X connect 9 0 4 0;
#X connect 10 0 14 0;
#X connect 10 1 15 0;
#X connect 10 2 16 0;
#X connect 10 3 17 0;
#X connect 10 4 18 0;
#X connect 10 5 19 0;
#X connect 10 6 20 0;
#X connect 10 7 21 0;
#X connect 11 0 8 0;
#X connect 12 0 13 0;
#X connect 14 0 6 0;
#X connect 15 0 7 0;
#X connect 16 0 11 0;
#X connect 17 0 11 1;
#X connect 18 0 11 2;
#X connect 19 0 12 0;
#X connect 20 0 12 1;
#X connect 21 0 12 2;
#X restore 394 169 pd datastructure;
#X obj 487 129 r \$1FxPt;
#X text 470 388 param: Alpha 1 1 0 1 0.01;
#X text 470 407 param: Other 1 0 0 1 0.01;
#X text 470 426 param: LowT-R 1 0.1 0 1 0.01;
#X text 470 463 param: LowT-B 1 0.1 0 1 0.01;
#X text 470 444 param: LowT-G 1 0.1 0 1 0.01;
#X text 470 483 param: HighT-R 1 0.8 0 1 0.01;
#X text 470 502 param: HighT-G 1 0.8 0 1 0.01;
#X text 470 519 param: HighT-B 1 0.8 0 1 0.01;
#X obj 94 32 route \$2;
#X obj 94 495 list prepend \$3;
#X obj 487 148 route \$2;
#X floatatom 314 274 5 0 0 0 - - -;
#X floatatom 363 288 5 0 0 0 - - -;
#X obj 94 461 alpha;
#X text 471 548 rectangle 1;
#X text 473 571 alpha 1;
#X msg 105 216 open alpha.frag;
#X msg 108 130 open alpha.vert;
#X connect 0 0 13 0;
#X connect 1 0 38 0;
#X connect 2 0 7 0;
#X connect 3 0 12 0;
#X connect 4 0 2 0;
#X connect 4 1 2 1;
#X connect 5 0 9 0;
#X connect 6 0 10 0;
#X connect 7 0 1 0;
#X connect 7 0 11 0;
#X connect 8 0 1 0;
#X connect 9 0 4 0;
#X connect 10 0 2 0;
#X connect 12 0 1 0;
#X connect 12 1 5 0;
#X connect 13 0 12 0;
#X connect 13 1 6 0;
#X connect 14 0 42 0;
#X connect 14 0 41 0;
#X connect 15 0 14 0;
#X connect 16 0 33 0;
#X connect 18 0 13 0;
#X connect 18 1 23 0;
#X connect 19 0 1 0;
#X connect 20 0 1 0;
#X connect 21 0 1 0;
#X connect 22 0 1 0;
#X connect 23 0 19 0;
#X connect 23 0 36 0;
#X connect 23 1 20 0;
#X connect 23 1 37 0;
#X connect 23 2 21 0;
#X connect 23 3 22 0;
#X connect 24 0 35 0;
#X connect 33 0 18 0;
#X connect 34 0 17 0;
#X connect 35 0 23 1;
#X connect 38 0 34 0;
#X connect 41 0 12 0;
#X connect 42 0 13 0;
