#N canvas 817 135 841 586 10;
#X obj 76 443 glsl_program;
#X obj 149 366 pack 0 0;
#X obj 170 346 t b f;
#X obj 166 301 change;
#X msg 149 392 link \$1 \$2;
#X floatatom 170 327 2 0 0 0 ID - -;
#X obj 76 281 glsl_fragment;
#X msg 31 304 print;
#X msg 39 424 print;
#N canvas 66 82 450 300 load_shader 0;
#X obj 89 99 t b b;
#X msg 119 126 0;
#X obj 89 154 outlet;
#X obj 89 71 gemhead 1;
#X connect 0 0 2 0;
#X connect 0 1 1 0;
#X connect 1 0 3 0;
#X connect 3 0 0 0;
#X restore 119 108 pd load_shader;
#X obj 76 1 r \$1FxHead;
#X obj 76 40 t a b;
#X obj 76 20 route \$2;
#X obj 482 80 r \$1FxPt;
#X obj 481 110 route \$2;
#X obj 76 553 s \$1FxHead;
#X obj 76 532 list prepend \$3;
#X msg 326 375 inverse \$1;
#X msg 544 385 powerCurve \$1;
#X msg 662 395 colorize \$1;
#X msg 86 231 open solarize.frag;
#N canvas 466 562 625 336 control 0;
#X obj 12 10 inlet;
#X obj 141 72 inlet;
#X obj 12 95 element fx-array param;
#X obj 12 114 list prepend;
#X obj 12 75 t a a;
#X obj 12 133 list trim;
#X obj 12 277 outlet;
#X obj 103 274 outlet;
#X obj 12 235 ../../getValue fx-param, f 14;
#X obj 103 235 ../../getValue fx-param, f 14;
#X obj 194 274 outlet;
#X obj 194 235 ../../getValue fx-param, f 14;
#X obj 286 276 outlet;
#X obj 286 234 ../../getValue fx-param, f 14;
#X msg 12 56 0 \, 1 \, 2 \, 3;
#X obj 12 152 route 0 1 2 3;
#X connect 0 0 14 0;
#X connect 1 0 2 1;
#X connect 2 0 3 0;
#X connect 3 0 5 0;
#X connect 4 0 2 0;
#X connect 4 1 3 1;
#X connect 5 0 15 0;
#X connect 8 0 6 0;
#X connect 9 0 7 0;
#X connect 11 0 10 0;
#X connect 13 0 12 0;
#X connect 14 0 4 0;
#X connect 15 0 8 0;
#X connect 15 1 9 0;
#X connect 15 2 11 0;
#X connect 15 3 13 0;
#X restore 353 164 pd control;
#X msg 403 381 centerBrightness \$1;
#X msg 187 483 tex0;
#X obj 76 87 glsl_vertex;
#X msg 270 33 open texture.vert;
#X floatatom 126 171 2 0 0 0 ID - -;
#X text 596 73 param: inverse 0 0;
#X text 596 89 param: Brightness 1 0.5 0 1 0.01;
#X text 596 105 param: powerCurve 1 1 0 4 0.01;
#X text 598 121 param: colorize 1 0 0 1 0.01;
#X connect 0 0 16 0;
#X connect 1 0 4 0;
#X connect 2 0 1 0;
#X connect 2 1 1 1;
#X connect 3 0 5 0;
#X connect 4 0 0 0;
#X connect 5 0 2 0;
#X connect 6 0 0 0;
#X connect 6 1 3 0;
#X connect 7 0 6 0;
#X connect 8 0 0 0;
#X connect 9 0 20 0;
#X connect 9 0 25 0;
#X connect 10 0 12 0;
#X connect 11 0 24 0;
#X connect 11 1 21 0;
#X connect 12 0 11 0;
#X connect 13 0 14 0;
#X connect 14 0 21 1;
#X connect 16 0 15 0;
#X connect 17 0 0 0;
#X connect 18 0 0 0;
#X connect 19 0 0 0;
#X connect 20 0 6 0;
#X connect 21 0 17 0;
#X connect 21 1 22 0;
#X connect 21 2 18 0;
#X connect 21 3 19 0;
#X connect 22 0 0 0;
#X connect 23 0 0 0;
#X connect 24 0 6 0;
#X connect 24 1 1 0;
#X connect 24 1 26 0;
#X connect 25 0 24 0;
