#N canvas 682 232 1110 707 10;
#X obj 76 443 glsl_program;
#X obj 149 366 pack 0 0;
#X obj 170 346 t b f;
#X obj 166 301 change;
#X msg 149 392 link \$1 \$2;
#X floatatom 170 327 2 0 0 0 ID - -;
#X obj 76 281 glsl_fragment;
#X msg 31 304 print;
#X msg 39 424 print;
#X obj 326 486 b;
#N canvas 66 82 450 300 load_shader 0;
#X obj 89 99 t b b;
#X msg 119 126 0;
#X obj 89 154 outlet;
#X obj 89 71 gemhead 1;
#X connect 0 0 2 0;
#X connect 0 1 1 0;
#X connect 1 0 3 0;
#X connect 3 0 0 0;
#X restore 119 108 pd load_shader;
#X obj 76 1 r \$1FxHead;
#X obj 76 40 t a b;
#X obj 76 20 route \$2;
#X obj 253 354 f;
#X obj 281 353 + 1;
#X obj 249 309 tgl 15 0 empty empty empty 17 7 0 10 -262144 -1 -1 1
1;
#X msg 332 311 0;
#X obj 482 80 r \$1FxPt;
#X obj 481 110 route \$2;
#X obj 251 332 metro 5;
#X obj 290 312 /;
#X obj 275 264 t b a;
#X text 777 32 param: play 0 1;
#X obj 253 374 / 200;
#X msg 277 290 100;
#X text 777 51 param: Speed 1 20 1 100 1;
#X obj 76 553 s \$1FxHead;
#X obj 76 532 list prepend \$3;
#X msg 253 416 TIME \$1;
#X msg 317 510 RENDERSIZE 512 512;
#X text 778 69 param: nebula 0 0;
#X text 779 85 param: brightness 1 0.25 0 0.5 0.01;
#X text 778 101 param: zoom 1 2.5 0.25 20 0.01;
#X text 780 117 param: saturation 1 0.5 0 1 0.01;
#X text 779 133 param: distfading 1 0.25 0 0.5 0.01;
#X text 780 150 param: depth 1 0.25 0.1 1 0.01;
#X text 779 166 param: density 1 0.75 0.5 2 0.01;
#X text 781 182 param: morph 1 0.89 0.5 1 0.01;
#X text 780 198 param: rate 1 0.005 -0.1 0.1 0.001;
#X text 783 217 param: moveX 1 0 0 1 0.01;
#X text 785 234 param: moveY 1 0 0 1 0.01;
#N canvas 523 557 1146 336 control_________________ 0;
#X obj 12 10 inlet;
#X obj 141 72 inlet;
#X obj 12 95 element fx-array param;
#X obj 12 114 list prepend;
#X obj 12 75 t a a;
#X obj 12 133 list trim;
#X obj 12 277 outlet;
#X obj 103 274 outlet;
#X obj 12 235 ../../getValue fx-param, f 14;
#X obj 103 235 ../../getValue fx-param, f 14;
#X msg 12 56 0 \, 1 \, 2 \, 3 \, 4 \, 5 \, 6 \, 7 \, 8 \, 9 \, 10 \,
11 \, 12;
#X obj 12 152 route 0 1 2 3 4 5 6 7 8 9 10 11 12;
#X obj 194 274 outlet;
#X obj 194 235 ../../getValue fx-param, f 14;
#X obj 286 276 outlet;
#X obj 377 273 outlet;
#X obj 286 234 ../../getValue fx-param, f 14;
#X obj 377 234 ../../getValue fx-param, f 14;
#X obj 468 273 outlet;
#X obj 468 234 ../../getValue fx-param, f 14;
#X obj 562 276 outlet;
#X obj 653 273 outlet;
#X obj 562 234 ../../getValue fx-param, f 14;
#X obj 653 234 ../../getValue fx-param, f 14;
#X obj 744 273 outlet;
#X obj 744 234 ../../getValue fx-param, f 14;
#X obj 838 274 outlet;
#X obj 838 235 ../../getValue fx-param, f 14;
#X obj 931 275 outlet;
#X obj 931 236 ../../getValue fx-param, f 14;
#X obj 1022 275 outlet;
#X obj 1022 236 ../../getValue fx-param, f 14;
#X obj 1116 276 outlet;
#X obj 1116 237 ../../getValue fx-param, f 14;
#X connect 0 0 10 0;
#X connect 1 0 2 1;
#X connect 2 0 3 0;
#X connect 3 0 5 0;
#X connect 4 0 2 0;
#X connect 4 1 3 1;
#X connect 5 0 11 0;
#X connect 8 0 6 0;
#X connect 9 0 7 0;
#X connect 10 0 4 0;
#X connect 11 0 8 0;
#X connect 11 1 9 0;
#X connect 11 2 13 0;
#X connect 11 3 16 0;
#X connect 11 4 17 0;
#X connect 11 5 19 0;
#X connect 11 6 22 0;
#X connect 11 7 23 0;
#X connect 11 8 25 0;
#X connect 11 9 27 0;
#X connect 11 10 29 0;
#X connect 11 11 31 0;
#X connect 11 12 33 0;
#X connect 13 0 12 0;
#X connect 16 0 14 0;
#X connect 17 0 15 0;
#X connect 19 0 18 0;
#X connect 22 0 20 0;
#X connect 23 0 21 0;
#X connect 25 0 24 0;
#X connect 27 0 26 0;
#X connect 29 0 28 0;
#X connect 31 0 30 0;
#X connect 33 0 32 0;
#X restore 353 164 pd control_________________;
#X msg 329 416 nebula \$1;
#X msg 392 415 brightness \$1;
#X msg 479 416 zoom \$1;
#X msg 533 416 saturation \$1;
#X msg 623 416 distfading \$1;
#X msg 711 417 depth \$1;
#X msg 771 418 density \$1;
#X msg 835 418 morph \$1;
#X msg 896 419 rate \$1;
#X msg 956 420 move \$1 \$2;
#X obj 919 389 pack;
#X msg 86 231 open spaceTravel.frag;
#X connect 0 0 28 0;
#X connect 0 1 9 0;
#X connect 1 0 4 0;
#X connect 2 0 1 0;
#X connect 2 1 1 1;
#X connect 3 0 5 0;
#X connect 4 0 0 0;
#X connect 5 0 2 0;
#X connect 6 0 0 0;
#X connect 6 1 3 0;
#X connect 7 0 6 0;
#X connect 8 0 0 0;
#X connect 9 0 30 0;
#X connect 10 0 54 0;
#X connect 11 0 13 0;
#X connect 12 0 6 0;
#X connect 12 1 42 0;
#X connect 13 0 12 0;
#X connect 14 0 15 0;
#X connect 14 0 24 0;
#X connect 15 0 14 1;
#X connect 16 0 20 0;
#X connect 17 0 14 1;
#X connect 18 0 19 0;
#X connect 19 0 42 1;
#X connect 20 0 14 0;
#X connect 21 0 20 1;
#X connect 22 0 25 0;
#X connect 22 1 21 1;
#X connect 24 0 29 0;
#X connect 25 0 21 0;
#X connect 28 0 27 0;
#X connect 29 0 0 0;
#X connect 30 0 0 0;
#X connect 42 0 16 0;
#X connect 42 1 22 0;
#X connect 42 2 43 0;
#X connect 42 3 44 0;
#X connect 42 4 45 0;
#X connect 42 5 46 0;
#X connect 42 6 47 0;
#X connect 42 7 48 0;
#X connect 42 8 49 0;
#X connect 42 9 50 0;
#X connect 42 10 51 0;
#X connect 42 11 53 0;
#X connect 42 12 53 1;
#X connect 43 0 0 0;
#X connect 44 0 0 0;
#X connect 45 0 0 0;
#X connect 46 0 0 0;
#X connect 47 0 0 0;
#X connect 48 0 0 0;
#X connect 49 0 0 0;
#X connect 50 0 0 0;
#X connect 51 0 0 0;
#X connect 52 0 0 0;
#X connect 53 0 52 0;
#X connect 54 0 6 0;
