#N canvas 682 232 1022 707 10;
#X obj 76 443 glsl_program;
#X obj 149 366 pack 0 0;
#X obj 170 346 t b f;
#X obj 166 301 change;
#X msg 149 392 link \$1 \$2;
#X floatatom 170 327 2 0 0 0 ID - -;
#X obj 76 281 glsl_fragment;
#X msg 31 304 print;
#X msg 39 424 print;
#X obj 326 486 b;
#X msg 86 231 open tunnels.frag;
#N canvas 66 82 450 300 load_shader 0;
#X obj 89 99 t b b;
#X msg 119 126 0;
#X obj 89 154 outlet;
#X obj 89 71 gemhead 1;
#X connect 0 0 2 0;
#X connect 0 1 1 0;
#X connect 1 0 3 0;
#X connect 3 0 0 0;
#X restore 119 108 pd load_shader;
#X obj 76 1 r \$1FxHead;
#X obj 76 40 t a b;
#X obj 76 20 route \$2;
#X obj 362 328 f;
#X obj 390 327 + 1;
#X obj 358 283 tgl 15 0 empty empty empty 17 7 0 10 -262144 -1 -1 1
1;
#X msg 426 304 0;
#N canvas 710 557 398 336 control 0;
#X obj 12 10 inlet;
#X obj 141 72 inlet;
#X obj 12 95 element fx-array param;
#X obj 12 114 list prepend;
#X obj 12 75 t a a;
#X obj 12 133 list trim;
#X obj 12 277 outlet;
#X obj 103 274 outlet;
#X obj 12 235 ../../getValue fx-param, f 14;
#X obj 103 235 ../../getValue fx-param, f 14;
#X msg 12 56 0 \, 1 \, 2 \, 3;
#X obj 12 152 route 0 1 2 3;
#X obj 194 273 outlet;
#X obj 285 270 outlet;
#X obj 194 235 ../../getValue fx-param, f 14;
#X obj 285 235 ../../getValue fx-param, f 14;
#X connect 0 0 10 0;
#X connect 1 0 2 1;
#X connect 2 0 3 0;
#X connect 3 0 5 0;
#X connect 4 0 2 0;
#X connect 4 1 3 1;
#X connect 5 0 11 0;
#X connect 8 0 6 0;
#X connect 9 0 7 0;
#X connect 10 0 4 0;
#X connect 11 0 8 0;
#X connect 11 1 9 0;
#X connect 11 2 14 0;
#X connect 11 3 15 0;
#X connect 14 0 12 0;
#X connect 15 0 13 0;
#X restore 392 157 pd control;
#X obj 482 80 r \$1FxPt;
#X obj 481 110 route \$2;
#X obj 360 306 metro 5;
#X obj 399 286 /;
#X obj 384 238 t b a;
#X msg 362 390 iGlobalTime \$1;
#X text 304 9 param: play 0 1;
#X text 303 69 param: Texunit2 2 1 1 15 1;
#X text 303 49 param: Texunit1 2 1 1 15 1;
#X msg 590 404 iChannel1 \$1;
#X msg 758 404 iChannel2 \$1;
#X msg 317 510 iResolution 512 512;
#X floatatom 479 313 5 0 0 0 - - -;
#X obj 362 348 / 200;
#X msg 386 264 100;
#X text 304 28 param: Speed 1 20 1 100 1;
#X obj 76 553 s \$1FxHead;
#X obj 76 532 list prepend \$3;
#X connect 0 0 37 0;
#X connect 0 1 9 0;
#X connect 1 0 4 0;
#X connect 2 0 1 0;
#X connect 2 1 1 1;
#X connect 3 0 5 0;
#X connect 4 0 0 0;
#X connect 5 0 2 0;
#X connect 6 0 0 0;
#X connect 6 1 3 0;
#X connect 7 0 6 0;
#X connect 8 0 0 0;
#X connect 9 0 31 0;
#X connect 10 0 6 0;
#X connect 11 0 10 0;
#X connect 12 0 14 0;
#X connect 13 0 6 0;
#X connect 13 1 19 0;
#X connect 14 0 13 0;
#X connect 15 0 16 0;
#X connect 15 0 33 0;
#X connect 16 0 15 1;
#X connect 17 0 22 0;
#X connect 18 0 15 1;
#X connect 19 0 17 0;
#X connect 19 1 24 0;
#X connect 19 2 29 0;
#X connect 19 3 30 0;
#X connect 20 0 21 0;
#X connect 21 0 19 1;
#X connect 22 0 15 0;
#X connect 23 0 22 1;
#X connect 23 0 32 0;
#X connect 24 0 34 0;
#X connect 24 1 23 1;
#X connect 25 0 0 0;
#X connect 29 0 0 0;
#X connect 30 0 0 0;
#X connect 31 0 0 0;
#X connect 33 0 25 0;
#X connect 34 0 23 0;
#X connect 37 0 36 0;
