#N canvas 934 125 779 651 10;
#X obj 76 443 glsl_program;
#X obj 149 366 pack 0 0;
#X obj 170 346 t b f;
#X obj 166 301 change;
#X msg 149 392 link \$1 \$2;
#X floatatom 170 327 2 0 0 0 ID - -;
#X obj 167 413 print linking;
#X obj 76 281 glsl_fragment;
#X msg 31 304 print;
#X msg 39 424 print;
#X obj 427 345 f;
#X obj 455 344 + 1;
#X obj 423 300 tgl 15 0 empty empty empty 17 7 0 10 -262144 -1 -1 1
1;
#X msg 491 321 0;
#X obj 326 486 b;
#X msg 427 407 time \$1;
#X msg 326 508 resolution 512 512;
#X msg 85 231 open waves.frag;
#X obj 76 553 s \$1FxHead;
#X obj 76 532 list prepend \$3;
#N canvas 710 557 247 336 control 0;
#X obj 12 10 inlet;
#X obj 141 72 inlet;
#X obj 12 95 element fx-array param;
#X msg 12 56 0 \, 1;
#X obj 12 114 list prepend;
#X obj 12 75 t a a;
#X obj 12 133 list trim;
#X obj 12 152 route 0 1;
#X obj 12 277 outlet;
#X obj 123 276 outlet;
#X obj 12 235 ../../getValue fx-param, f 14;
#X obj 123 237 ../../getValue fx-param, f 14;
#X connect 0 0 3 0;
#X connect 1 0 2 1;
#X connect 2 0 4 0;
#X connect 3 0 5 0;
#X connect 4 0 6 0;
#X connect 5 0 2 0;
#X connect 5 1 4 1;
#X connect 6 0 7 0;
#X connect 7 0 10 0;
#X connect 7 1 11 0;
#X connect 10 0 8 0;
#X connect 11 0 9 0;
#X restore 392 157 pd control;
#X obj 482 80 r \$1FxPt;
#X obj 481 110 route \$2;
#N canvas 66 82 450 300 load_shader 0;
#X obj 89 99 t b b;
#X msg 119 126 0;
#X obj 89 154 outlet;
#X obj 89 71 gemhead 1;
#X connect 0 0 2 0;
#X connect 0 1 1 0;
#X connect 1 0 3 0;
#X connect 3 0 0 0;
#X restore 85 171 pd load_shader;
#X obj 76 1 r \$1FxHead;
#X obj 76 40 t a b;
#X obj 76 20 route \$2;
#X text 304 9 param: play 0 1;
#X obj 427 365 / 200;
#X obj 425 323 metro 5;
#X obj 476 243 /;
#X msg 451 208 100;
#X obj 449 182 t b a;
#X text 304 28 param: Speed 1 20 1 100 1;
#X connect 0 0 19 0;
#X connect 0 1 14 0;
#X connect 1 0 4 0;
#X connect 2 0 1 0;
#X connect 2 1 1 1;
#X connect 3 0 5 0;
#X connect 4 0 0 0;
#X connect 4 0 6 0;
#X connect 5 0 2 0;
#X connect 7 0 0 0;
#X connect 7 1 3 0;
#X connect 8 0 7 0;
#X connect 9 0 0 0;
#X connect 10 0 11 0;
#X connect 10 0 28 0;
#X connect 11 0 10 1;
#X connect 12 0 29 0;
#X connect 13 0 10 1;
#X connect 14 0 16 0;
#X connect 15 0 0 0;
#X connect 16 0 0 0;
#X connect 17 0 7 0;
#X connect 19 0 18 0;
#X connect 20 0 12 0;
#X connect 20 1 32 0;
#X connect 21 0 22 0;
#X connect 22 0 20 1;
#X connect 23 0 17 0;
#X connect 24 0 26 0;
#X connect 25 0 7 0;
#X connect 25 1 20 0;
#X connect 26 0 25 0;
#X connect 28 0 15 0;
#X connect 29 0 10 0;
#X connect 30 0 29 1;
#X connect 31 0 30 0;
#X connect 32 0 31 0;
#X connect 32 1 30 1;
