#N canvas 1089 398 599 681 10;
#X text 13 634 This is an example of iterative process : the output
of the shader is used for next frame input;
#X obj 432 295 namecanvas \$1FXgui;
#X obj 82 355 pix_biquad;
#X obj 78 4 r \$1fxhead;
#X obj 82 422 s \$1fxfoot;
#X msg 226 288 0.2 0.5 0.3 0.6 0.2 0.2;
#X msg 225 314 1 0 0 1 0 0;
#X msg 227 262 0.3 0.5 0.4 0.6 0.3 0.2;
#X msg 226 233 0.4 0.4 0.5 0.6 0.4 0.3;
#X msg 222 210 0.5 0.4 0.5 0.6 0.4 0.4;
#X msg 219 186 0.8 0.45 0.5 0.6 0.5 0.4;
#X msg 218 160 1 0.1 0 1 0.1 0.1;
#X obj 108 103 \$2;
#X obj 78 24 t a b;
#X msg 105 43 1;
#X obj 105 62 change;
#X obj 106 126 route 0 1 2 3 4 5 6 7 8 9;
#X obj 106 83 b;
#X connect 2 0 4 0;
#X connect 3 0 13 0;
#X connect 5 0 2 0;
#X connect 6 0 2 0;
#X connect 7 0 2 0;
#X connect 8 0 2 0;
#X connect 9 0 2 0;
#X connect 10 0 2 0;
#X connect 11 0 2 0;
#X connect 12 0 16 0;
#X connect 13 0 2 0;
#X connect 13 1 14 0;
#X connect 14 0 15 0;
#X connect 15 0 17 0;
#X connect 16 0 6 0;
#X connect 16 1 5 0;
#X connect 16 2 7 0;
#X connect 16 3 8 0;
#X connect 16 4 9 0;
#X connect 16 5 10 0;
#X connect 16 6 11 0;
#X connect 17 0 12 0;
