#N canvas 1099 373 599 681 10;
#X text 13 634 This is an example of iterative process : the output
of the shader is used for next frame input;
#X obj 432 295 namecanvas \$1FXgui;
#X msg 447 86 resize \$1;
#X floatatom 439 58 5 0 0 0 - - -;
#X obj 448 111 pix_buffer \$0depot 4;
#X obj 78 4 r \$1FXarrayHEAD;
#X obj 166 273 r \$1FXarrayTEX;
#X obj 78 382 s \$1FXarrayPT-s;
#X obj 143 327 s \$1FXarrayTEX-s;
#X obj 78 287 pix_texture;
#X floatatom 128 167 3 0 1 2 fb0 - -;
#X floatatom 152 167 3 0 1 2 fb1 - -;
#X floatatom 176 167 3 0 1 2 fb2 - -;
#X floatatom 205 167 3 0 1 2 ff1 - -;
#X floatatom 229 167 3 0 1 2 ff2 - -;
#N canvas 0 0 450 300 init 0;
#X msg 175 214 0.3;
#X msg 247 215 0.6;
#X obj 104 258 outlet;
#X obj 154 258 outlet;
#X obj 204 258 outlet;
#X obj 254 258 outlet;
#X obj 304 258 outlet;
#X obj 244 59 inlet;
#X obj 388 158 t b;
#X msg 378 201 1;
#X msg 413 201 0;
#X obj 246 88 route 1;
#X msg 104 214 0.2;
#X msg 140 215 0.5;
#X obj 353 258 outlet;
#X msg 277 215 0.2;
#X msg 312 213 0.2;
#X obj 238 127 t b;
#X obj 193 105 t b b;
#X obj 277 115 t b b;
#X msg 277 135 1;
#X connect 0 0 4 0;
#X connect 1 0 5 0;
#X connect 7 0 11 0;
#X connect 8 0 9 0;
#X connect 8 0 10 0;
#X connect 9 0 5 0;
#X connect 10 0 3 0;
#X connect 10 0 4 0;
#X connect 10 0 6 0;
#X connect 10 0 14 0;
#X connect 11 0 18 0;
#X connect 11 1 19 0;
#X connect 12 0 2 0;
#X connect 13 0 3 0;
#X connect 15 0 6 0;
#X connect 16 0 14 0;
#X connect 17 0 13 0;
#X connect 17 0 0 0;
#X connect 17 0 1 0;
#X connect 17 0 15 0;
#X connect 17 0 16 0;
#X connect 18 0 12 0;
#X connect 18 1 17 0;
#X connect 19 0 20 0;
#X connect 19 1 8 0;
#X connect 20 0 2 0;
#X restore 276 150 pd init;
#X obj 276 133 tgl 15 0 empty empty empty 0 -6 0 8 -262144 -1 -1 0
1;
#X msg 161 245 set;
#X obj 78 265 pix_biquad;
#X floatatom 253 167 3 0 1 2 ff3 - -;
#X obj 128 185 pack 1 0 0 1 0 0;
#X connect 2 0 4 0;
#X connect 3 0 2 0;
#X connect 5 0 18 0;
#X connect 6 0 9 1;
#X connect 9 0 7 0;
#X connect 9 1 8 0;
#X connect 10 0 20 0;
#X connect 11 0 20 1;
#X connect 12 0 20 2;
#X connect 13 0 20 3;
#X connect 14 0 20 4;
#X connect 15 0 10 0;
#X connect 15 1 11 0;
#X connect 15 2 12 0;
#X connect 15 3 13 0;
#X connect 15 4 14 0;
#X connect 15 5 19 0;
#X connect 16 0 15 0;
#X connect 17 0 18 0;
#X connect 18 0 9 0;
#X connect 19 0 20 5;
#X connect 20 0 18 0;
