#N canvas 527 398 599 681 10;
#X obj 78 531 pix_snap2tex;
#X msg 368 450 0 0;
#X msg 414 449 500 500;
#X obj 368 427 t b b;
#X obj 78 413 glsl_program;
#X obj 151 339 pack 0 0;
#X obj 172 319 t b f;
#X obj 172 274 change;
#X obj 150 179 change;
#X msg 151 364 link \$1 \$2;
#X floatatom 172 300 2 0 0 0 ID - -;
#X floatatom 150 202 2 0 0 0 ID - -;
#X obj 169 385 print linking;
#X obj 78 254 glsl_fragment;
#X obj 78 160 glsl_vertex;
#X obj 100 111 bng 15 250 50 0 empty empty empty 0 -6 0 8 -262144 -1
-1;
#X obj 78 553 colorRGB 1 1 1 1;
#X msg 92 138 open game.vert;
#X msg 89 224 open game.frag;
#X text 137 112 <- 2 : load shader;
#X obj 78 435 t b a;
#X text 13 634 This is an example of iterative process : the output
of the shader is used for next frame input;
#X obj 315 11 loadbang;
#X obj 80 28 r \$1FXarray;
#X obj 78 574 s \$1FXarray-s;
#X obj 80 72 spigot;
#X msg 118 52 1;
#X msg 301 431 quality 1;
#X obj 312 30 t b b b;
#X obj 432 295 namecanvas \$1FXgui;
#X connect 0 0 16 0;
#X connect 1 0 0 1;
#X connect 2 0 0 2;
#X connect 3 0 1 0;
#X connect 3 1 2 0;
#X connect 4 0 20 0;
#X connect 5 0 9 0;
#X connect 6 0 5 0;
#X connect 6 1 5 1;
#X connect 7 0 10 0;
#X connect 8 0 11 0;
#X connect 9 0 4 0;
#X connect 9 0 12 0;
#X connect 10 0 6 0;
#X connect 11 0 5 0;
#X connect 13 0 4 0;
#X connect 13 1 7 0;
#X connect 14 0 13 0;
#X connect 14 1 8 0;
#X connect 15 0 17 0;
#X connect 15 0 18 0;
#X connect 16 0 24 0;
#X connect 17 0 14 0;
#X connect 18 0 13 0;
#X connect 20 0 0 0;
#X connect 20 1 0 0;
#X connect 22 0 28 0;
#X connect 23 0 25 0;
#X connect 25 0 14 0;
#X connect 26 0 25 1;
#X connect 27 0 0 0;
#X connect 28 0 26 0;
#X connect 28 1 15 0;
#X connect 28 2 27 0;
#X connect 28 2 3 0;
