#N canvas 1026 600 871 478 10;
#X obj 150 328 translateXYZ;
#X obj 150 252 separator;
#X obj 56 153 s \$0pixNumber;
#X obj 177 140 r \$0pixNumber;
#N canvas 1215 298 467 518 pixfilter 0;
#X obj 162 181 pix_data;
#N canvas 619 482 450 300 pixCounter 0;
#X obj 149 127 sel 0;
#X obj 149 147 f;
#X obj 208 195 + 1;
#X obj 268 181 mod 10;
#X obj 149 106 mod 10;
#X obj 105 35 f;
#X obj 116 62 + 1;
#X obj 149 84 mod 100;
#X obj 104 175 mod 10;
#X obj 104 194 / 10;
#X obj 202 230 / 10;
#X obj 104 220 pack;
#X obj 104 239 outlet;
#X obj 103 11 inlet;
#X obj 256 30 r \$0pixNumber;
#X obj 251 133 pow 0.5;
#X connect 0 0 1 0;
#X connect 1 0 2 0;
#X connect 1 0 10 0;
#X connect 2 0 3 0;
#X connect 3 0 1 1;
#X connect 4 0 0 0;
#X connect 5 0 6 0;
#X connect 5 0 8 0;
#X connect 6 0 7 0;
#X connect 7 0 5 1;
#X connect 7 0 4 0;
#X connect 8 0 9 0;
#X connect 9 0 11 0;
#X connect 10 0 11 1;
#X connect 11 0 12 0;
#X connect 13 0 5 0;
#X connect 14 0 7 1;
#X connect 14 0 15 0;
#X connect 15 0 8 1;
#X connect 15 0 9 1;
#X connect 15 0 3 1;
#X connect 15 0 10 1;
#X connect 15 0 4 1;
#X restore 241 107 pd pixCounter;
#X obj 241 149 unpack;
#X obj 151 10 inlet;
#X obj 269 451 outlet;
#X obj 241 126 t a a;
#X obj 184 245 unpack f f f;
#X obj 180 346 &;
#X obj 179 370 &;
#X obj 269 416 mux 0 1 2 3 4;
#X obj 304 301 < 0.1;
#X obj 326 335 &;
#X obj 325 359 &;
#X obj 346 389 inlet;
#X obj 210 301 > 0.5;
#X obj 252 301 > 0.5;
#X obj 169 301 > 0.5;
#X obj 272 245 inlet;
#X obj 344 301 < 0.1;
#X obj 385 301 < 0.1;
#X obj 205 213 s \$0pixColor;
#X obj 329 150 s \$0pixXY;
#X msg 259 56 0;
#X obj 162 33 t b b a b;
#X obj 235 78 pix_buffer_read \$0cam;
#X connect 0 1 6 0;
#X connect 0 1 20 0;
#X connect 1 0 5 0;
#X connect 2 0 0 2;
#X connect 2 1 0 3;
#X connect 3 0 23 0;
#X connect 5 0 2 0;
#X connect 5 1 21 0;
#X connect 6 0 10 0;
#X connect 6 0 16 0;
#X connect 6 1 14 0;
#X connect 6 1 18 0;
#X connect 6 2 15 0;
#X connect 6 2 19 0;
#X connect 7 0 8 0;
#X connect 8 0 9 3;
#X connect 9 0 4 0;
#X connect 10 0 11 0;
#X connect 11 0 12 0;
#X connect 12 0 9 4;
#X connect 13 0 9 5;
#X connect 14 0 7 1;
#X connect 14 0 9 1;
#X connect 15 0 8 1;
#X connect 15 0 9 2;
#X connect 16 0 7 0;
#X connect 16 0 9 0;
#X connect 17 0 16 1;
#X connect 17 0 14 1;
#X connect 17 0 15 1;
#X connect 18 0 11 1;
#X connect 19 0 12 1;
#X connect 22 0 24 1;
#X connect 23 0 0 0;
#X connect 23 1 1 0;
#X connect 23 2 24 0;
#X connect 23 3 22 0;
#X connect 24 0 0 1;
#X restore 212 252 pd pixfilter;
#X obj 314 149 hradio 10 1 0 5 empty empty empty 0 -8 0 10 -262144
-1 -1 1;
#X text 321 131 r g b w black;
#X obj 150 286 spigot;
#X obj 150 400 rotateXYZ;
#N canvas 1003 183 488 262 pixXYZ 0;
#X obj 109 229 outlet;
#X obj 64 228 outlet;
#X obj 67 64 unpack;
#X obj 40 44 t b a;
#X obj 40 25 r \$0pixXY;
#X obj 322 75 r \$0imgSize;
#X obj 322 98 /;
#X obj 307 119 *;
#X obj 281 97 t a a;
#X obj 63 102 +;
#X obj 102 101 +;
#X obj 66 154 * 8;
#X obj 65 191 - 4;
#X obj 271 160 * 0.5;
#X obj 316 157 * 0.5;
#X obj 103 158 * 6;
#X obj 103 192 - 3;
#X obj 209 15 r \$0geo;
#X obj 209 35 route Size;
#X connect 2 0 9 0;
#X connect 2 1 10 0;
#X connect 3 1 2 0;
#X connect 4 0 3 0;
#X connect 5 0 6 0;
#X connect 6 0 7 1;
#X connect 7 0 14 0;
#X connect 7 0 15 1;
#X connect 8 0 11 1;
#X connect 8 0 13 0;
#X connect 8 1 7 0;
#X connect 9 0 11 0;
#X connect 10 0 15 0;
#X connect 11 0 12 0;
#X connect 12 0 1 0;
#X connect 13 0 12 1;
#X connect 14 0 16 1;
#X connect 15 0 16 0;
#X connect 16 0 0 0;
#X connect 17 0 18 0;
#X connect 18 0 8 0;
#X restore 173 307 pd pixXYZ;
#X obj 56 123 pow 2;
#N canvas 504 683 767 362 colorMode 0;
#X obj 118 35 inlet;
#X obj 286 21 inlet;
#X obj 118 308 outlet;
#X obj 118 125 spigot 1;
#X obj 139 100 ==;
#X obj 136 164 r \$0pixColor;
#X obj 449 52 unpack;
#X obj 594 28 r \$0pixNumber;
#X obj 385 216 pix_crop;
#X obj 635 125 /;
#X obj 635 79 t b a;
#X obj 512 51 unpack;
#X obj 591 124 /;
#X obj 591 78 t b a;
#X obj 573 181 *;
#X obj 617 179 *;
#X obj 594 47 pow 0.5;
#X obj 385 236 pix_texture;
#X obj 491 118 *;
#X obj 535 119 *;
#X obj 286 82 spigot;
#X obj 331 60 == 1;
#X obj 447 28 r \$0pixXY;
#X obj 287 102 t a b;
#X obj 372 157 f;
#X obj 390 137 r \$0source;
#X obj 576 236 +;
#X obj 603 236 +;
#X floatatom 699 194 5 0 0 0 - - -;
#X floatatom 701 215 5 0 0 0 - - -;
#X obj 512 29 r \$0imgSize;
#X obj 249 177 pix_buffer_read \$0cam;
#X obj 118 232 colorRGB;
#X obj 134 185 unpack f f f;
#X obj 543 316 print;
#X connect 0 0 3 0;
#X connect 0 0 20 0;
#X connect 1 0 4 0;
#X connect 1 0 21 0;
#X connect 3 0 32 0;
#X connect 4 0 3 1;
#X connect 5 0 33 0;
#X connect 6 0 18 0;
#X connect 6 1 19 0;
#X connect 7 0 16 0;
#X connect 8 0 17 0;
#X connect 9 0 8 2;
#X connect 9 0 15 1;
#X connect 10 0 9 0;
#X connect 10 1 9 1;
#X connect 11 0 12 0;
#X connect 11 1 9 0;
#X connect 12 0 8 1;
#X connect 12 0 14 1;
#X connect 13 0 12 0;
#X connect 13 1 12 1;
#X connect 14 0 26 0;
#X connect 15 0 27 0;
#X connect 16 0 13 0;
#X connect 16 0 10 0;
#X connect 16 0 19 1;
#X connect 16 0 18 1;
#X connect 17 0 2 0;
#X connect 18 0 14 0;
#X connect 19 0 15 0;
#X connect 20 0 23 0;
#X connect 21 0 20 1;
#X connect 22 0 6 0;
#X connect 23 0 31 0;
#X connect 23 1 24 0;
#X connect 24 0 31 1;
#X connect 25 0 24 1;
#X connect 26 0 8 3;
#X connect 27 0 8 4;
#X connect 28 0 26 1;
#X connect 29 0 27 1;
#X connect 30 0 11 0;
#X connect 31 0 8 0;
#X connect 32 0 2 0;
#X connect 33 0 32 1;
#X connect 33 1 32 2;
#X connect 33 2 32 3;
#X restore 150 419 pd colorMode;
#X obj 387 378 hradio 10 1 0 2 empty empty empty 0 -8 0 10 -262144
-1 -1 1;
#X obj 639 186 pix_film;
#X obj 624 346 pix_data;
#X obj 647 165 gemhead 100;
#X obj 754 187 t a;
#X obj 683 316 unpack;
#X obj 683 296 r \$0pixXY;
#X obj 669 381 * 360;
#X obj 639 108 element texture media;
#X obj 639 127 get media-array filename;
#X msg 639 146 open \$1 \, auto 1;
#X obj 326 270 r \$0geo;
#X obj 56 34 route Repeat;
#X obj 56 4 r \$0geo;
#X obj 639 70 route Movie;
#N canvas 776 148 678 779 datastructure 0;
#X obj 69 63 pointer;
#X obj 108 44 t p b p;
#X obj 100 122 == 0;
#X obj 68 82 t p b;
#X obj 68 141 spigot;
#X obj 100 102 \$2;
#X obj 68 238 list prepend;
#X obj 68 162 t b p;
#X obj 68 200 t a a;
#X obj 68 257 list trim;
#X obj 34 681 s \$0geo;
#X msg 93 657 Repeat \$1;
#X msg 125 614 Color \$1;
#X msg 154 532 Movie \$1;
#X msg 172 490 movieRot \$1;
#X obj 42 43 t b b;
#X msg 163 511 colMod \$1;
#X msg 104 634 Thresh \$1;
#X obj 342 153 route Repeat Thresh Color;
#X obj 342 98 r /\$1/\$2/fx;
#X obj 342 124 route \$3;
#X obj 166 121 setsize fx-array param;
#X obj 68 219 element fx-array param;
#X obj 58 313 get fx-param value;
#X obj 76 336 get fx-param value;
#X obj 91 358 get fx-param value;
#X obj 109 381 get fx-param value;
#X obj 131 410 get fx-param value;
#X obj 150 435 get fx-param value;
#X obj 168 458 get fx-param value;
#X obj 108 6 r \$1FxPt;
#X obj 689 383 set fx-param value;
#X obj 676 417 set fx-param value;
#X obj 656 452 set fx-param value;
#X obj 641 479 set fx-param value;
#X obj 629 507 set fx-param value;
#X obj 612 542 set fx-param value;
#X obj 598 568 set fx-param value;
#X obj 108 25 route \$3;
#X obj 42 23 inlet;
#X msg 133 593 Size \$1;
#X obj 534 165 route Size Movie colMod movieRot;
#X msg 69 182 0 \, 1 \, 2 \, 3 \, 4 \, 5 \, 6;
#X obj 68 280 route 0 1 2 3 4 5 6;
#X msg 165 102 7;
#X connect 0 0 3 0;
#X connect 1 0 0 1;
#X connect 1 1 44 0;
#X connect 1 2 21 1;
#X connect 2 0 4 1;
#X connect 3 0 4 0;
#X connect 3 1 5 0;
#X connect 4 0 7 0;
#X connect 5 0 2 0;
#X connect 6 0 9 0;
#X connect 7 0 42 0;
#X connect 7 1 22 1;
#X connect 8 0 22 0;
#X connect 8 1 6 1;
#X connect 9 0 43 0;
#X connect 11 0 10 0;
#X connect 12 0 10 0;
#X connect 13 0 10 0;
#X connect 14 0 10 0;
#X connect 15 1 0 0;
#X connect 16 0 10 0;
#X connect 17 0 10 0;
#X connect 18 0 31 0;
#X connect 18 1 32 0;
#X connect 18 2 33 0;
#X connect 18 3 41 0;
#X connect 19 0 20 0;
#X connect 20 0 18 0;
#X connect 22 0 6 0;
#X connect 23 0 11 0;
#X connect 24 0 17 0;
#X connect 25 0 12 0;
#X connect 26 0 40 0;
#X connect 27 0 13 0;
#X connect 28 0 16 0;
#X connect 29 0 14 0;
#X connect 30 0 38 0;
#X connect 38 0 1 0;
#X connect 39 0 15 0;
#X connect 40 0 10 0;
#X connect 41 0 34 0;
#X connect 41 1 35 0;
#X connect 41 2 36 0;
#X connect 41 3 37 0;
#X connect 42 0 8 0;
#X connect 43 0 23 0;
#X connect 43 0 31 1;
#X connect 43 1 24 0;
#X connect 43 1 32 1;
#X connect 43 2 25 0;
#X connect 43 2 33 1;
#X connect 43 3 26 0;
#X connect 43 3 34 1;
#X connect 43 4 35 1;
#X connect 43 4 27 0;
#X connect 43 5 36 1;
#X connect 43 5 28 0;
#X connect 43 6 37 1;
#X connect 43 6 29 0;
#X connect 44 0 21 0;
#X restore 177 66 pd datastructure;
#X obj 276 146 / 127;
#X obj 749 297 r \$0geo;
#X obj 749 316 route movRotAngle;
#X obj 762 89 r \$1Pt;
#X obj 639 89 change;
#X obj 441 103 element texture media;
#X obj 441 123 get media-array width height;
#X obj 441 44 r \$1Pt;
#X obj 441 83 get texture mediaID;
#X obj 441 156 pack f f;
#X obj 441 63 t p p;
#X obj 441 175 s \$0imgSize;
#X obj 150 187 t a a;
#N canvas 1435 698 450 300 buffer 0;
#X obj 73 117 t a b;
#X msg 188 110 0;
#X obj 71 9 inlet;
#X obj 72 141 pix_buffer_write \$0cam;
#X obj 232 138 pix_buffer \$0cam 1;
#X connect 0 0 3 0;
#X connect 0 1 1 0;
#X connect 1 0 3 1;
#X connect 2 0 0 0;
#X restore 88 98 pd buffer;
#X obj 150 8 r \$1FxHead;
#X obj 150 27 route \$3;
#X obj 150 457 s \$1FxHead;
#X obj 150 438 list prepend \$4;
#X obj 17 212 namecanvas \$1FX\$3;
#X obj 267 109 route Thresh Color;
#X obj 326 289 route movieRot colMod;
#X obj 150 46 t a b;
#X obj 267 89 r \$0geo;
#X obj 234 289 print;
#X text 375 -2 fx-parameters: Repeat Thresh Color Size Movie colMod
movieRot;
#X obj 639 51 r \$0geo;
#X obj 282 326 demux 0 1 2 3;
#X msg 189 361 0;
#X obj 586 254 t b;
#X obj 151 166 repeat;
#X connect 0 0 8 0;
#X connect 1 0 7 0;
#X connect 3 0 57 1;
#X connect 4 0 7 1;
#X connect 5 0 4 2;
#X connect 7 0 0 0;
#X connect 8 0 11 0;
#X connect 9 0 0 1;
#X connect 9 1 0 2;
#X connect 10 0 2 0;
#X connect 11 0 45 0;
#X connect 12 0 11 1;
#X connect 13 0 14 1;
#X connect 13 2 16 0;
#X connect 14 2 19 0;
#X connect 15 0 13 0;
#X connect 16 0 13 1;
#X connect 17 0 14 2;
#X connect 17 1 14 3;
#X connect 18 0 17 0;
#X connect 19 0 54 0;
#X connect 20 0 21 0;
#X connect 21 0 22 0;
#X connect 22 0 13 0;
#X connect 23 0 48 0;
#X connect 24 0 10 0;
#X connect 25 0 24 0;
#X connect 26 0 32 0;
#X connect 28 0 4 1;
#X connect 29 0 30 0;
#X connect 30 0 19 1;
#X connect 31 0 20 1;
#X connect 32 0 20 0;
#X connect 33 0 34 0;
#X connect 34 0 37 0;
#X connect 34 1 37 1;
#X connect 35 0 38 0;
#X connect 36 0 33 0;
#X connect 37 0 39 0;
#X connect 38 0 36 0;
#X connect 38 1 33 1;
#X connect 40 0 1 0;
#X connect 40 1 4 0;
#X connect 40 1 56 0;
#X connect 42 0 43 0;
#X connect 43 0 49 0;
#X connect 45 0 44 0;
#X connect 47 0 28 0;
#X connect 47 1 5 0;
#X connect 48 0 54 1;
#X connect 48 1 12 0;
#X connect 49 0 41 0;
#X connect 49 0 57 0;
#X connect 49 1 27 0;
#X connect 50 0 47 0;
#X connect 53 0 26 0;
#X connect 54 0 55 0;
#X connect 54 1 8 1;
#X connect 54 2 8 2;
#X connect 54 3 8 1;
#X connect 54 3 8 2;
#X connect 55 0 8 1;
#X connect 55 0 8 2;
#X connect 56 0 14 0;
#X connect 57 0 40 0;
